<?xml version="1.0"?>
<svg xmlns="http://www.w3.org/2000/svg" xmlns:lc="http://www.librecad.org" xmlns:xlink="http://www.w3.org/1999/xlink" width="131.96098447mm" height="46.00076047mm" viewBox="0 0 131.96098447 46.00076047">
    <g lc:layername="0" lc:is_locked="false" lc:is_construction="false" fill="none" stroke="black" stroke-width="1">
        <line x1="60.39839055" y1="9.18267695" x2="71.56259391" y2="9.18267695"/>
        <line x1="51.77060755" y1="3.88658245" x2="60.39839055" y2="9.18267695"/>
        <line x1="59.90790828" y1="15.18267695" x2="55.91777205" y2="31.45293345"/>
        <path d="M62.45765568,13.18267695 A2.05926513,2.05926513 0 0,0 59.90790828,15.18267695 "/>
        <line x1="62.45765568" y1="13.18267695" x2="69.50332879" y2="13.18267695"/>
        <line x1="22.36991455" y1="0.35625495" x2="23.32755955" y2="0.2697296"/>
        <line x1="23.32755955" y1="0.2697296" x2="24.28696095" y2="0.19484699"/>
        <line x1="24.28696095" y1="0.19484699" x2="25.24787335" y2="0.13178483"/>
        <line x1="25.24787335" y1="0.13178483" x2="26.21005138" y2="0.08072081"/>
        <line x1="26.21005138" y1="0.08072081" x2="27.17324964" y2="0.04183263"/>
        <line x1="27.17324964" y1="0.04183263" x2="28.13722273" y2="0.01529796"/>
        <line x1="28.13722273" y1="0.01529796" x2="29.10172528" y2="0.00129452"/>
        <line x1="29.10172528" y1="0.00129452" x2="30.06651188" y2="0"/>
        <line x1="30.06651188" y1="0" x2="31.03133716" y2="0.01159208"/>
        <line x1="31.03133716" y1="0.01159208" x2="31.99595572" y2="0.03624847"/>
        <line x1="31.99595572" y1="0.03624847" x2="32.96012217" y2="0.07414685"/>
        <line x1="32.96012217" y1="0.07414685" x2="33.92359111" y2="0.12546493"/>
        <line x1="33.92359111" y1="0.12546493" x2="34.88611717" y2="0.19038038"/>
        <line x1="34.88611717" y1="0.19038038" x2="35.84745495" y2="0.26907092"/>
        <line x1="35.84745495" y1="0.26907092" x2="36.80735906" y2="0.36171423"/>
        <line x1="36.80735906" y1="0.36171423" x2="37.76558411" y2="0.468488"/>
        <line x1="37.76558411" y1="0.468488" x2="38.72188471" y2="0.58956994"/>
        <line x1="38.72188471" y1="0.58956994" x2="39.67601547" y2="0.72513773"/>
        <line x1="39.67601547" y1="0.72513773" x2="40.627731" y2="0.87536907"/>
        <line x1="40.627731" y1="0.87536907" x2="41.57678591" y2="1.04044165"/>
        <line x1="41.57678591" y1="1.04044165" x2="42.52293482" y2="1.22053316"/>
        <line x1="42.52293482" y1="1.22053316" x2="43.46593232" y2="1.41582131"/>
        <line x1="43.46593232" y1="1.41582131" x2="44.40553304" y2="1.62648377"/>
        <line x1="44.40553304" y1="1.62648377" x2="45.34149157" y2="1.85269826"/>
        <line x1="45.34149157" y1="1.85269826" x2="46.27356254" y2="2.09464246"/>
        <line x1="46.27356254" y1="2.09464246" x2="47.20150055" y2="2.35249406"/>
        <line x1="47.20150055" y1="2.35249406" x2="48.12506021" y2="2.62643077"/>
        <line x1="48.12506021" y1="2.62643077" x2="49.04399613" y2="2.91663026"/>
        <line x1="49.04399613" y1="2.91663026" x2="49.95806292" y2="3.22327025"/>
        <line x1="49.95806292" y1="3.22327025" x2="50.86701519" y2="3.54652841"/>
        <line x1="50.86701519" y1="3.54652841" x2="51.77060755" y2="3.88658245"/>
        <line x1="3.99854223" y1="15.84580473" x2="4.00820938" y2="15.45496075"/>
        <line x1="4.00820938" y1="15.45496075" x2="4.03211266" y2="15.06449885"/>
        <line x1="4.03211266" y1="15.06449885" x2="4.0700951" y2="14.67494023"/>
        <line x1="4.0700951" y1="14.67494023" x2="4.12199976" y2="14.28680607"/>
        <line x1="4.12199976" y1="14.28680607" x2="4.1876697" y2="13.90061756"/>
        <line x1="4.1876697" y1="13.90061756" x2="4.26694795" y2="13.51689589"/>
        <line x1="4.26694795" y1="13.51689589" x2="4.35967759" y2="13.13616225"/>
        <line x1="4.35967759" y1="13.13616225" x2="4.46570164" y2="12.75893783"/>
        <line x1="4.46570164" y1="12.75893783" x2="4.58486317" y2="12.38574381"/>
        <line x1="4.58486317" y1="12.38574381" x2="4.71700523" y2="12.01710139"/>
        <line x1="4.71700523" y1="12.01710139" x2="4.86197086" y2="11.65353176"/>
        <line x1="4.86197086" y1="11.65353176" x2="5.01960311" y2="11.29555609"/>
        <line x1="5.01960311" y1="11.29555609" x2="5.18974505" y2="10.94369559"/>
        <line x1="5.18974505" y1="10.94369559" x2="5.37223971" y2="10.59847144"/>
        <line x1="5.37223971" y1="10.59847144" x2="5.56693014" y2="10.26040483"/>
        <line x1="5.56693014" y1="10.26040483" x2="5.77365941" y2="9.93001695"/>
        <line x1="5.77365941" y1="9.93001695" x2="5.99227056" y2="9.60782899"/>
        <line x1="5.99227056" y1="9.60782899" x2="6.22260663" y2="9.29436213"/>
        <line x1="6.22260663" y1="9.29436213" x2="6.46451069" y2="8.99013757"/>
        <line x1="6.46451069" y1="8.99013757" x2="6.71782578" y2="8.6956765"/>
        <line x1="6.71782578" y1="8.6956765" x2="6.98239494" y2="8.4115001"/>
        <line x1="6.98239494" y1="8.4115001" x2="7.25806124" y2="8.13812956"/>
        <line x1="7.25806124" y1="8.13812956" x2="7.54466773" y2="7.87608607"/>
        <line x1="7.54466773" y1="7.87608607" x2="7.84205744" y2="7.62589083"/>
        <line x1="7.84205744" y1="7.62589083" x2="8.15007344" y2="7.38806501"/>
        <line x1="8.15007344" y1="7.38806501" x2="8.46855878" y2="7.16312982"/>
        <line x1="8.46855878" y1="7.16312982" x2="8.7973565" y2="6.95160643"/>
        <line x1="8.7973565" y1="6.95160643" x2="9.13630965" y2="6.75401603"/>
        <line x1="9.13630965" y1="6.75401603" x2="9.48526129" y2="6.57087983"/>
        <line x1="9.48526129" y1="6.57087983" x2="9.84405447" y2="6.40271899"/>
        <line x1="9.84405447" y1="6.40271899" x2="10.21253223" y2="6.25005473"/>
        <line x1="10.21253223" y1="6.25005473" x2="10.61778653" y2="6.08403802"/>
        <line x1="10.61778653" y1="6.08403802" x2="11.02527252" y2="5.9243591"/>
        <line x1="11.02527252" y1="5.9243591" x2="11.43490104" y2="5.77085569"/>
        <line x1="11.43490104" y1="5.77085569" x2="11.84658288" y2="5.62336553"/>
        <line x1="11.84658288" y1="5.62336553" x2="12.26022886" y2="5.48172635"/>
        <line x1="12.26022886" y1="5.48172635" x2="12.67574978" y2="5.34577589"/>
        <line x1="12.67574978" y1="5.34577589" x2="13.09305647" y2="5.21535189"/>
        <line x1="13.09305647" y1="5.21535189" x2="13.51205972" y2="5.09029207"/>
        <line x1="13.51205972" y1="5.09029207" x2="13.93267036" y2="4.97043418"/>
        <line x1="13.93267036" y1="4.97043418" x2="14.35479918" y2="4.85561596"/>
        <line x1="14.35479918" y1="4.85561596" x2="14.77835701" y2="4.74567513"/>
        <line x1="14.77835701" y1="4.74567513" x2="15.20325465" y2="4.64044943"/>
        <line x1="15.20325465" y1="4.64044943" x2="15.62940291" y2="4.53977661"/>
        <line x1="15.62940291" y1="4.53977661" x2="16.05671261" y2="4.44349438"/>
        <line x1="16.05671261" y1="4.44349438" x2="16.48509454" y2="4.3514405"/>
        <line x1="16.48509454" y1="4.3514405" x2="16.91445954" y2="4.26345269"/>
        <line x1="16.91445954" y1="4.26345269" x2="17.3447184" y2="4.17936869"/>
        <line x1="17.3447184" y1="4.17936869" x2="17.77578193" y2="4.09902624"/>
        <line x1="17.77578193" y1="4.09902624" x2="18.20756095" y2="4.02226307"/>
        <line x1="18.20756095" y1="4.02226307" x2="18.63996627" y2="3.94891691"/>
        <line x1="18.63996627" y1="3.94891691" x2="19.0729087" y2="3.87882551"/>
        <line x1="19.0729087" y1="3.87882551" x2="19.50629904" y2="3.8118266"/>
        <line x1="19.50629904" y1="3.8118266" x2="19.94004812" y2="3.74775791"/>
        <line x1="19.94004812" y1="3.74775791" x2="20.37406673" y2="3.68645718"/>
        <line x1="20.37406673" y1="3.68645718" x2="20.80826569" y2="3.62776215"/>
        <line x1="20.80826569" y1="3.62776215" x2="21.24255582" y2="3.57151054"/>
        <line x1="21.24255582" y1="3.57151054" x2="21.67684792" y2="3.5175401"/>
        <line x1="21.67684792" y1="3.5175401" x2="22.11105279" y2="3.46568857"/>
        <line x1="22.11105279" y1="3.46568857" x2="22.54508127" y2="3.41579367"/>
        <line x1="22.54508127" y1="3.41579367" x2="22.97884414" y2="3.36769314"/>
        <line x1="22.97884414" y1="3.36769314" x2="23.41225223" y2="3.32122473"/>
        <line x1="23.41225223" y1="3.32122473" x2="24.24498701" y2="3.24598529"/>
        <line x1="24.24498701" y1="3.24598529" x2="25.0792491" y2="3.18086998"/>
        <line x1="25.0792491" y1="3.18086998" x2="25.9148251" y2="3.12603332"/>
        <line x1="25.9148251" y1="3.12603332" x2="26.75150165" y2="3.08162982"/>
        <line x1="26.75150165" y1="3.08162982" x2="27.58906535" y2="3.04781401"/>
        <line x1="27.58906535" y1="3.04781401" x2="28.42730282" y2="3.02474039"/>
        <line x1="28.42730282" y1="3.02474039" x2="29.26600069" y2="3.01256348"/>
        <line x1="29.26600069" y1="3.01256348" x2="30.10494556" y2="3.01143781"/>
        <line x1="30.10494556" y1="3.01143781" x2="30.94392407" y2="3.02151788"/>
        <line x1="30.94392407" y1="3.02151788" x2="31.78272281" y2="3.04295822"/>
        <line x1="31.78272281" y1="3.04295822" x2="32.62112842" y2="3.07591333"/>
        <line x1="32.62112842" y1="3.07591333" x2="33.4589275" y2="3.12053775"/>
        <line x1="33.4589275" y1="3.12053775" x2="34.29590668" y2="3.17698597"/>
        <line x1="34.29590668" y1="3.17698597" x2="35.13185258" y2="3.24541252"/>
        <line x1="35.13185258" y1="3.24541252" x2="35.9665518" y2="3.32597192"/>
        <line x1="35.9665518" y1="3.32597192" x2="36.79979098" y2="3.41881868"/>
        <line x1="36.79979098" y1="3.41881868" x2="37.63135672" y2="3.52410732"/>
        <line x1="37.63135672" y1="3.52410732" x2="38.46103564" y2="3.64199236"/>
        <line x1="38.46103564" y1="3.64199236" x2="39.28861436" y2="3.7726283"/>
        <line x1="39.28861436" y1="3.7726283" x2="40.1138795" y2="3.91616968"/>
        <line x1="40.1138795" y1="3.91616968" x2="40.93661768" y2="4.07277099"/>
        <line x1="40.93661768" y1="4.07277099" x2="41.75661551" y2="4.24258677"/>
        <line x1="41.75661551" y1="4.24258677" x2="42.57365961" y2="4.42577153"/>
        <line x1="42.57365961" y1="4.42577153" x2="43.3875366" y2="4.62247978"/>
        <line x1="43.3875366" y1="4.62247978" x2="44.19803309" y2="4.83286603"/>
        <line x1="44.19803309" y1="4.83286603" x2="45.00493571" y2="5.05708482"/>
        <line x1="45.00493571" y1="5.05708482" x2="45.80803106" y2="5.29529065"/>
        <line x1="45.80803106" y1="5.29529065" x2="46.60710577" y2="5.54763804"/>
        <line x1="46.60710577" y1="5.54763804" x2="47.40194646" y2="5.8142815"/>
        <line x1="47.40194646" y1="5.8142815" x2="48.19233974" y2="6.09537556"/>
        <line x1="48.19233974" y1="6.09537556" x2="48.97807223" y2="6.39107473"/>
        <line x1="48.97807223" y1="6.39107473" x2="49.26866774" y2="6.52051791"/>
        <line x1="49.26866774" y1="6.52051791" x2="49.56309923" y2="6.65117536"/>
        <line x1="49.56309923" y1="6.65117536" x2="49.86063484" y2="6.78344019"/>
        <line x1="49.86063484" y1="6.78344019" x2="50.1605427" y2="6.91770551"/>
        <line x1="50.1605427" y1="6.91770551" x2="50.46209092" y2="7.05436445"/>
        <line x1="50.46209092" y1="7.05436445" x2="50.76454764" y2="7.19381011"/>
        <line x1="50.76454764" y1="7.19381011" x2="51.06718097" y2="7.33643562"/>
        <line x1="51.06718097" y1="7.33643562" x2="51.36925905" y2="7.48263409"/>
        <line x1="51.36925905" y1="7.48263409" x2="51.67004999" y2="7.63279863"/>
        <line x1="51.67004999" y1="7.63279863" x2="51.96882194" y2="7.78732238"/>
        <line x1="51.96882194" y1="7.78732238" x2="52.264843" y2="7.94659843"/>
        <line x1="52.264843" y1="7.94659843" x2="52.5573813" y2="8.11101991"/>
        <line x1="52.5573813" y1="8.11101991" x2="52.84570498" y2="8.28097994"/>
        <line x1="52.84570498" y1="8.28097994" x2="53.12908215" y2="8.45687163"/>
        <line x1="53.12908215" y1="8.45687163" x2="53.40678094" y2="8.6390881"/>
        <line x1="53.40678094" y1="8.6390881" x2="53.67806948" y2="8.82802246"/>
        <line x1="53.67806948" y1="8.82802246" x2="53.94221589" y2="9.02406784"/>
        <line x1="53.94221589" y1="9.02406784" x2="54.19848829" y2="9.22761734"/>
        <line x1="54.19848829" y1="9.22761734" x2="54.44615482" y2="9.43906409"/>
        <line x1="54.44615482" y1="9.43906409" x2="54.68448359" y2="9.65880121"/>
        <line x1="54.68448359" y1="9.65880121" x2="54.91274274" y2="9.8872218"/>
        <line x1="54.91274274" y1="9.8872218" x2="55.13020038" y2="10.12471898"/>
        <line x1="55.13020038" y1="10.12471898" x2="55.33612465" y2="10.37168588"/>
        <line x1="55.33612465" y1="10.37168588" x2="55.52978366" y2="10.62851561"/>
        <line x1="55.52978366" y1="10.62851561" x2="55.71044555" y2="10.89560129"/>
        <line x1="55.71044555" y1="10.89560129" x2="55.87737844" y2="11.17333602"/>
        <line x1="55.87737844" y1="11.17333602" x2="56.02985045" y2="11.46211294"/>
        <line x1="56.02985045" y1="11.46211294" x2="56.16712971" y2="11.76232515"/>
        <line x1="56.16712971" y1="11.76232515" x2="56.28848434" y2="12.07436577"/>
        <line x1="56.28848434" y1="12.07436577" x2="56.39318247" y2="12.39862793"/>
        <line x1="56.39318247" y1="12.39862793" x2="56.48049223" y2="12.73550473"/>
        <line x1="56.48049223" y1="12.73550473" x2="56.53694121" y2="13.3267117"/>
        <line x1="56.53694121" y1="13.3267117" x2="56.5750486" y2="13.91674929"/>
        <line x1="56.5750486" y1="13.91674929" x2="56.59545571" y2="14.50558249"/>
        <line x1="56.59545571" y1="14.50558249" x2="56.59880386" y2="15.0931763"/>
        <line x1="56.59880386" y1="15.0931763" x2="56.58573439" y2="15.67949572"/>
        <line x1="56.58573439" y1="15.67949572" x2="56.55688859" y2="16.26450573"/>
        <line x1="56.55688859" y1="16.26450573" x2="56.51290781" y2="16.84817134"/>
        <line x1="56.51290781" y1="16.84817134" x2="56.45443335" y2="17.43045754"/>
        <line x1="56.45443335" y1="17.43045754" x2="56.38210653" y2="18.01132933"/>
        <line x1="56.38210653" y1="18.01132933" x2="56.29656868" y2="18.59075171"/>
        <line x1="56.29656868" y1="18.59075171" x2="56.19846111" y2="19.16868966"/>
        <line x1="56.19846111" y1="19.16868966" x2="56.08842515" y2="19.74510819"/>
        <line x1="56.08842515" y1="19.74510819" x2="55.96710212" y2="20.3199723"/>
        <line x1="55.96710212" y1="20.3199723" x2="55.83513332" y2="20.89324697"/>
        <line x1="55.83513332" y1="20.89324697" x2="55.6931601" y2="21.46489721"/>
        <line x1="55.6931601" y1="21.46489721" x2="55.54182375" y2="22.03488801"/>
        <line x1="55.54182375" y1="22.03488801" x2="55.38176562" y2="22.60318436"/>
        <line x1="55.38176562" y1="22.60318436" x2="55.213627" y2="23.16975127"/>
        <line x1="55.213627" y1="23.16975127" x2="55.03804923" y2="23.73455374"/>
        <line x1="55.03804923" y1="23.73455374" x2="54.85567362" y2="24.29755674"/>
        <line x1="54.85567362" y1="24.29755674" x2="54.6671415" y2="24.85872529"/>
        <line x1="54.6671415" y1="24.85872529" x2="54.47309418" y2="25.41802437"/>
        <line x1="54.47309418" y1="25.41802437" x2="54.27417298" y2="25.975419"/>
        <line x1="54.27417298" y1="25.975419" x2="54.07101923" y2="26.53087415"/>
        <line x1="54.07101923" y1="26.53087415" x2="53.86427424" y2="27.08435482"/>
        <line x1="53.86427424" y1="27.08435482" x2="53.65457933" y2="27.63582602"/>
        <line x1="53.65457933" y1="27.63582602" x2="53.44257583" y2="28.18525274"/>
        <line x1="53.44257583" y1="28.18525274" x2="53.22890505" y2="28.73259997"/>
        <line x1="53.22890505" y1="28.73259997" x2="53.01420831" y2="29.27783272"/>
        <line x1="53.01420831" y1="29.27783272" x2="52.79912693" y2="29.82091597"/>
        <line x1="52.79912693" y1="29.82091597" x2="52.58430223" y2="30.36181473"/>
        <line x1="52.58430223" y1="30.36181473" x2="52.37699738" y2="30.81952635"/>
        <line x1="52.37699738" y1="30.81952635" x2="52.15958238" y2="31.27484712"/>
        <line x1="52.15958238" y1="31.27484712" x2="51.93207888" y2="31.7271936"/>
        <line x1="51.93207888" y1="31.7271936" x2="51.69450848" y2="32.17598237"/>
        <line x1="51.69450848" y1="32.17598237" x2="51.44689282" y2="32.62063"/>
        <line x1="51.44689282" y1="32.62063" x2="51.18925351" y2="33.06055305"/>
        <line x1="51.18925351" y1="33.06055305" x2="50.92161218" y2="33.4951681"/>
        <line x1="50.92161218" y1="33.4951681" x2="50.64399045" y2="33.92389172"/>
        <line x1="50.64399045" y1="33.92389172" x2="50.35640994" y2="34.34614048"/>
        <line x1="50.35640994" y1="34.34614048" x2="50.05889227" y2="34.76133095"/>
        <line x1="50.05889227" y1="34.76133095" x2="49.75145907" y2="35.16887971"/>
        <line x1="49.75145907" y1="35.16887971" x2="49.43413197" y2="35.56820333"/>
        <line x1="49.43413197" y1="35.56820333" x2="49.10693257" y2="35.95871837"/>
        <line x1="49.10693257" y1="35.95871837" x2="48.76988252" y2="36.33984141"/>
        <line x1="48.76988252" y1="36.33984141" x2="48.42300342" y2="36.71098903"/>
        <line x1="48.42300342" y1="36.71098903" x2="48.0663169" y2="37.07157778"/>
        <line x1="48.0663169" y1="37.07157778" x2="47.69984458" y2="37.42102425"/>
        <line x1="47.69984458" y1="37.42102425" x2="47.32360809" y2="37.758745"/>
        <line x1="47.32360809" y1="37.758745" x2="46.93762906" y2="38.08415661"/>
        <line x1="46.93762906" y1="38.08415661" x2="46.54192909" y2="38.39667565"/>
        <line x1="46.54192909" y1="38.39667565" x2="46.13652981" y2="38.69571869"/>
        <line x1="46.13652981" y1="38.69571869" x2="45.72145286" y2="38.98070229"/>
        <line x1="45.72145286" y1="38.98070229" x2="45.29671984" y2="39.25104304"/>
        <line x1="45.29671984" y1="39.25104304" x2="44.86235238" y2="39.50615751"/>
        <line x1="44.86235238" y1="39.50615751" x2="44.41837211" y2="39.74546225"/>
        <line x1="44.41837211" y1="39.74546225" x2="43.96480065" y2="39.96837386"/>
        <line x1="43.96480065" y1="39.96837386" x2="43.50165961" y2="40.17430889"/>
        <line x1="43.50165961" y1="40.17430889" x2="43.02897063" y2="40.36268392"/>
        <line x1="43.02897063" y1="40.36268392" x2="42.54675533" y2="40.53291552"/>
        <line x1="42.54675533" y1="40.53291552" x2="42.05503532" y2="40.68442027"/>
        <line x1="42.05503532" y1="40.68442027" x2="41.55383223" y2="40.81661473"/>
        <line x1="41.55383223" y1="40.81661473" x2="40.75823163" y2="41.05972607"/>
        <line x1="40.75823163" y1="41.05972607" x2="39.95792138" y2="41.28919514"/>
        <line x1="39.95792138" y1="41.28919514" x2="39.15320429" y2="41.50490125"/>
        <line x1="39.15320429" y1="41.50490125" x2="38.34438318" y2="41.70672374"/>
        <line x1="38.34438318" y1="41.70672374" x2="37.53176087" y2="41.89454193"/>
        <line x1="37.53176087" y1="41.89454193" x2="36.71564017" y2="42.06823514"/>
        <line x1="36.71564017" y1="42.06823514" x2="35.8963239" y2="42.2276827"/>
        <line x1="35.8963239" y1="42.2276827" x2="35.07411487" y2="42.37276394"/>
        <line x1="35.07411487" y1="42.37276394" x2="34.2493159" y2="42.50335817"/>
        <line x1="34.2493159" y1="42.50335817" x2="33.42222981" y2="42.61934473"/>
        <line x1="33.42222981" y1="42.61934473" x2="32.5931594" y2="42.72060294"/>
        <line x1="32.5931594" y1="42.72060294" x2="31.7624075" y2="42.80701213"/>
        <line x1="31.7624075" y1="42.80701213" x2="30.93027692" y2="42.87845162"/>
        <line x1="30.93027692" y1="42.87845162" x2="30.09707048" y2="42.93480073"/>
        <line x1="30.09707048" y1="42.93480073" x2="29.26309099" y2="42.9759388"/>
        <line x1="29.26309099" y1="42.9759388" x2="28.42864127" y2="43.00174514"/>
        <line x1="28.42864127" y1="43.00174514" x2="27.59402413" y2="43.01209908"/>
        <line x1="27.59402413" y1="43.01209908" x2="26.75954239" y2="43.00687996"/>
        <line x1="26.75954239" y1="43.00687996" x2="25.92549887" y2="42.98596708"/>
        <line x1="25.92549887" y1="42.98596708" x2="25.09219638" y2="42.94923979"/>
        <line x1="25.09219638" y1="42.94923979" x2="24.25993773" y2="42.89657739"/>
        <line x1="24.25993773" y1="42.89657739" x2="23.42902574" y2="42.82785923"/>
        <line x1="23.42902574" y1="42.82785923" x2="22.59976324" y2="42.74296462"/>
        <line x1="22.59976324" y1="42.74296462" x2="21.77245302" y2="42.64177289"/>
        <line x1="21.77245302" y1="42.64177289" x2="20.94739792" y2="42.52416336"/>
        <line x1="20.94739792" y1="42.52416336" x2="20.12490073" y2="42.39001537"/>
        <line x1="20.12490073" y1="42.39001537" x2="19.30526429" y2="42.23920823"/>
        <line x1="19.30526429" y1="42.23920823" x2="18.4887914" y2="42.07162127"/>
        <line x1="18.4887914" y1="42.07162127" x2="17.67578489" y2="41.88713381"/>
        <line x1="17.67578489" y1="41.88713381" x2="16.86654756" y2="41.68562519"/>
        <line x1="16.86654756" y1="41.68562519" x2="16.06138223" y2="41.46697473"/>
        <line x1="16.06138223" y1="41.46697473" x2="15.69352318" y2="41.35452917"/>
        <line x1="15.69352318" y1="41.35452917" x2="15.32856968" y2="41.23260224"/>
        <line x1="15.32856968" y1="41.23260224" x2="14.96681269" y2="41.10128402"/>
        <line x1="14.96681269" y1="41.10128402" x2="14.60854317" y2="40.96066461"/>
        <line x1="14.60854317" y1="40.96066461" x2="14.25405209" y2="40.8108341"/>
        <line x1="14.25405209" y1="40.8108341" x2="13.9036304" y2="40.65188258"/>
        <line x1="13.9036304" y1="40.65188258" x2="13.55756906" y2="40.48390015"/>
        <line x1="13.55756906" y1="40.48390015" x2="13.21615904" y2="40.30697688"/>
        <line x1="13.21615904" y1="40.30697688" x2="12.8796913" y2="40.12120289"/>
        <line x1="12.8796913" y1="40.12120289" x2="12.5484568" y2="39.92666825"/>
        <line x1="12.5484568" y1="39.92666825" x2="12.22274649" y2="39.72346306"/>
        <line x1="12.22274649" y1="39.72346306" x2="11.90285135" y2="39.51167741"/>
        <line x1="11.90285135" y1="39.51167741" x2="11.58906233" y2="39.2914014"/>
        <line x1="11.58906233" y1="39.2914014" x2="11.28167039" y2="39.0627251"/>
        <line x1="11.28167039" y1="39.0627251" x2="10.98096649" y2="38.82573863"/>
        <line x1="10.98096649" y1="38.82573863" x2="10.6872416" y2="38.58053206"/>
        <line x1="10.6872416" y1="38.58053206" x2="10.40078667" y2="38.32719549"/>
        <line x1="10.40078667" y1="38.32719549" x2="10.12189267" y2="38.06581901"/>
        <line x1="10.12189267" y1="38.06581901" x2="9.85085056" y2="37.79649271"/>
        <line x1="9.85085056" y1="37.79649271" x2="9.58795129" y2="37.51930669"/>
        <line x1="9.58795129" y1="37.51930669" x2="9.33348584" y2="37.23435103"/>
        <line x1="9.33348584" y1="37.23435103" x2="9.08774515" y2="36.94171583"/>
        <line x1="9.08774515" y1="36.94171583" x2="8.8510202" y2="36.64149118"/>
        <line x1="8.8510202" y1="36.64149118" x2="8.62360194" y2="36.33376717"/>
        <line x1="8.62360194" y1="36.33376717" x2="8.40578133" y2="36.01863389"/>
        <line x1="8.40578133" y1="36.01863389" x2="8.19784934" y2="35.69618144"/>
        <line x1="8.19784934" y1="35.69618144" x2="8.00009692" y2="35.3664999"/>
        <line x1="8.00009692" y1="35.3664999" x2="7.81281504" y2="35.02967937"/>
        <line x1="7.81281504" y1="35.02967937" x2="7.63629466" y2="34.68580993"/>
        <line x1="7.63629466" y1="34.68580993" x2="7.47082674" y2="34.33498169"/>
        <line x1="7.47082674" y1="34.33498169" x2="7.31670223" y2="33.97728473"/>
        <line x1="7.31670223" y1="33.97728473" x2="7.05600688" y2="33.43281146"/>
        <line x1="7.05600688" y1="33.43281146" x2="6.80736445" y2="32.88386892"/>
        <line x1="6.80736445" y1="32.88386892" x2="6.57058779" y2="32.33064073"/>
        <line x1="6.57058779" y1="32.33064073" x2="6.34548976" y2="31.77331051"/>
        <line x1="6.34548976" y1="31.77331051" x2="6.13188322" y2="31.21206191"/>
        <line x1="6.13188322" y1="31.21206191" x2="5.92958102" y2="30.64707853"/>
        <line x1="5.92958102" y1="30.64707853" x2="5.73839602" y2="30.07854402"/>
        <line x1="5.73839602" y1="30.07854402" x2="5.55814108" y2="29.50664199"/>
        <line x1="5.55814108" y1="29.50664199" x2="5.38862905" y2="28.93155608"/>
        <line x1="5.38862905" y1="28.93155608" x2="5.22967279" y2="28.35346992"/>
        <line x1="5.22967279" y1="28.35346992" x2="5.08108516" y2="27.77256712"/>
        <line x1="5.08108516" y1="27.77256712" x2="4.942679" y2="27.18903131"/>
        <line x1="4.942679" y1="27.18903131" x2="4.81426718" y2="26.60304614"/>
        <line x1="4.81426718" y1="26.60304614" x2="4.69566256" y2="26.01479521"/>
        <line x1="4.69566256" y1="26.01479521" x2="4.58667798" y2="25.42446216"/>
        <line x1="4.58667798" y1="25.42446216" x2="4.48712632" y2="24.83223062"/>
        <line x1="4.48712632" y1="24.83223062" x2="4.39682041" y2="24.23828421"/>
        <line x1="4.39682041" y1="24.23828421" x2="4.31557312" y2="23.64280656"/>
        <line x1="4.31557312" y1="23.64280656" x2="4.24319731" y2="23.0459813"/>
        <line x1="4.24319731" y1="23.0459813" x2="4.17950582" y2="22.44799205"/>
        <line x1="4.17950582" y1="22.44799205" x2="4.12431153" y2="21.84902245"/>
        <line x1="4.12431153" y1="21.84902245" x2="4.07742728" y2="21.24925611"/>
        <line x1="4.07742728" y1="21.24925611" x2="4.03866592" y2="20.64887668"/>
        <line x1="4.03866592" y1="20.64887668" x2="4.00784033" y2="20.04806776"/>
        <line x1="4.00784033" y1="20.04806776" x2="3.98476334" y2="19.447013"/>
        <line x1="3.98476334" y1="19.447013" x2="3.96924783" y2="18.84589601"/>
        <line x1="3.96924783" y1="18.84589601" x2="3.96110663" y2="18.24490044"/>
        <line x1="3.96110663" y1="18.24490044" x2="3.96015262" y2="17.64420989"/>
        <line x1="3.96015262" y1="17.64420989" x2="3.96619865" y2="17.04400801"/>
        <line x1="3.96619865" y1="17.04400801" x2="3.97905757" y2="16.44447841"/>
        <line x1="3.97905757" y1="16.44447841" x2="3.99854223" y2="15.84580473"/>
        <line x1="3.99854223" y1="15.84580473" x2="3.99854223" y2="15.84580473"/>
        <line x1="0.04414805" y1="14.75952195" x2="0.05526528" y2="14.31005138"/>
        <line x1="0.05526528" y1="14.31005138" x2="0.08275404" y2="13.8610202"/>
        <line x1="0.08275404" y1="13.8610202" x2="0.12643385" y2="13.41302779"/>
        <line x1="0.12643385" y1="13.41302779" x2="0.18612421" y2="12.9666735"/>
        <line x1="0.18612421" y1="12.9666735" x2="0.26164464" y2="12.52255672"/>
        <line x1="0.26164464" y1="12.52255672" x2="0.35281463" y2="12.0812768"/>
        <line x1="0.35281463" y1="12.0812768" x2="0.45945371" y2="11.64343311"/>
        <line x1="0.45945371" y1="11.64343311" x2="0.58138137" y2="11.20962502"/>
        <line x1="0.58138137" y1="11.20962502" x2="0.71841713" y2="10.7804519"/>
        <line x1="0.71841713" y1="10.7804519" x2="0.87038049" y2="10.35651312"/>
        <line x1="0.87038049" y1="10.35651312" x2="1.03709097" y2="9.93840804"/>
        <line x1="1.03709097" y1="9.93840804" x2="1.21836806" y2="9.52673602"/>
        <line x1="1.21836806" y1="9.52673602" x2="1.41403129" y2="9.12209645"/>
        <line x1="1.41403129" y1="9.12209645" x2="1.62390015" y2="8.72508868"/>
        <line x1="1.62390015" y1="8.72508868" x2="1.84779415" y2="8.33631207"/>
        <line x1="1.84779415" y1="8.33631207" x2="2.08553281" y2="7.95636601"/>
        <line x1="2.08553281" y1="7.95636601" x2="2.33693563" y2="7.58584985"/>
        <line x1="2.33693563" y1="7.58584985" x2="2.60182211" y2="7.22536297"/>
        <line x1="2.60182211" y1="7.22536297" x2="2.88001178" y2="6.87550473"/>
        <line x1="2.88001178" y1="6.87550473" x2="3.17132413" y2="6.53687449"/>
        <line x1="3.17132413" y1="6.53687449" x2="3.47557867" y2="6.21007163"/>
        <line x1="3.47557867" y1="6.21007163" x2="3.79259492" y2="5.89569551"/>
        <line x1="3.79259492" y1="5.89569551" x2="4.12219237" y2="5.5943455"/>
        <line x1="4.12219237" y1="5.5943455" x2="4.46419054" y2="5.30662097"/>
        <line x1="4.46419054" y1="5.30662097" x2="4.81840894" y2="5.03312128"/>
        <line x1="4.81840894" y1="5.03312128" x2="5.18466708" y2="4.77444581"/>
        <line x1="5.18466708" y1="4.77444581" x2="5.56278446" y2="4.53119391"/>
        <line x1="5.56278446" y1="4.53119391" x2="5.95258058" y2="4.30396496"/>
        <line x1="5.95258058" y1="4.30396496" x2="6.35387497" y2="4.09335832"/>
        <line x1="6.35387497" y1="4.09335832" x2="6.76648712" y2="3.89997336"/>
        <line x1="6.76648712" y1="3.89997336" x2="7.19023655" y2="3.72440945"/>
        <line x1="7.19023655" y1="3.72440945" x2="7.65627899" y2="3.53349025"/>
        <line x1="7.65627899" y1="3.53349025" x2="8.12488789" y2="3.34985949"/>
        <line x1="8.12488789" y1="3.34985949" x2="8.59596068" y2="3.17333056"/>
        <line x1="8.59596068" y1="3.17333056" x2="9.06939479" y2="3.00371688"/>
        <line x1="9.06939479" y1="3.00371688" x2="9.54508767" y2="2.84083182"/>
        <line x1="9.54508767" y1="2.84083182" x2="10.02293674" y2="2.68448879"/>
        <line x1="10.02293674" y1="2.68448879" x2="10.50283942" y2="2.53450119"/>
        <line x1="10.50283942" y1="2.53450119" x2="10.98469317" y2="2.3906824"/>
        <line x1="10.98469317" y1="2.3906824" x2="11.4683954" y2="2.25284583"/>
        <line x1="11.4683954" y1="2.25284583" x2="11.95384355" y2="2.12080487"/>
        <line x1="11.95384355" y1="2.12080487" x2="12.44093505" y2="1.99437292"/>
        <line x1="12.44093505" y1="1.99437292" x2="12.92956733" y2="1.87336337"/>
        <line x1="12.92956733" y1="1.87336337" x2="13.41963783" y2="1.75758962"/>
        <line x1="13.41963783" y1="1.75758962" x2="13.91104398" y2="1.64686506"/>
        <line x1="13.91104398" y1="1.64686506" x2="14.40368321" y2="1.54100309"/>
        <line x1="14.40368321" y1="1.54100309" x2="14.89745295" y2="1.43981711"/>
        <line x1="14.89745295" y1="1.43981711" x2="15.39225064" y2="1.34312051"/>
        <line x1="15.39225064" y1="1.34312051" x2="15.88797371" y2="1.25072669"/>
        <line x1="15.88797371" y1="1.25072669" x2="16.38451958" y2="1.16244904"/>
        <line x1="16.38451958" y1="1.16244904" x2="16.8817857" y2="1.07810097"/>
        <line x1="16.8817857" y1="1.07810097" x2="17.37966949" y2="0.99749586"/>
        <line x1="17.37966949" y1="0.99749586" x2="17.87806838" y2="0.92044711"/>
        <line x1="17.87806838" y1="0.92044711" x2="18.37687982" y2="0.84676811"/>
        <line x1="18.37687982" y1="0.84676811" x2="18.87600122" y2="0.77627228"/>
        <line x1="18.87600122" y1="0.77627228" x2="19.37533003" y2="0.70877299"/>
        <line x1="19.37533003" y1="0.70877299" x2="19.87476368" y2="0.64408364"/>
        <line x1="19.87476368" y1="0.64408364" x2="20.37419959" y2="0.58201764"/>
        <line x1="20.37419959" y1="0.58201764" x2="20.8735352" y2="0.52238837"/>
        <line x1="20.8735352" y1="0.52238837" x2="21.37266794" y2="0.46500924"/>
        <line x1="21.37266794" y1="0.46500924" x2="21.87149525" y2="0.40969363"/>
        <line x1="21.87149525" y1="0.40969363" x2="22.36991455" y2="0.35625495"/>
        <line x1="55.91777205" y1="31.45293345" x2="55.67937147" y2="31.97930182"/>
        <line x1="55.67937147" y1="31.97930182" x2="55.42934423" y2="32.50292071"/>
        <line x1="55.42934423" y1="32.50292071" x2="55.1677152" y2="33.02311916"/>
        <line x1="55.1677152" y1="33.02311916" x2="54.89450924" y2="33.53922625"/>
        <line x1="54.89450924" y1="33.53922625" x2="54.60975123" y2="34.05057101"/>
        <line x1="54.60975123" y1="34.05057101" x2="54.31346602" y2="34.55648252"/>
        <line x1="54.31346602" y1="34.55648252" x2="54.00567849" y2="35.05628983"/>
        <line x1="54.00567849" y1="35.05628983" x2="53.6864135" y2="35.54932199"/>
        <line x1="53.6864135" y1="35.54932199" x2="53.35569591" y2="36.03490807"/>
        <line x1="53.35569591" y1="36.03490807" x2="53.0135506" y2="36.51237711"/>
        <line x1="53.0135506" y1="36.51237711" x2="52.66000242" y2="36.98105819"/>
        <line x1="52.66000242" y1="36.98105819" x2="52.29507625" y2="37.44028035"/>
        <line x1="52.29507625" y1="37.44028035" x2="51.91879694" y2="37.88937265"/>
        <line x1="51.91879694" y1="37.88937265" x2="51.53118938" y2="38.32766414"/>
        <line x1="51.53118938" y1="38.32766414" x2="51.13227841" y2="38.7544839"/>
        <line x1="51.13227841" y1="38.7544839" x2="50.72208892" y2="39.16916097"/>
        <line x1="50.72208892" y1="39.16916097" x2="50.30064576" y2="39.57102441"/>
        <line x1="50.30064576" y1="39.57102441" x2="49.86797379" y2="39.95940327"/>
        <line x1="49.86797379" y1="39.95940327" x2="49.4240979" y2="40.33362662"/>
        <line x1="49.4240979" y1="40.33362662" x2="48.96904294" y2="40.69302352"/>
        <line x1="48.96904294" y1="40.69302352" x2="48.50283377" y2="41.03692301"/>
        <line x1="48.50283377" y1="41.03692301" x2="48.02549527" y2="41.36465416"/>
        <line x1="48.02549527" y1="41.36465416" x2="47.5370523" y2="41.67554602"/>
        <line x1="47.5370523" y1="41.67554602" x2="47.03752973" y2="41.96892765"/>
        <line x1="47.03752973" y1="41.96892765" x2="46.52695241" y2="42.24412811"/>
        <line x1="46.52695241" y1="42.24412811" x2="46.00534523" y2="42.50047645"/>
        <line x1="46.00534523" y1="42.50047645" x2="45.47273304" y2="42.73730174"/>
        <line x1="45.47273304" y1="42.73730174" x2="44.92914071" y2="42.95393303"/>
        <line x1="44.92914071" y1="42.95393303" x2="44.37459311" y2="43.14969937"/>
        <line x1="44.37459311" y1="43.14969937" x2="43.8091151" y2="43.32392983"/>
        <line x1="43.8091151" y1="43.32392983" x2="43.23273155" y2="43.47595345"/>
        <line x1="43.23273155" y1="43.47595345" x2="42.31779086" y2="43.7555315"/>
        <line x1="42.31779086" y1="43.7555315" x2="41.39743407" y2="44.01942093"/>
        <line x1="41.39743407" y1="44.01942093" x2="40.47200942" y2="44.26748296"/>
        <line x1="40.47200942" y1="44.26748296" x2="39.54186514" y2="44.49957882"/>
        <line x1="39.54186514" y1="44.49957882" x2="38.60734949" y2="44.71556974"/>
        <line x1="38.60734949" y1="44.71556974" x2="37.66881068" y2="44.91531693"/>
        <line x1="37.66881068" y1="44.91531693" x2="36.72659697" y2="45.09868162"/>
        <line x1="36.72659697" y1="45.09868162" x2="35.78105659" y2="45.26552504"/>
        <line x1="35.78105659" y1="45.26552504" x2="34.83253777" y2="45.41570841"/>
        <line x1="34.83253777" y1="45.41570841" x2="33.88138876" y2="45.54909296"/>
        <line x1="33.88138876" y1="45.54909296" x2="32.9279578" y2="45.6655399"/>
        <line x1="32.9279578" y1="45.6655399" x2="31.97259311" y2="45.76491047"/>
        <line x1="31.97259311" y1="45.76491047" x2="31.01564295" y2="45.84706588"/>
        <line x1="31.01564295" y1="45.84706588" x2="30.05745554" y2="45.91186736"/>
        <line x1="30.05745554" y1="45.91186736" x2="29.09837912" y2="45.95917613"/>
        <line x1="29.09837912" y1="45.95917613" x2="28.13876195" y2="45.98885343"/>
        <line x1="28.13876195" y1="45.98885343" x2="27.17895224" y2="46.00076047"/>
        <line x1="27.17895224" y1="46.00076047" x2="26.21929824" y2="45.99475847"/>
        <line x1="26.21929824" y1="45.99475847" x2="25.26014819" y2="45.97070866"/>
        <line x1="25.26014819" y1="45.97070866" x2="24.30185032" y2="45.92847227"/>
        <line x1="24.30185032" y1="45.92847227" x2="23.34475287" y2="45.86791052"/>
        <line x1="23.34475287" y1="45.86791052" x2="22.38920409" y2="45.78888463"/>
        <line x1="22.38920409" y1="45.78888463" x2="21.43555221" y2="45.69125583"/>
        <line x1="21.43555221" y1="45.69125583" x2="20.48414546" y2="45.57488534"/>
        <line x1="20.48414546" y1="45.57488534" x2="19.53533209" y2="45.43963439"/>
        <line x1="19.53533209" y1="45.43963439" x2="18.58946033" y2="45.28536419"/>
        <line x1="18.58946033" y1="45.28536419" x2="17.64687842" y2="45.11193598"/>
        <line x1="17.64687842" y1="45.11193598" x2="16.7079346" y2="44.91921098"/>
        <line x1="16.7079346" y1="44.91921098" x2="15.77297711" y2="44.70705041"/>
        <line x1="15.77297711" y1="44.70705041" x2="14.84235418" y2="44.47531549"/>
        <line x1="14.84235418" y1="44.47531549" x2="13.91641405" y2="44.22386745"/>
        <line x1="13.91641405" y1="44.22386745" x2="13.49337615" y2="44.09455506"/>
        <line x1="13.49337615" y1="44.09455506" x2="13.07367962" y2="43.95433909"/>
        <line x1="13.07367962" y1="43.95433909" x2="12.65765908" y2="43.80332314"/>
        <line x1="12.65765908" y1="43.80332314" x2="12.24564914" y2="43.64161082"/>
        <line x1="12.24564914" y1="43.64161082" x2="11.83798439" y2="43.46930573"/>
        <line x1="11.83798439" y1="43.46930573" x2="11.43499944" y2="43.28651149"/>
        <line x1="11.43499944" y1="43.28651149" x2="11.03702891" y2="43.09333169"/>
        <line x1="11.03702891" y1="43.09333169" x2="10.64440739" y2="42.88986994"/>
        <line x1="10.64440739" y1="42.88986994" x2="10.25746948" y2="42.67622984"/>
        <line x1="10.25746948" y1="42.67622984" x2="9.8765498" y2="42.45251501"/>
        <line x1="9.8765498" y1="42.45251501" x2="9.50198295" y2="42.21882904"/>
        <line x1="9.50198295" y1="42.21882904" x2="9.13410354" y2="41.97527554"/>
        <line x1="9.13410354" y1="41.97527554" x2="8.77324616" y2="41.72195813"/>
        <line x1="8.77324616" y1="41.72195813" x2="8.41974543" y2="41.45898039"/>
        <line x1="8.41974543" y1="41.45898039" x2="8.07393595" y2="41.18644594"/>
        <line x1="8.07393595" y1="41.18644594" x2="7.73615232" y2="40.90445839"/>
        <line x1="7.73615232" y1="40.90445839" x2="7.40672916" y2="40.61312133"/>
        <line x1="7.40672916" y1="40.61312133" x2="7.08600105" y2="40.31253838"/>
        <line x1="7.08600105" y1="40.31253838" x2="6.77430262" y2="40.00281314"/>
        <line x1="6.77430262" y1="40.00281314" x2="6.47196847" y2="39.68404921"/>
        <line x1="6.47196847" y1="39.68404921" x2="6.1793332" y2="39.35635021"/>
        <line x1="6.1793332" y1="39.35635021" x2="5.89673141" y2="39.01981973"/>
        <line x1="5.89673141" y1="39.01981973" x2="5.62449771" y2="38.67456138"/>
        <line x1="5.62449771" y1="38.67456138" x2="5.36296671" y2="38.32067877"/>
        <line x1="5.36296671" y1="38.32067877" x2="5.11247301" y2="37.9582755"/>
        <line x1="5.11247301" y1="37.9582755" x2="4.87335122" y2="37.58745517"/>
        <line x1="4.87335122" y1="37.58745517" x2="4.64593594" y2="37.2083214"/>
        <line x1="4.64593594" y1="37.2083214" x2="4.43056178" y2="36.82097779"/>
        <line x1="4.43056178" y1="36.82097779" x2="4.22756334" y2="36.42552794"/>
        <line x1="4.22756334" y1="36.42552794" x2="4.03727523" y2="36.02207546"/>
        <line x1="4.03727523" y1="36.02207546" x2="3.86003205" y2="35.61072395"/>
        <line x1="3.86003205" y1="35.61072395" x2="3.5602324" y2="34.9845797"/>
        <line x1="3.5602324" y1="34.9845797" x2="3.2742936" y2="34.35329577"/>
        <line x1="3.2742936" y1="34.35329577" x2="3.00200044" y2="33.71708335"/>
        <line x1="3.00200044" y1="33.71708335" x2="2.74313771" y2="33.07615361"/>
        <line x1="2.74313771" y1="33.07615361" x2="2.49749019" y2="32.43071771"/>
        <line x1="2.49749019" y1="32.43071771" x2="2.26484266" y2="31.78098683"/>
        <line x1="2.26484266" y1="31.78098683" x2="2.04497991" y2="31.12717214"/>
        <line x1="2.04497991" y1="31.12717214" x2="1.83768673" y2="30.46948481"/>
        <line x1="1.83768673" y1="30.46948481" x2="1.6427479" y2="29.80813602"/>
        <line x1="1.6427479" y1="29.80813602" x2="1.4599482" y2="29.14333692"/>
        <line x1="1.4599482" y1="29.14333692" x2="1.28907241" y2="28.4752987"/>
        <line x1="1.28907241" y1="28.4752987" x2="1.12990534" y2="27.80423253"/>
        <line x1="1.12990534" y1="27.80423253" x2="0.98223175" y2="27.13034958"/>
        <line x1="0.98223175" y1="27.13034958" x2="0.84583643" y2="26.45386101"/>
        <line x1="0.84583643" y1="26.45386101" x2="0.72050417" y2="25.774978"/>
        <line x1="0.72050417" y1="25.774978" x2="0.60601975" y2="25.09391173"/>
        <line x1="0.60601975" y1="25.09391173" x2="0.50216796" y2="24.41087336"/>
        <line x1="0.50216796" y1="24.41087336" x2="0.40873357" y2="23.72607406"/>
        <line x1="0.40873357" y1="23.72607406" x2="0.32550139" y2="23.03972501"/>
        <line x1="0.32550139" y1="23.03972501" x2="0.25225618" y2="22.35203738"/>
        <line x1="0.25225618" y1="22.35203738" x2="0.18878274" y2="21.66322233"/>
        <line x1="0.18878274" y1="21.66322233" x2="0.13486585" y2="20.97349105"/>
        <line x1="0.13486585" y1="20.97349105" x2="0.0902903" y2="20.2830547"/>
        <line x1="0.0902903" y1="20.2830547" x2="0.05484086" y2="19.59212444"/>
        <line x1="0.05484086" y1="19.59212444" x2="0.02830233" y2="18.90091147"/>
        <line x1="0.02830233" y1="18.90091147" x2="0.01045948" y2="18.20962694"/>
        <line x1="0.01045948" y1="18.20962694" x2="0.00109711" y2="17.51848202"/>
        <line x1="0.00109711" y1="17.51848202" x2="0" y2="16.82768789"/>
        <line x1="0" y1="16.82768789" x2="0.00695293" y2="16.13745573"/>
        <line x1="0.00695293" y1="16.13745573" x2="0.02174069" y2="15.44799669"/>
        <line x1="0.02174069" y1="15.44799669" x2="0.04414805" y2="14.75952195"/>
        <line x1="0.04414805" y1="14.75952195" x2="0.04414805" y2="14.75952195"/>
        <line x1="80.19037691" y1="3.88658245" x2="71.56259391" y2="9.18267695"/>
        <line x1="72.05307619" y1="15.18267695" x2="76.04321241" y2="31.45293345"/>
        <path d="M69.50332879,13.18267695 A2.05926513,2.05926513 0 0,1 72.05307619,15.18267695 "/>
        <line x1="109.59106991" y1="0.35625495" x2="108.63342492" y2="0.2697296"/>
        <line x1="108.63342492" y1="0.2697296" x2="107.67402352" y2="0.19484699"/>
        <line x1="107.67402352" y1="0.19484699" x2="106.71311111" y2="0.13178483"/>
        <line x1="106.71311111" y1="0.13178483" x2="105.75093309" y2="0.08072081"/>
        <line x1="105.75093309" y1="0.08072081" x2="104.78773483" y2="0.04183263"/>
        <line x1="104.78773483" y1="0.04183263" x2="103.82376173" y2="0.01529796"/>
        <line x1="103.82376173" y1="0.01529796" x2="102.85925919" y2="0.00129452"/>
        <line x1="102.85925919" y1="0.00129452" x2="101.89447258" y2="0"/>
        <line x1="101.89447258" y1="0" x2="100.9296473" y2="0.01159208"/>
        <line x1="100.9296473" y1="0.01159208" x2="99.96502875" y2="0.03624847"/>
        <line x1="99.96502875" y1="0.03624847" x2="99.0008623" y2="0.07414685"/>
        <line x1="99.0008623" y1="0.07414685" x2="98.03739335" y2="0.12546493"/>
        <line x1="98.03739335" y1="0.12546493" x2="97.07486729" y2="0.19038038"/>
        <line x1="97.07486729" y1="0.19038038" x2="96.11352952" y2="0.26907092"/>
        <line x1="96.11352952" y1="0.26907092" x2="95.15362541" y2="0.36171423"/>
        <line x1="95.15362541" y1="0.36171423" x2="94.19540036" y2="0.468488"/>
        <line x1="94.19540036" y1="0.468488" x2="93.23909976" y2="0.58956994"/>
        <line x1="93.23909976" y1="0.58956994" x2="92.284969" y2="0.72513773"/>
        <line x1="92.284969" y1="0.72513773" x2="91.33325346" y2="0.87536907"/>
        <line x1="91.33325346" y1="0.87536907" x2="90.38419855" y2="1.04044165"/>
        <line x1="90.38419855" y1="1.04044165" x2="89.43804965" y2="1.22053316"/>
        <line x1="89.43804965" y1="1.22053316" x2="88.49505215" y2="1.41582131"/>
        <line x1="88.49505215" y1="1.41582131" x2="87.55545143" y2="1.62648377"/>
        <line x1="87.55545143" y1="1.62648377" x2="86.61949289" y2="1.85269826"/>
        <line x1="86.61949289" y1="1.85269826" x2="85.68742193" y2="2.09464246"/>
        <line x1="85.68742193" y1="2.09464246" x2="84.75948392" y2="2.35249406"/>
        <line x1="84.75948392" y1="2.35249406" x2="83.83592426" y2="2.62643077"/>
        <line x1="83.83592426" y1="2.62643077" x2="82.91698834" y2="2.91663026"/>
        <line x1="82.91698834" y1="2.91663026" x2="82.00292155" y2="3.22327025"/>
        <line x1="82.00292155" y1="3.22327025" x2="81.09396928" y2="3.54652841"/>
        <line x1="81.09396928" y1="3.54652841" x2="80.19037691" y2="3.88658245"/>
        <line x1="127.96244223" y1="15.84580473" x2="127.95277508" y2="15.45496075"/>
        <line x1="127.95277508" y1="15.45496075" x2="127.92887181" y2="15.06449885"/>
        <line x1="127.92887181" y1="15.06449885" x2="127.89088937" y2="14.67494023"/>
        <line x1="127.89088937" y1="14.67494023" x2="127.83898471" y2="14.28680607"/>
        <line x1="127.83898471" y1="14.28680607" x2="127.77331477" y2="13.90061756"/>
        <line x1="127.77331477" y1="13.90061756" x2="127.69403651" y2="13.51689589"/>
        <line x1="127.69403651" y1="13.51689589" x2="127.60130688" y2="13.13616225"/>
        <line x1="127.60130688" y1="13.13616225" x2="127.49528283" y2="12.75893783"/>
        <line x1="127.49528283" y1="12.75893783" x2="127.3761213" y2="12.38574381"/>
        <line x1="127.3761213" y1="12.38574381" x2="127.24397924" y2="12.01710139"/>
        <line x1="127.24397924" y1="12.01710139" x2="127.09901361" y2="11.65353176"/>
        <line x1="127.09901361" y1="11.65353176" x2="126.94138135" y2="11.29555609"/>
        <line x1="126.94138135" y1="11.29555609" x2="126.77123942" y2="10.94369559"/>
        <line x1="126.77123942" y1="10.94369559" x2="126.58874476" y2="10.59847144"/>
        <line x1="126.58874476" y1="10.59847144" x2="126.39405432" y2="10.26040483"/>
        <line x1="126.39405432" y1="10.26040483" x2="126.18732506" y2="9.93001695"/>
        <line x1="126.18732506" y1="9.93001695" x2="125.96871391" y2="9.60782899"/>
        <line x1="125.96871391" y1="9.60782899" x2="125.73837783" y2="9.29436213"/>
        <line x1="125.73837783" y1="9.29436213" x2="125.49647378" y2="8.99013757"/>
        <line x1="125.49647378" y1="8.99013757" x2="125.24315869" y2="8.6956765"/>
        <line x1="125.24315869" y1="8.6956765" x2="124.97858952" y2="8.4115001"/>
        <line x1="124.97858952" y1="8.4115001" x2="124.70292322" y2="8.13812956"/>
        <line x1="124.70292322" y1="8.13812956" x2="124.41631674" y2="7.87608607"/>
        <line x1="124.41631674" y1="7.87608607" x2="124.11892702" y2="7.62589083"/>
        <line x1="124.11892702" y1="7.62589083" x2="123.81091102" y2="7.38806501"/>
        <line x1="123.81091102" y1="7.38806501" x2="123.49242569" y2="7.16312982"/>
        <line x1="123.49242569" y1="7.16312982" x2="123.16362797" y2="6.95160643"/>
        <line x1="123.16362797" y1="6.95160643" x2="122.82467482" y2="6.75401603"/>
        <line x1="122.82467482" y1="6.75401603" x2="122.47572318" y2="6.57087983"/>
        <line x1="122.47572318" y1="6.57087983" x2="122.11693" y2="6.40271899"/>
        <line x1="122.11693" y1="6.40271899" x2="121.74845223" y2="6.25005473"/>
        <line x1="121.74845223" y1="6.25005473" x2="121.34319794" y2="6.08403802"/>
        <line x1="121.34319794" y1="6.08403802" x2="120.93571194" y2="5.9243591"/>
        <line x1="120.93571194" y1="5.9243591" x2="120.52608343" y2="5.77085569"/>
        <line x1="120.52608343" y1="5.77085569" x2="120.11440159" y2="5.62336553"/>
        <line x1="120.11440159" y1="5.62336553" x2="119.70075561" y2="5.48172635"/>
        <line x1="119.70075561" y1="5.48172635" x2="119.28523468" y2="5.34577589"/>
        <line x1="119.28523468" y1="5.34577589" x2="118.867928" y2="5.21535189"/>
        <line x1="118.867928" y1="5.21535189" x2="118.44892474" y2="5.09029207"/>
        <line x1="118.44892474" y1="5.09029207" x2="118.02831411" y2="4.97043418"/>
        <line x1="118.02831411" y1="4.97043418" x2="117.60618528" y2="4.85561596"/>
        <line x1="117.60618528" y1="4.85561596" x2="117.18262746" y2="4.74567513"/>
        <line x1="117.18262746" y1="4.74567513" x2="116.75772982" y2="4.64044943"/>
        <line x1="116.75772982" y1="4.64044943" x2="116.33158156" y2="4.53977661"/>
        <line x1="116.33158156" y1="4.53977661" x2="115.90427186" y2="4.44349438"/>
        <line x1="115.90427186" y1="4.44349438" x2="115.47588992" y2="4.3514405"/>
        <line x1="115.47588992" y1="4.3514405" x2="115.04652493" y2="4.26345269"/>
        <line x1="115.04652493" y1="4.26345269" x2="114.61626607" y2="4.17936869"/>
        <line x1="114.61626607" y1="4.17936869" x2="114.18520254" y2="4.09902624"/>
        <line x1="114.18520254" y1="4.09902624" x2="113.75342351" y2="4.02226307"/>
        <line x1="113.75342351" y1="4.02226307" x2="113.3210182" y2="3.94891691"/>
        <line x1="113.3210182" y1="3.94891691" x2="112.88807577" y2="3.87882551"/>
        <line x1="112.88807577" y1="3.87882551" x2="112.45468543" y2="3.8118266"/>
        <line x1="112.45468543" y1="3.8118266" x2="112.02093635" y2="3.74775791"/>
        <line x1="112.02093635" y1="3.74775791" x2="111.58691774" y2="3.68645718"/>
        <line x1="111.58691774" y1="3.68645718" x2="111.15271877" y2="3.62776215"/>
        <line x1="111.15271877" y1="3.62776215" x2="110.71842865" y2="3.57151054"/>
        <line x1="110.71842865" y1="3.57151054" x2="110.28413655" y2="3.5175401"/>
        <line x1="110.28413655" y1="3.5175401" x2="109.84993167" y2="3.46568857"/>
        <line x1="109.84993167" y1="3.46568857" x2="109.4159032" y2="3.41579367"/>
        <line x1="109.4159032" y1="3.41579367" x2="108.98214032" y2="3.36769314"/>
        <line x1="108.98214032" y1="3.36769314" x2="108.54873223" y2="3.32122473"/>
        <line x1="108.54873223" y1="3.32122473" x2="107.71599745" y2="3.24598529"/>
        <line x1="107.71599745" y1="3.24598529" x2="106.88173537" y2="3.18086998"/>
        <line x1="106.88173537" y1="3.18086998" x2="106.04615936" y2="3.12603332"/>
        <line x1="106.04615936" y1="3.12603332" x2="105.20948282" y2="3.08162982"/>
        <line x1="105.20948282" y1="3.08162982" x2="104.37191912" y2="3.04781401"/>
        <line x1="104.37191912" y1="3.04781401" x2="103.53368164" y2="3.02474039"/>
        <line x1="103.53368164" y1="3.02474039" x2="102.69498378" y2="3.01256348"/>
        <line x1="102.69498378" y1="3.01256348" x2="101.8560389" y2="3.01143781"/>
        <line x1="101.8560389" y1="3.01143781" x2="101.0170604" y2="3.02151788"/>
        <line x1="101.0170604" y1="3.02151788" x2="100.17826165" y2="3.04295822"/>
        <line x1="100.17826165" y1="3.04295822" x2="99.33985605" y2="3.07591333"/>
        <line x1="99.33985605" y1="3.07591333" x2="98.50205696" y2="3.12053775"/>
        <line x1="98.50205696" y1="3.12053775" x2="97.66507778" y2="3.17698597"/>
        <line x1="97.66507778" y1="3.17698597" x2="96.82913189" y2="3.24541252"/>
        <line x1="96.82913189" y1="3.24541252" x2="95.99443266" y2="3.32597192"/>
        <line x1="95.99443266" y1="3.32597192" x2="95.16119349" y2="3.41881868"/>
        <line x1="95.16119349" y1="3.41881868" x2="94.32962775" y2="3.52410732"/>
        <line x1="94.32962775" y1="3.52410732" x2="93.49994883" y2="3.64199236"/>
        <line x1="93.49994883" y1="3.64199236" x2="92.6723701" y2="3.7726283"/>
        <line x1="92.6723701" y1="3.7726283" x2="91.84710496" y2="3.91616968"/>
        <line x1="91.84710496" y1="3.91616968" x2="91.02436679" y2="4.07277099"/>
        <line x1="91.02436679" y1="4.07277099" x2="90.20436896" y2="4.24258677"/>
        <line x1="90.20436896" y1="4.24258677" x2="89.38732486" y2="4.42577153"/>
        <line x1="89.38732486" y1="4.42577153" x2="88.57344787" y2="4.62247978"/>
        <line x1="88.57344787" y1="4.62247978" x2="87.76295138" y2="4.83286603"/>
        <line x1="87.76295138" y1="4.83286603" x2="86.95604876" y2="5.05708482"/>
        <line x1="86.95604876" y1="5.05708482" x2="86.15295341" y2="5.29529065"/>
        <line x1="86.15295341" y1="5.29529065" x2="85.35387869" y2="5.54763804"/>
        <line x1="85.35387869" y1="5.54763804" x2="84.559038" y2="5.8142815"/>
        <line x1="84.559038" y1="5.8142815" x2="83.76864472" y2="6.09537556"/>
        <line x1="83.76864472" y1="6.09537556" x2="82.98291223" y2="6.39107473"/>
        <line x1="82.98291223" y1="6.39107473" x2="82.69231673" y2="6.52051791"/>
        <line x1="82.69231673" y1="6.52051791" x2="82.39788524" y2="6.65117536"/>
        <line x1="82.39788524" y1="6.65117536" x2="82.10034962" y2="6.78344019"/>
        <line x1="82.10034962" y1="6.78344019" x2="81.80044177" y2="6.91770551"/>
        <line x1="81.80044177" y1="6.91770551" x2="81.49889355" y2="7.05436445"/>
        <line x1="81.49889355" y1="7.05436445" x2="81.19643683" y2="7.19381011"/>
        <line x1="81.19643683" y1="7.19381011" x2="80.8938035" y2="7.33643562"/>
        <line x1="80.8938035" y1="7.33643562" x2="80.59172542" y2="7.48263409"/>
        <line x1="80.59172542" y1="7.48263409" x2="80.29093447" y2="7.63279863"/>
        <line x1="80.29093447" y1="7.63279863" x2="79.99216253" y2="7.78732238"/>
        <line x1="79.99216253" y1="7.78732238" x2="79.69614147" y2="7.94659843"/>
        <line x1="79.69614147" y1="7.94659843" x2="79.40360316" y2="8.11101991"/>
        <line x1="79.40360316" y1="8.11101991" x2="79.11527949" y2="8.28097994"/>
        <line x1="79.11527949" y1="8.28097994" x2="78.83190232" y2="8.45687163"/>
        <line x1="78.83190232" y1="8.45687163" x2="78.55420353" y2="8.6390881"/>
        <line x1="78.55420353" y1="8.6390881" x2="78.28291499" y2="8.82802246"/>
        <line x1="78.28291499" y1="8.82802246" x2="78.01876858" y2="9.02406784"/>
        <line x1="78.01876858" y1="9.02406784" x2="77.76249617" y2="9.22761734"/>
        <line x1="77.76249617" y1="9.22761734" x2="77.51482965" y2="9.43906409"/>
        <line x1="77.51482965" y1="9.43906409" x2="77.27650087" y2="9.65880121"/>
        <line x1="77.27650087" y1="9.65880121" x2="77.04824173" y2="9.8872218"/>
        <line x1="77.04824173" y1="9.8872218" x2="76.83078408" y2="10.12471898"/>
        <line x1="76.83078408" y1="10.12471898" x2="76.62485982" y2="10.37168588"/>
        <line x1="76.62485982" y1="10.37168588" x2="76.4312008" y2="10.62851561"/>
        <line x1="76.4312008" y1="10.62851561" x2="76.25053892" y2="10.89560129"/>
        <line x1="76.25053892" y1="10.89560129" x2="76.08360603" y2="11.17333602"/>
        <line x1="76.08360603" y1="11.17333602" x2="75.93113402" y2="11.46211294"/>
        <line x1="75.93113402" y1="11.46211294" x2="75.79385476" y2="11.76232515"/>
        <line x1="75.79385476" y1="11.76232515" x2="75.67250013" y2="12.07436577"/>
        <line x1="75.67250013" y1="12.07436577" x2="75.56780199" y2="12.39862793"/>
        <line x1="75.56780199" y1="12.39862793" x2="75.48049223" y2="12.73550473"/>
        <line x1="75.48049223" y1="12.73550473" x2="75.42404325" y2="13.3267117"/>
        <line x1="75.42404325" y1="13.3267117" x2="75.38593587" y2="13.91674929"/>
        <line x1="75.38593587" y1="13.91674929" x2="75.36552876" y2="14.50558249"/>
        <line x1="75.36552876" y1="14.50558249" x2="75.3621806" y2="15.0931763"/>
        <line x1="75.3621806" y1="15.0931763" x2="75.37525008" y2="15.67949572"/>
        <line x1="75.37525008" y1="15.67949572" x2="75.40409587" y2="16.26450573"/>
        <line x1="75.40409587" y1="16.26450573" x2="75.44807666" y2="16.84817134"/>
        <line x1="75.44807666" y1="16.84817134" x2="75.50655112" y2="17.43045754"/>
        <line x1="75.50655112" y1="17.43045754" x2="75.57887794" y2="18.01132933"/>
        <line x1="75.57887794" y1="18.01132933" x2="75.66441579" y2="18.59075171"/>
        <line x1="75.66441579" y1="18.59075171" x2="75.76252335" y2="19.16868966"/>
        <line x1="75.76252335" y1="19.16868966" x2="75.87255931" y2="19.74510819"/>
        <line x1="75.87255931" y1="19.74510819" x2="75.99388235" y2="20.3199723"/>
        <line x1="75.99388235" y1="20.3199723" x2="76.12585114" y2="20.89324697"/>
        <line x1="76.12585114" y1="20.89324697" x2="76.26782437" y2="21.46489721"/>
        <line x1="76.26782437" y1="21.46489721" x2="76.41916071" y2="22.03488801"/>
        <line x1="76.41916071" y1="22.03488801" x2="76.57921885" y2="22.60318436"/>
        <line x1="76.57921885" y1="22.60318436" x2="76.74735746" y2="23.16975127"/>
        <line x1="76.74735746" y1="23.16975127" x2="76.92293524" y2="23.73455374"/>
        <line x1="76.92293524" y1="23.73455374" x2="77.10531084" y2="24.29755674"/>
        <line x1="77.10531084" y1="24.29755674" x2="77.29384297" y2="24.85872529"/>
        <line x1="77.29384297" y1="24.85872529" x2="77.48789029" y2="25.41802437"/>
        <line x1="77.48789029" y1="25.41802437" x2="77.68681148" y2="25.975419"/>
        <line x1="77.68681148" y1="25.975419" x2="77.88996524" y2="26.53087415"/>
        <line x1="77.88996524" y1="26.53087415" x2="78.09671023" y2="27.08435482"/>
        <line x1="78.09671023" y1="27.08435482" x2="78.30640513" y2="27.63582602"/>
        <line x1="78.30640513" y1="27.63582602" x2="78.51840864" y2="28.18525274"/>
        <line x1="78.51840864" y1="28.18525274" x2="78.73207942" y2="28.73259997"/>
        <line x1="78.73207942" y1="28.73259997" x2="78.94677616" y2="29.27783272"/>
        <line x1="78.94677616" y1="29.27783272" x2="79.16185754" y2="29.82091597"/>
        <line x1="79.16185754" y1="29.82091597" x2="79.37668223" y2="30.36181473"/>
        <line x1="79.37668223" y1="30.36181473" x2="79.58398709" y2="30.81952635"/>
        <line x1="79.58398709" y1="30.81952635" x2="79.80140208" y2="31.27484712"/>
        <line x1="79.80140208" y1="31.27484712" x2="80.02890559" y2="31.7271936"/>
        <line x1="80.02890559" y1="31.7271936" x2="80.26647598" y2="32.17598237"/>
        <line x1="80.26647598" y1="32.17598237" x2="80.51409165" y2="32.62063"/>
        <line x1="80.51409165" y1="32.62063" x2="80.77173096" y2="33.06055305"/>
        <line x1="80.77173096" y1="33.06055305" x2="81.03937229" y2="33.4951681"/>
        <line x1="81.03937229" y1="33.4951681" x2="81.31699402" y2="33.92389172"/>
        <line x1="81.31699402" y1="33.92389172" x2="81.60457453" y2="34.34614048"/>
        <line x1="81.60457453" y1="34.34614048" x2="81.9020922" y2="34.76133095"/>
        <line x1="81.9020922" y1="34.76133095" x2="82.20952539" y2="35.16887971"/>
        <line x1="82.20952539" y1="35.16887971" x2="82.5268525" y2="35.56820333"/>
        <line x1="82.5268525" y1="35.56820333" x2="82.85405189" y2="35.95871837"/>
        <line x1="82.85405189" y1="35.95871837" x2="83.19110195" y2="36.33984141"/>
        <line x1="83.19110195" y1="36.33984141" x2="83.53798105" y2="36.71098903"/>
        <line x1="83.53798105" y1="36.71098903" x2="83.89466757" y2="37.07157778"/>
        <line x1="83.89466757" y1="37.07157778" x2="84.26113988" y2="37.42102425"/>
        <line x1="84.26113988" y1="37.42102425" x2="84.63737637" y2="37.758745"/>
        <line x1="84.63737637" y1="37.758745" x2="85.02335541" y2="38.08415661"/>
        <line x1="85.02335541" y1="38.08415661" x2="85.41905538" y2="38.39667565"/>
        <line x1="85.41905538" y1="38.39667565" x2="85.82445465" y2="38.69571869"/>
        <line x1="85.82445465" y1="38.69571869" x2="86.23953161" y2="38.98070229"/>
        <line x1="86.23953161" y1="38.98070229" x2="86.66426463" y2="39.25104304"/>
        <line x1="86.66426463" y1="39.25104304" x2="87.09863208" y2="39.50615751"/>
        <line x1="87.09863208" y1="39.50615751" x2="87.54261235" y2="39.74546225"/>
        <line x1="87.54261235" y1="39.74546225" x2="87.99618382" y2="39.96837386"/>
        <line x1="87.99618382" y1="39.96837386" x2="88.45932485" y2="40.17430889"/>
        <line x1="88.45932485" y1="40.17430889" x2="88.93201383" y2="40.36268392"/>
        <line x1="88.93201383" y1="40.36268392" x2="89.41422914" y2="40.53291552"/>
        <line x1="89.41422914" y1="40.53291552" x2="89.90594915" y2="40.68442027"/>
        <line x1="89.90594915" y1="40.68442027" x2="90.40715223" y2="40.81661473"/>
        <line x1="90.40715223" y1="40.81661473" x2="91.20275284" y2="41.05972607"/>
        <line x1="91.20275284" y1="41.05972607" x2="92.00306309" y2="41.28919514"/>
        <line x1="92.00306309" y1="41.28919514" x2="92.80778018" y2="41.50490125"/>
        <line x1="92.80778018" y1="41.50490125" x2="93.61660128" y2="41.70672374"/>
        <line x1="93.61660128" y1="41.70672374" x2="94.4292236" y2="41.89454193"/>
        <line x1="94.4292236" y1="41.89454193" x2="95.24534429" y2="42.06823514"/>
        <line x1="95.24534429" y1="42.06823514" x2="96.06466057" y2="42.2276827"/>
        <line x1="96.06466057" y1="42.2276827" x2="96.88686959" y2="42.37276394"/>
        <line x1="96.88686959" y1="42.37276394" x2="97.71166856" y2="42.50335817"/>
        <line x1="97.71166856" y1="42.50335817" x2="98.53875466" y2="42.61934473"/>
        <line x1="98.53875466" y1="42.61934473" x2="99.36782507" y2="42.72060294"/>
        <line x1="99.36782507" y1="42.72060294" x2="100.19857697" y2="42.80701213"/>
        <line x1="100.19857697" y1="42.80701213" x2="101.03070754" y2="42.87845162"/>
        <line x1="101.03070754" y1="42.87845162" x2="101.86391399" y2="42.93480073"/>
        <line x1="101.86391399" y1="42.93480073" x2="102.69789348" y2="42.9759388"/>
        <line x1="102.69789348" y1="42.9759388" x2="103.5323432" y2="43.00174514"/>
        <line x1="103.5323432" y1="43.00174514" x2="104.36696033" y2="43.01209908"/>
        <line x1="104.36696033" y1="43.01209908" x2="105.20144207" y2="43.00687996"/>
        <line x1="105.20144207" y1="43.00687996" x2="106.0354856" y2="42.98596708"/>
        <line x1="106.0354856" y1="42.98596708" x2="106.86878809" y2="42.94923979"/>
        <line x1="106.86878809" y1="42.94923979" x2="107.70104674" y2="42.89657739"/>
        <line x1="107.70104674" y1="42.89657739" x2="108.53195872" y2="42.82785923"/>
        <line x1="108.53195872" y1="42.82785923" x2="109.36122123" y2="42.74296462"/>
        <line x1="109.36122123" y1="42.74296462" x2="110.18853144" y2="42.64177289"/>
        <line x1="110.18853144" y1="42.64177289" x2="111.01358655" y2="42.52416336"/>
        <line x1="111.01358655" y1="42.52416336" x2="111.83608373" y2="42.39001537"/>
        <line x1="111.83608373" y1="42.39001537" x2="112.65572017" y2="42.23920823"/>
        <line x1="112.65572017" y1="42.23920823" x2="113.47219306" y2="42.07162127"/>
        <line x1="113.47219306" y1="42.07162127" x2="114.28519958" y2="41.88713381"/>
        <line x1="114.28519958" y1="41.88713381" x2="115.09443691" y2="41.68562519"/>
        <line x1="115.09443691" y1="41.68562519" x2="115.89960223" y2="41.46697473"/>
        <line x1="115.89960223" y1="41.46697473" x2="116.26746128" y2="41.35452917"/>
        <line x1="116.26746128" y1="41.35452917" x2="116.63241478" y2="41.23260224"/>
        <line x1="116.63241478" y1="41.23260224" x2="116.99417177" y2="41.10128402"/>
        <line x1="116.99417177" y1="41.10128402" x2="117.35244129" y2="40.96066461"/>
        <line x1="117.35244129" y1="40.96066461" x2="117.70693238" y2="40.8108341"/>
        <line x1="117.70693238" y1="40.8108341" x2="118.05735407" y2="40.65188258"/>
        <line x1="118.05735407" y1="40.65188258" x2="118.4034154" y2="40.48390015"/>
        <line x1="118.4034154" y1="40.48390015" x2="118.74482542" y2="40.30697688"/>
        <line x1="118.74482542" y1="40.30697688" x2="119.08129316" y2="40.12120289"/>
        <line x1="119.08129316" y1="40.12120289" x2="119.41252767" y2="39.92666825"/>
        <line x1="119.41252767" y1="39.92666825" x2="119.73823797" y2="39.72346306"/>
        <line x1="119.73823797" y1="39.72346306" x2="120.05813312" y2="39.51167741"/>
        <line x1="120.05813312" y1="39.51167741" x2="120.37192214" y2="39.2914014"/>
        <line x1="120.37192214" y1="39.2914014" x2="120.67931408" y2="39.0627251"/>
        <line x1="120.67931408" y1="39.0627251" x2="120.98001798" y2="38.82573863"/>
        <line x1="120.98001798" y1="38.82573863" x2="121.27374287" y2="38.58053206"/>
        <line x1="121.27374287" y1="38.58053206" x2="121.5601978" y2="38.32719549"/>
        <line x1="121.5601978" y1="38.32719549" x2="121.8390918" y2="38.06581901"/>
        <line x1="121.8390918" y1="38.06581901" x2="122.11013391" y2="37.79649271"/>
        <line x1="122.11013391" y1="37.79649271" x2="122.37303318" y2="37.51930669"/>
        <line x1="122.37303318" y1="37.51930669" x2="122.62749863" y2="37.23435103"/>
        <line x1="122.62749863" y1="37.23435103" x2="122.87323932" y2="36.94171583"/>
        <line x1="122.87323932" y1="36.94171583" x2="123.10996427" y2="36.64149118"/>
        <line x1="123.10996427" y1="36.64149118" x2="123.33738253" y2="36.33376717"/>
        <line x1="123.33738253" y1="36.33376717" x2="123.55520314" y2="36.01863389"/>
        <line x1="123.55520314" y1="36.01863389" x2="123.76313513" y2="35.69618144"/>
        <line x1="123.76313513" y1="35.69618144" x2="123.96088754" y2="35.3664999"/>
        <line x1="123.96088754" y1="35.3664999" x2="124.14816942" y2="35.02967937"/>
        <line x1="124.14816942" y1="35.02967937" x2="124.32468981" y2="34.68580993"/>
        <line x1="124.32468981" y1="34.68580993" x2="124.49015773" y2="34.33498169"/>
        <line x1="124.49015773" y1="34.33498169" x2="124.64428223" y2="33.97728473"/>
        <line x1="124.64428223" y1="33.97728473" x2="124.90497759" y2="33.43281146"/>
        <line x1="124.90497759" y1="33.43281146" x2="125.15362002" y2="32.88386892"/>
        <line x1="125.15362002" y1="32.88386892" x2="125.39039668" y2="32.33064073"/>
        <line x1="125.39039668" y1="32.33064073" x2="125.61549471" y2="31.77331051"/>
        <line x1="125.61549471" y1="31.77331051" x2="125.82910125" y2="31.21206191"/>
        <line x1="125.82910125" y1="31.21206191" x2="126.03140345" y2="30.64707853"/>
        <line x1="126.03140345" y1="30.64707853" x2="126.22258844" y2="30.07854402"/>
        <line x1="126.22258844" y1="30.07854402" x2="126.40284339" y2="29.50664199"/>
        <line x1="126.40284339" y1="29.50664199" x2="126.57235541" y2="28.93155608"/>
        <line x1="126.57235541" y1="28.93155608" x2="126.73131167" y2="28.35346992"/>
        <line x1="126.73131167" y1="28.35346992" x2="126.87989931" y2="27.77256712"/>
        <line x1="126.87989931" y1="27.77256712" x2="127.01830547" y2="27.18903131"/>
        <line x1="127.01830547" y1="27.18903131" x2="127.14671728" y2="26.60304614"/>
        <line x1="127.14671728" y1="26.60304614" x2="127.26532191" y2="26.01479521"/>
        <line x1="127.26532191" y1="26.01479521" x2="127.37430648" y2="25.42446216"/>
        <line x1="127.37430648" y1="25.42446216" x2="127.47385815" y2="24.83223062"/>
        <line x1="127.47385815" y1="24.83223062" x2="127.56416406" y2="24.23828421"/>
        <line x1="127.56416406" y1="24.23828421" x2="127.64541135" y2="23.64280656"/>
        <line x1="127.64541135" y1="23.64280656" x2="127.71778716" y2="23.0459813"/>
        <line x1="127.71778716" y1="23.0459813" x2="127.78147864" y2="22.44799205"/>
        <line x1="127.78147864" y1="22.44799205" x2="127.83667294" y2="21.84902245"/>
        <line x1="127.83667294" y1="21.84902245" x2="127.88355719" y2="21.24925611"/>
        <line x1="127.88355719" y1="21.24925611" x2="127.92231854" y2="20.64887668"/>
        <line x1="127.92231854" y1="20.64887668" x2="127.95314414" y2="20.04806776"/>
        <line x1="127.95314414" y1="20.04806776" x2="127.97622112" y2="19.447013"/>
        <line x1="127.97622112" y1="19.447013" x2="127.99173664" y2="18.84589601"/>
        <line x1="127.99173664" y1="18.84589601" x2="127.99987783" y2="18.24490044"/>
        <line x1="127.99987783" y1="18.24490044" x2="128.00083184" y2="17.64420989"/>
        <line x1="128.00083184" y1="17.64420989" x2="127.99478582" y2="17.04400801"/>
        <line x1="127.99478582" y1="17.04400801" x2="127.9819269" y2="16.44447841"/>
        <line x1="127.9819269" y1="16.44447841" x2="127.96244223" y2="15.84580473"/>
        <line x1="127.96244223" y1="15.84580473" x2="127.96244223" y2="15.84580473"/>
        <line x1="131.91683641" y1="14.75952195" x2="131.90571919" y2="14.31005138"/>
        <line x1="131.90571919" y1="14.31005138" x2="131.87823043" y2="13.8610202"/>
        <line x1="131.87823043" y1="13.8610202" x2="131.83455062" y2="13.41302779"/>
        <line x1="131.83455062" y1="13.41302779" x2="131.77486026" y2="12.9666735"/>
        <line x1="131.77486026" y1="12.9666735" x2="131.69933983" y2="12.52255672"/>
        <line x1="131.69933983" y1="12.52255672" x2="131.60816983" y2="12.0812768"/>
        <line x1="131.60816983" y1="12.0812768" x2="131.50153076" y2="11.64343311"/>
        <line x1="131.50153076" y1="11.64343311" x2="131.37960309" y2="11.20962502"/>
        <line x1="131.37960309" y1="11.20962502" x2="131.24256733" y2="10.7804519"/>
        <line x1="131.24256733" y1="10.7804519" x2="131.09060397" y2="10.35651312"/>
        <line x1="131.09060397" y1="10.35651312" x2="130.9238935" y2="9.93840804"/>
        <line x1="130.9238935" y1="9.93840804" x2="130.7426164" y2="9.52673602"/>
        <line x1="130.7426164" y1="9.52673602" x2="130.54695318" y2="9.12209645"/>
        <line x1="130.54695318" y1="9.12209645" x2="130.33708432" y2="8.72508868"/>
        <line x1="130.33708432" y1="8.72508868" x2="130.11319032" y2="8.33631207"/>
        <line x1="130.11319032" y1="8.33631207" x2="129.87545166" y2="7.95636601"/>
        <line x1="129.87545166" y1="7.95636601" x2="129.62404884" y2="7.58584985"/>
        <line x1="129.62404884" y1="7.58584985" x2="129.35916235" y2="7.22536297"/>
        <line x1="129.35916235" y1="7.22536297" x2="129.08097269" y2="6.87550473"/>
        <line x1="129.08097269" y1="6.87550473" x2="128.78966034" y2="6.53687449"/>
        <line x1="128.78966034" y1="6.53687449" x2="128.4854058" y2="6.21007163"/>
        <line x1="128.4854058" y1="6.21007163" x2="128.16838955" y2="5.89569551"/>
        <line x1="128.16838955" y1="5.89569551" x2="127.8387921" y2="5.5943455"/>
        <line x1="127.8387921" y1="5.5943455" x2="127.49679392" y2="5.30662097"/>
        <line x1="127.49679392" y1="5.30662097" x2="127.14257552" y2="5.03312128"/>
        <line x1="127.14257552" y1="5.03312128" x2="126.77631739" y2="4.77444581"/>
        <line x1="126.77631739" y1="4.77444581" x2="126.39820001" y2="4.53119391"/>
        <line x1="126.39820001" y1="4.53119391" x2="126.00840388" y2="4.30396496"/>
        <line x1="126.00840388" y1="4.30396496" x2="125.6071095" y2="4.09335832"/>
        <line x1="125.6071095" y1="4.09335832" x2="125.19449734" y2="3.89997336"/>
        <line x1="125.19449734" y1="3.89997336" x2="124.77074791" y2="3.72440945"/>
        <line x1="124.77074791" y1="3.72440945" x2="124.30470548" y2="3.53349025"/>
        <line x1="124.30470548" y1="3.53349025" x2="123.83609658" y2="3.34985949"/>
        <line x1="123.83609658" y1="3.34985949" x2="123.36502379" y2="3.17333056"/>
        <line x1="123.36502379" y1="3.17333056" x2="122.89158967" y2="3.00371688"/>
        <line x1="122.89158967" y1="3.00371688" x2="122.4158968" y2="2.84083182"/>
        <line x1="122.4158968" y1="2.84083182" x2="121.93804773" y2="2.68448879"/>
        <line x1="121.93804773" y1="2.68448879" x2="121.45814504" y2="2.53450119"/>
        <line x1="121.45814504" y1="2.53450119" x2="120.9762913" y2="2.3906824"/>
        <line x1="120.9762913" y1="2.3906824" x2="120.49258907" y2="2.25284583"/>
        <line x1="120.49258907" y1="2.25284583" x2="120.00714092" y2="2.12080487"/>
        <line x1="120.00714092" y1="2.12080487" x2="119.52004942" y2="1.99437292"/>
        <line x1="119.52004942" y1="1.99437292" x2="119.03141714" y2="1.87336337"/>
        <line x1="119.03141714" y1="1.87336337" x2="118.54134663" y2="1.75758962"/>
        <line x1="118.54134663" y1="1.75758962" x2="118.04994049" y2="1.64686506"/>
        <line x1="118.04994049" y1="1.64686506" x2="117.55730126" y2="1.54100309"/>
        <line x1="117.55730126" y1="1.54100309" x2="117.06353151" y2="1.43981711"/>
        <line x1="117.06353151" y1="1.43981711" x2="116.56873383" y2="1.34312051"/>
        <line x1="116.56873383" y1="1.34312051" x2="116.07301076" y2="1.25072669"/>
        <line x1="116.07301076" y1="1.25072669" x2="115.57646489" y2="1.16244904"/>
        <line x1="115.57646489" y1="1.16244904" x2="115.07919877" y2="1.07810097"/>
        <line x1="115.07919877" y1="1.07810097" x2="114.58131498" y2="0.99749586"/>
        <line x1="114.58131498" y1="0.99749586" x2="114.08291608" y2="0.92044711"/>
        <line x1="114.08291608" y1="0.92044711" x2="113.58410465" y2="0.84676811"/>
        <line x1="113.58410465" y1="0.84676811" x2="113.08498324" y2="0.77627228"/>
        <line x1="113.08498324" y1="0.77627228" x2="112.58565443" y2="0.70877299"/>
        <line x1="112.58565443" y1="0.70877299" x2="112.08622079" y2="0.64408364"/>
        <line x1="112.08622079" y1="0.64408364" x2="111.58678488" y2="0.58201764"/>
        <line x1="111.58678488" y1="0.58201764" x2="111.08744927" y2="0.52238837"/>
        <line x1="111.08744927" y1="0.52238837" x2="110.58831652" y2="0.46500924"/>
        <line x1="110.58831652" y1="0.46500924" x2="110.08948922" y2="0.40969363"/>
        <line x1="110.08948922" y1="0.40969363" x2="109.59106991" y2="0.35625495"/>
        <line x1="76.04321241" y1="31.45293345" x2="76.281613" y2="31.97930182"/>
        <line x1="76.281613" y1="31.97930182" x2="76.53164024" y2="32.50292071"/>
        <line x1="76.53164024" y1="32.50292071" x2="76.79326927" y2="33.02311916"/>
        <line x1="76.79326927" y1="33.02311916" x2="77.06647523" y2="33.53922625"/>
        <line x1="77.06647523" y1="33.53922625" x2="77.35123324" y2="34.05057101"/>
        <line x1="77.35123324" y1="34.05057101" x2="77.64751844" y2="34.55648252"/>
        <line x1="77.64751844" y1="34.55648252" x2="77.95530598" y2="35.05628983"/>
        <line x1="77.95530598" y1="35.05628983" x2="78.27457097" y2="35.54932199"/>
        <line x1="78.27457097" y1="35.54932199" x2="78.60528856" y2="36.03490807"/>
        <line x1="78.60528856" y1="36.03490807" x2="78.94743387" y2="36.51237711"/>
        <line x1="78.94743387" y1="36.51237711" x2="79.30098205" y2="36.98105819"/>
        <line x1="79.30098205" y1="36.98105819" x2="79.66590822" y2="37.44028035"/>
        <line x1="79.66590822" y1="37.44028035" x2="80.04218752" y2="37.88937265"/>
        <line x1="80.04218752" y1="37.88937265" x2="80.42979509" y2="38.32766414"/>
        <line x1="80.42979509" y1="38.32766414" x2="80.82870605" y2="38.7544839"/>
        <line x1="80.82870605" y1="38.7544839" x2="81.23889555" y2="39.16916097"/>
        <line x1="81.23889555" y1="39.16916097" x2="81.66033871" y2="39.57102441"/>
        <line x1="81.66033871" y1="39.57102441" x2="82.09301067" y2="39.95940327"/>
        <line x1="82.09301067" y1="39.95940327" x2="82.53688657" y2="40.33362662"/>
        <line x1="82.53688657" y1="40.33362662" x2="82.99194153" y2="40.69302352"/>
        <line x1="82.99194153" y1="40.69302352" x2="83.4581507" y2="41.03692301"/>
        <line x1="83.4581507" y1="41.03692301" x2="83.9354892" y2="41.36465416"/>
        <line x1="83.9354892" y1="41.36465416" x2="84.42393217" y2="41.67554602"/>
        <line x1="84.42393217" y1="41.67554602" x2="84.92345474" y2="41.96892765"/>
        <line x1="84.92345474" y1="41.96892765" x2="85.43403205" y2="42.24412811"/>
        <line x1="85.43403205" y1="42.24412811" x2="85.95563924" y2="42.50047645"/>
        <line x1="85.95563924" y1="42.50047645" x2="86.48825142" y2="42.73730174"/>
        <line x1="86.48825142" y1="42.73730174" x2="87.03184375" y2="42.95393303"/>
        <line x1="87.03184375" y1="42.95393303" x2="87.58639135" y2="43.14969937"/>
        <line x1="87.58639135" y1="43.14969937" x2="88.15186936" y2="43.32392983"/>
        <line x1="88.15186936" y1="43.32392983" x2="88.72825291" y2="43.47595345"/>
        <line x1="88.72825291" y1="43.47595345" x2="89.64319361" y2="43.7555315"/>
        <line x1="89.64319361" y1="43.7555315" x2="90.5635504" y2="44.01942093"/>
        <line x1="90.5635504" y1="44.01942093" x2="91.48897505" y2="44.26748296"/>
        <line x1="91.48897505" y1="44.26748296" x2="92.41911932" y2="44.49957882"/>
        <line x1="92.41911932" y1="44.49957882" x2="93.35363498" y2="44.71556974"/>
        <line x1="93.35363498" y1="44.71556974" x2="94.29217378" y2="44.91531693"/>
        <line x1="94.29217378" y1="44.91531693" x2="95.2343875" y2="45.09868162"/>
        <line x1="95.2343875" y1="45.09868162" x2="96.17992788" y2="45.26552504"/>
        <line x1="96.17992788" y1="45.26552504" x2="97.12844669" y2="45.41570841"/>
        <line x1="97.12844669" y1="45.41570841" x2="98.0795957" y2="45.54909296"/>
        <line x1="98.0795957" y1="45.54909296" x2="99.03302667" y2="45.6655399"/>
        <line x1="99.03302667" y1="45.6655399" x2="99.98839136" y2="45.76491047"/>
        <line x1="99.98839136" y1="45.76491047" x2="100.94534152" y2="45.84706588"/>
        <line x1="100.94534152" y1="45.84706588" x2="101.90352893" y2="45.91186736"/>
        <line x1="101.90352893" y1="45.91186736" x2="102.86260534" y2="45.95917613"/>
        <line x1="102.86260534" y1="45.95917613" x2="103.82222252" y2="45.98885343"/>
        <line x1="103.82222252" y1="45.98885343" x2="104.78203223" y2="46.00076047"/>
        <line x1="104.78203223" y1="46.00076047" x2="105.74168623" y2="45.99475847"/>
        <line x1="105.74168623" y1="45.99475847" x2="106.70083628" y2="45.97070866"/>
        <line x1="106.70083628" y1="45.97070866" x2="107.65913415" y2="45.92847227"/>
        <line x1="107.65913415" y1="45.92847227" x2="108.61623159" y2="45.86791052"/>
        <line x1="108.61623159" y1="45.86791052" x2="109.57178037" y2="45.78888463"/>
        <line x1="109.57178037" y1="45.78888463" x2="110.52543226" y2="45.69125583"/>
        <line x1="110.52543226" y1="45.69125583" x2="111.47683901" y2="45.57488534"/>
        <line x1="111.47683901" y1="45.57488534" x2="112.42565238" y2="45.43963439"/>
        <line x1="112.42565238" y1="45.43963439" x2="113.37152414" y2="45.28536419"/>
        <line x1="113.37152414" y1="45.28536419" x2="114.31410605" y2="45.11193598"/>
        <line x1="114.31410605" y1="45.11193598" x2="115.25304987" y2="44.91921098"/>
        <line x1="115.25304987" y1="44.91921098" x2="116.18800736" y2="44.70705041"/>
        <line x1="116.18800736" y1="44.70705041" x2="117.11863029" y2="44.47531549"/>
        <line x1="117.11863029" y1="44.47531549" x2="118.04457041" y2="44.22386745"/>
        <line x1="118.04457041" y1="44.22386745" x2="118.46760832" y2="44.09455506"/>
        <line x1="118.46760832" y1="44.09455506" x2="118.88730485" y2="43.95433909"/>
        <line x1="118.88730485" y1="43.95433909" x2="119.30332539" y2="43.80332314"/>
        <line x1="119.30332539" y1="43.80332314" x2="119.71533533" y2="43.64161082"/>
        <line x1="119.71533533" y1="43.64161082" x2="120.12300008" y2="43.46930573"/>
        <line x1="120.12300008" y1="43.46930573" x2="120.52598502" y2="43.28651149"/>
        <line x1="120.52598502" y1="43.28651149" x2="120.92395556" y2="43.09333169"/>
        <line x1="120.92395556" y1="43.09333169" x2="121.31657708" y2="42.88986994"/>
        <line x1="121.31657708" y1="42.88986994" x2="121.70351498" y2="42.67622984"/>
        <line x1="121.70351498" y1="42.67622984" x2="122.08443466" y2="42.45251501"/>
        <line x1="122.08443466" y1="42.45251501" x2="122.45900151" y2="42.21882904"/>
        <line x1="122.45900151" y1="42.21882904" x2="122.82688093" y2="41.97527554"/>
        <line x1="122.82688093" y1="41.97527554" x2="123.1877383" y2="41.72195813"/>
        <line x1="123.1877383" y1="41.72195813" x2="123.54123904" y2="41.45898039"/>
        <line x1="123.54123904" y1="41.45898039" x2="123.88704852" y2="41.18644594"/>
        <line x1="123.88704852" y1="41.18644594" x2="124.22483214" y2="40.90445839"/>
        <line x1="124.22483214" y1="40.90445839" x2="124.55425531" y2="40.61312133"/>
        <line x1="124.55425531" y1="40.61312133" x2="124.87498341" y2="40.31253838"/>
        <line x1="124.87498341" y1="40.31253838" x2="125.18668184" y2="40.00281314"/>
        <line x1="125.18668184" y1="40.00281314" x2="125.489016" y2="39.68404921"/>
        <line x1="125.489016" y1="39.68404921" x2="125.78165127" y2="39.35635021"/>
        <line x1="125.78165127" y1="39.35635021" x2="126.06425306" y2="39.01981973"/>
        <line x1="126.06425306" y1="39.01981973" x2="126.33648675" y2="38.67456138"/>
        <line x1="126.33648675" y1="38.67456138" x2="126.59801775" y2="38.32067877"/>
        <line x1="126.59801775" y1="38.32067877" x2="126.84851145" y2="37.9582755"/>
        <line x1="126.84851145" y1="37.9582755" x2="127.08763324" y2="37.58745517"/>
        <line x1="127.08763324" y1="37.58745517" x2="127.31504852" y2="37.2083214"/>
        <line x1="127.31504852" y1="37.2083214" x2="127.53042268" y2="36.82097779"/>
        <line x1="127.53042268" y1="36.82097779" x2="127.73342112" y2="36.42552794"/>
        <line x1="127.73342112" y1="36.42552794" x2="127.92370923" y2="36.02207546"/>
        <line x1="127.92370923" y1="36.02207546" x2="128.10095241" y2="35.61072395"/>
        <line x1="128.10095241" y1="35.61072395" x2="128.40075207" y2="34.9845797"/>
        <line x1="128.40075207" y1="34.9845797" x2="128.68669087" y2="34.35329577"/>
        <line x1="128.68669087" y1="34.35329577" x2="128.95898403" y2="33.71708335"/>
        <line x1="128.95898403" y1="33.71708335" x2="129.21784676" y2="33.07615361"/>
        <line x1="129.21784676" y1="33.07615361" x2="129.46349428" y2="32.43071771"/>
        <line x1="129.46349428" y1="32.43071771" x2="129.69614181" y2="31.78098683"/>
        <line x1="129.69614181" y1="31.78098683" x2="129.91600456" y2="31.12717214"/>
        <line x1="129.91600456" y1="31.12717214" x2="130.12329774" y2="30.46948481"/>
        <line x1="130.12329774" y1="30.46948481" x2="130.31823657" y2="29.80813602"/>
        <line x1="130.31823657" y1="29.80813602" x2="130.50103627" y2="29.14333692"/>
        <line x1="130.50103627" y1="29.14333692" x2="130.67191205" y2="28.4752987"/>
        <line x1="130.67191205" y1="28.4752987" x2="130.83107913" y2="27.80423253"/>
        <line x1="130.83107913" y1="27.80423253" x2="130.97875272" y2="27.13034958"/>
        <line x1="130.97875272" y1="27.13034958" x2="131.11514804" y2="26.45386101"/>
        <line x1="131.11514804" y1="26.45386101" x2="131.2404803" y2="25.774978"/>
        <line x1="131.2404803" y1="25.774978" x2="131.35496472" y2="25.09391173"/>
        <line x1="131.35496472" y1="25.09391173" x2="131.45881651" y2="24.41087336"/>
        <line x1="131.45881651" y1="24.41087336" x2="131.55225089" y2="23.72607406"/>
        <line x1="131.55225089" y1="23.72607406" x2="131.63548308" y2="23.03972501"/>
        <line x1="131.63548308" y1="23.03972501" x2="131.70872828" y2="22.35203738"/>
        <line x1="131.70872828" y1="22.35203738" x2="131.77220172" y2="21.66322233"/>
        <line x1="131.77220172" y1="21.66322233" x2="131.82611861" y2="20.97349105"/>
        <line x1="131.82611861" y1="20.97349105" x2="131.87069417" y2="20.2830547"/>
        <line x1="131.87069417" y1="20.2830547" x2="131.9061436" y2="19.59212444"/>
        <line x1="131.9061436" y1="19.59212444" x2="131.93268214" y2="18.90091147"/>
        <line x1="131.93268214" y1="18.90091147" x2="131.95052498" y2="18.20962694"/>
        <line x1="131.95052498" y1="18.20962694" x2="131.95988735" y2="17.51848202"/>
        <line x1="131.95988735" y1="17.51848202" x2="131.96098447" y2="16.82768789"/>
        <line x1="131.96098447" y1="16.82768789" x2="131.95403154" y2="16.13745573"/>
        <line x1="131.95403154" y1="16.13745573" x2="131.93924378" y2="15.44799669"/>
        <line x1="131.93924378" y1="15.44799669" x2="131.91683641" y2="14.75952195"/>
        <line x1="131.91683641" y1="14.75952195" x2="131.91683641" y2="14.75952195"/>
    </g>
</svg>
