999
dxfrw 0.6.3
  0
SECTION
  2
HEADER
  9
$ACADVER
  1
AC1021
  9
$DWGCODEPAGE
  3
ANSI_1252
  9
$INSBASE
 10
0
 20
0
 30
0
  9
$EXTMIN
 10
-13.22020092914138
 20
-7.740270990351505
 30
0
  9
$EXTMAX
 10
131.1443824291924
 20
38.2604894753764
 30
0
  9
$LIMMIN
 10
0
 20
0
  9
$LIMMAX
 10
420
 20
297
  9
$ORTHOMODE
 70
    0
  9
$REGENMODE
 70
    1
  9
$FILLMODE
 70
    1
  9
$QTEXTMODE
 70
    0
  9
$MIRRTEXT
 70
    0
  9
$LTSCALE
 40
1
  9
$ATTMODE
 70
    0
  9
$TEXTSIZE
 40
2.5
  9
$TRACEWID
 40
15.68
  9
$TEXTSTYLE
  7
STANDARD
  9
$CLAYER
  8
0
  9
$CELTYPE
  6
BYLAYER
  9
$CECOLOR
 62
  256
  9
$CELTSCALE
 40
1
  9
$DISPSILH
 70
    0
  9
$DIMSCALE
 40
1
  9
$DIMASZ
 40
2.5
  9
$DIMEXO
 40
0.625
  9
$DIMDLI
 40
3.75
  9
$DIMRND
 40
0
  9
$DIMDLE
 40
0
  9
$DIMEXE
 40
1.25
  9
$DIMTP
 40
0
  9
$DIMTM
 40
0
  9
$DIMTXT
 40
2.5
  9
$DIMCEN
 40
2.5
  9
$DIMTSZ
 40
0
  9
$DIMTOL
 70
    0
  9
$DIMLIM
 70
    0
  9
$DIMTIH
 70
    0
  9
$DIMTOH
 70
    0
  9
$DIMSE1
 70
    0
  9
$DIMSE2
 70
    0
  9
$DIMTAD
 70
    1
  9
$DIMZIN
 70
    8
  9
$DIMBLK
  1

  9
$DIMASO
 70
    1
  9
$DIMSHO
 70
    1
  9
$DIMPOST
  1

  9
$DIMAPOST
  1

  9
$DIMALT
 70
    0
  9
$DIMALTD
 70
    3
  9
$DIMALTF
 40
0.03937
  9
$DIMLFAC
 40
1
  9
$DIMTOFL
 70
    1
  9
$DIMTVP
 40
0
  9
$DIMTIX
 70
    0
  9
$DIMSOXD
 70
    0
  9
$DIMSAH
 70
    0
  9
$DIMBLK1
  1

  9
$DIMBLK2
  1

  9
$DIMSTYLE
  2
STANDARD
  9
$DIMCLRD
 70
    0
  9
$DIMCLRE
 70
    0
  9
$DIMCLRT
 70
    0
  9
$DIMTFAC
 40
1
  9
$DIMGAP
 40
0.625
  9
$DIMJUST
 70
    0
  9
$DIMSD1
 70
    0
  9
$DIMSD2
 70
    0
  9
$DIMTOLJ
 70
    0
  9
$DIMTZIN
 70
    8
  9
$DIMALTZ
 70
    0
  9
$DIMALTTZ
 70
    0
  9
$DIMUPT
 70
    0
  9
$DIMDEC
 70
    4
  9
$DIMTDEC
 70
    2
  9
$DIMALTU
 70
    2
  9
$DIMALTTD
 70
    3
  9
$DIMTXSTY
  7
STANDARD
  9
$DIMAUNIT
 70
    0
  9
$DIMADEC
 70
    0
  9
$DIMALTRND
 40
0
  9
$DIMAZIN
 70
    0
  9
$DIMDSEP
 70
   44
  9
$DIMATFIT
 70
    3
  9
$DIMFRAC
 70
    0
  9
$DIMLDRBLK
  1
STANDARD
  9
$DIMLUNIT
 70
    2
  9
$DIMLWD
 70
   -2
  9
$DIMLWE
 70
   -2
  9
$DIMTMOVE
 70
    0
  9
$DIMFXL
 40
1
  9
$DIMFXLON
 70
    0
  9
$DIMJOGANG
 40
0.7854
  9
$DIMTFILL
 70
    0
  9
$DIMTFILLCLR
 70
    0
  9
$DIMARCSYM
 70
    0
  9
$DIMLTYPE
  6

  9
$DIMLTEX1
  6

  9
$DIMLTEX2
  6

  9
$LUNITS
 70
    2
  9
$LUPREC
 70
    4
  9
$SKETCHINC
 40
1
  9
$FILLETRAD
 40
0
  9
$AUNITS
 70
    0
  9
$AUPREC
 70
    2
  9
$MENU
  1
.
  9
$ELEVATION
 40
0
  9
$PELEVATION
 40
0
  9
$THICKNESS
 40
0
  9
$LIMCHECK
 70
    0
  9
$CHAMFERA
 40
0
  9
$CHAMFERB
 40
0
  9
$CHAMFERC
 40
0
  9
$CHAMFERD
 40
0
  9
$SKPOLY
 70
    0
  9
$USRTIMER
 70
    1
  9
$ANGBASE
 50
0
  9
$ANGDIR
 70
    0
  9
$PDMODE
 70
   34
  9
$PDSIZE
 40
0
  9
$PLINEWID
 40
0
  9
$SPLFRAME
 70
    0
  9
$SPLINETYPE
 70
    2
  9
$SPLINESEGS
 70
    8
  9
$HANDSEED
  5
20000
  9
$SURFTAB1
 70
    6
  9
$SURFTAB2
 70
    6
  9
$SURFTYPE
 70
    6
  9
$SURFU
 70
    6
  9
$SURFV
 70
    6
  9
$UCSBASE
  2

  9
$UCSNAME
  2

  9
$UCSORG
 10
0
 20
0
 30
0
  9
$UCSXDIR
 10
1
 20
0
 30
0
  9
$UCSYDIR
 10
0
 20
1
 30
0
  9
$UCSORTHOREF
  2

  9
$UCSORTHOVIEW
 70
    0
  9
$UCSORGTOP
 10
0
 20
0
 30
0
  9
$UCSORGBOTTOM
 10
0
 20
0
 30
0
  9
$UCSORGLEFT
 10
0
 20
0
 30
0
  9
$UCSORGRIGHT
 10
0
 20
0
 30
0
  9
$UCSORGFRONT
 10
0
 20
0
 30
0
  9
$UCSORGBACK
 10
0
 20
0
 30
0
  9
$PUCSBASE
  2

  9
$PUCSNAME
  2

  9
$PUCSORG
 10
0
 20
0
 30
0
  9
$PUCSXDIR
 10
1
 20
0
 30
0
  9
$PUCSYDIR
 10
0
 20
1
 30
0
  9
$PUCSORTHOREF
  2

  9
$PUCSORTHOVIEW
 70
    0
  9
$PUCSORGTOP
 10
0
 20
0
 30
0
  9
$PUCSORGBOTTOM
 10
0
 20
0
 30
0
  9
$PUCSORGLEFT
 10
0
 20
0
 30
0
  9
$PUCSORGRIGHT
 10
0
 20
0
 30
0
  9
$PUCSORGFRONT
 10
0
 20
0
 30
0
  9
$PUCSORGBACK
 10
0
 20
0
 30
0
  9
$USERI1
 70
    0
  9
$USERI2
 70
    0
  9
$USERI3
 70
    0
  9
$USERI4
 70
    0
  9
$USERI5
 70
    0
  9
$USERR1
 40
0
  9
$USERR2
 40
0
  9
$USERR3
 40
0
  9
$USERR4
 40
0
  9
$USERR5
 40
0
  9
$WORLDVIEW
 70
    1
  9
$SHADEDGE
 70
    3
  9
$SHADEDIF
 70
   70
  9
$TILEMODE
 70
    1
  9
$MAXACTVP
 70
   64
  9
$PINSBASE
 10
0
 20
0
 30
0
  9
$PLIMCHECK
 70
    0
  9
$PEXTMIN
 10
0
 20
0
 30
0
  9
$PEXTMAX
 10
0
 20
0
 30
0
  9
$GRIDMODE
 70
    0
  9
$SNAPSTYLE
 70
    0
  9
$PLIMMIN
 10
0
 20
0
  9
$PLIMMAX
 10
297
 20
210
  9
$UNITMODE
 70
    0
  9
$VISRETAIN
 70
    1
  9
$PLINEGEN
 70
    0
  9
$PSLTSCALE
 70
    1
  9
$TREEDEPTH
 70
 3020
  9
$CMLSTYLE
  2
Standard
  9
$CMLJUST
 70
    0
  9
$CMLSCALE
 40
20
  9
$PROXYGRAPHICS
 70
    1
  9
$MEASUREMENT
 70
    1
  9
$CELWEIGHT
370
   -1
  9
$ENDCAPS
280
    0
  9
$JOINSTYLE
280
    0
  9
$LWDISPLAY
290
    0
  9
$INSUNITS
 70
    4
  9
$HYPERLINKBASE
  1

  9
$STYLESHEET
  1

  9
$XEDIT
290
    1
  9
$CEPSNTYPE
380
    0
  9
$PSTYLEMODE
290
    1
  9
$EXTNAMES
290
    1
  9
$PSVPSCALE
 40
1
  9
$OLESTARTUP
290
    0
  9
$SORTENTS
280
  127
  9
$INDEXCTL
280
    0
  9
$HIDETEXT
280
    1
  9
$XCLIPFRAME
290
    0
  9
$HALOGAP
280
    0
  9
$OBSCOLOR
 70
  257
  9
$OBSLTYPE
280
    0
  9
$INTERSECTIONDISPLAY
280
    0
  9
$INTERSECTIONCOLOR
 70
  257
  9
$DIMASSOC
280
    1
  9
$PROJECTNAME
  1

  9
$CAMERADISPLAY
290
    0
  9
$LENSLENGTH
 40
50
  9
$CAMERAHEIGHT
 40
0
  9
$STEPSPERSEC
 40
2
  9
$STEPSIZE
 40
50
  9
$3DDWFPREC
 40
2
  9
$PSOLWIDTH
 40
5
  9
$PSOLHEIGHT
 40
80
  9
$LOFTANG1
 40
1.570796326794897
  9
$LOFTANG2
 40
1.570796326794897
  9
$LOFTMAG1
 40
0
  9
$LOFTMAG2
 40
0
  9
$LOFTPARAM
 70
    7
  9
$LOFTNORMALS
280
    1
  9
$LATITUDE
 40
1
  9
$LONGITUDE
 40
1
  9
$NORTHDIRECTION
 40
0
  9
$TIMEZONE
 70
-8000
  9
$LIGHTGLYPHDISPLAY
280
    1
  9
$TILEMODELIGHTSYNCH
280
    1
  9
$SOLIDHIST
280
    1
  9
$SHOWHIST
280
    1
  9
$DWFFRAME
280
    2
  9
$DGNFRAME
280
    0
  9
$REALWORLDSCALE
290
    1
  9
$INTERFERECOLOR
 62
    1
  9
$CSHADOW
280
    0
  9
$SHADOWPLANELOCATION
 40
0
  0
ENDSEC
  0
SECTION
  2
CLASSES
  0
ENDSEC
  0
SECTION
  2
TABLES
  0
TABLE
  2
VPORT
  5
8
330
0
100
AcDbSymbolTable
 70
    1
  0
VPORT
  5
31
330
2
100
AcDbSymbolTableRecord
100
AcDbViewportTableRecord
  2
*ACTIVE
 70
    0
 10
0
 20
0
 11
1
 21
1
 12
88.85393360673922
 22
43.42107321536879
 13
0
 23
0
 14
10
 24
10
 15
10
 25
10
 16
0
 26
0
 36
1
 17
0
 27
0
 37
0
 40
136.1309322427778
 41
1.708128078817734
 42
50
 43
0
 44
0
 50
0
 51
0
 71
    0
 72
  100
 73
    1
 74
    3
 75
    0
 76
    0
 77
    0
 78
    0
281
    0
 65
    1
110
0
120
0
130
0
111
1
121
0
131
0
112
0
122
1
132
0
 79
    0
146
0
348
10020
 60
    7
 61
    5
292
1
282
    1
141
0
142
0
 63
  250
421
3358443
  0
ENDTAB
  0
TABLE
  2
LTYPE
  5
5
330
0
100
AcDbSymbolTable
 70
    4
  0
LTYPE
  5
14
330
5
100
AcDbSymbolTableRecord
100
AcDbLinetypeTableRecord
  2
ByBlock
 70
    0
  3

 72
   65
 73
    0
 40
0
  0
LTYPE
  5
15
330
5
100
AcDbSymbolTableRecord
100
AcDbLinetypeTableRecord
  2
ByLayer
 70
    0
  3

 72
   65
 73
    0
 40
0
  0
LTYPE
  5
16
330
5
100
AcDbSymbolTableRecord
100
AcDbLinetypeTableRecord
  2
Continuous
 70
    0
  3
Solid line
 72
   65
 73
    0
 40
0
  0
LTYPE
  5
32
330
5
100
AcDbSymbolTableRecord
100
AcDbLinetypeTableRecord
  2
DOT
 70
    0
  3
Dot . . . . . . . . . . . . . . . . . . . . . .
 72
   65
 73
    2
 40
6.35
 49
0
 74
    0
 49
-6.35
 74
    0
  0
LTYPE
  5
33
330
5
100
AcDbSymbolTableRecord
100
AcDbLinetypeTableRecord
  2
DOTTINY
 70
    0
  3
Dot (.15x) .....................................
 72
   65
 73
    2
 40
0.9525
 49
0
 74
    0
 49
-0.9525
 74
    0
  0
LTYPE
  5
34
330
5
100
AcDbSymbolTableRecord
100
AcDbLinetypeTableRecord
  2
DOT2
 70
    0
  3
Dot (.5x) .....................................
 72
   65
 73
    2
 40
3.175
 49
0
 74
    0
 49
-3.175
 74
    0
  0
LTYPE
  5
35
330
5
100
AcDbSymbolTableRecord
100
AcDbLinetypeTableRecord
  2
DOTX2
 70
    0
  3
Dot (2x) .  .  .  .  .  .  .  .  .  .  .  .  .
 72
   65
 73
    2
 40
12.7
 49
0
 74
    0
 49
-12.7
 74
    0
  0
LTYPE
  5
36
330
5
100
AcDbSymbolTableRecord
100
AcDbLinetypeTableRecord
  2
DASHED
 70
    0
  3
Dashed _ _ _ _ _ _ _ _ _ _ _ _ _ _ _ _ _
 72
   65
 73
    2
 40
19.05
 49
12.7
 74
    0
 49
-6.35
 74
    0
  0
LTYPE
  5
37
330
5
100
AcDbSymbolTableRecord
100
AcDbLinetypeTableRecord
  2
DASHEDTINY
 70
    0
  3
Dashed (.15x) _ _ _ _ _ _ _ _ _ _ _ _ _ _ _ _ _
 72
   65
 73
    2
 40
2.8575
 49
1.905
 74
    0
 49
-0.9525
 74
    0
  0
LTYPE
  5
38
330
5
100
AcDbSymbolTableRecord
100
AcDbLinetypeTableRecord
  2
DASHED2
 70
    0
  3
Dashed (.5x) _ _ _ _ _ _ _ _ _ _ _ _ _ _ _ _ _
 72
   65
 73
    2
 40
9.524999999999999
 49
6.35
 74
    0
 49
-3.175
 74
    0
  0
LTYPE
  5
39
330
5
100
AcDbSymbolTableRecord
100
AcDbLinetypeTableRecord
  2
DASHEDX2
 70
    0
  3
Dashed (2x) ____  ____  ____  ____  ____  ___
 72
   65
 73
    2
 40
38.09999999999999
 49
25.4
 74
    0
 49
-12.7
 74
    0
  0
LTYPE
  5
3A
330
5
100
AcDbSymbolTableRecord
100
AcDbLinetypeTableRecord
  2
DASHDOT
 70
    0
  3
Dash dot __ . __ . __ . __ . __ . __ . __ . __
 72
   65
 73
    4
 40
25.4
 49
12.7
 74
    0
 49
-6.35
 74
    0
 49
0
 74
    0
 49
-6.35
 74
    0
  0
LTYPE
  5
3B
330
5
100
AcDbSymbolTableRecord
100
AcDbLinetypeTableRecord
  2
DASHDOTTINY
 70
    0
  3
Dash dot (.15x) _._._._._._._._._._._._._._._.
 72
   65
 73
    4
 40
3.81
 49
1.905
 74
    0
 49
-0.9525
 74
    0
 49
0
 74
    0
 49
-0.9525
 74
    0
  0
LTYPE
  5
3C
330
5
100
AcDbSymbolTableRecord
100
AcDbLinetypeTableRecord
  2
DASHDOT2
 70
    0
  3
Dash dot (.5x) _._._._._._._._._._._._._._._.
 72
   65
 73
    4
 40
12.7
 49
6.35
 74
    0
 49
-3.175
 74
    0
 49
0
 74
    0
 49
-3.175
 74
    0
  0
LTYPE
  5
3D
330
5
100
AcDbSymbolTableRecord
100
AcDbLinetypeTableRecord
  2
DASHDOTX2
 70
    0
  3
Dash dot (2x) ____  .  ____  .  ____  .  ___
 72
   65
 73
    4
 40
50.8
 49
25.4
 74
    0
 49
-12.7
 74
    0
 49
0
 74
    0
 49
-12.7
 74
    0
  0
LTYPE
  5
3E
330
5
100
AcDbSymbolTableRecord
100
AcDbLinetypeTableRecord
  2
DIVIDE
 70
    0
  3
Divide ____ . . ____ . . ____ . . ____ . . ____
 72
   65
 73
    6
 40
31.75
 49
12.7
 74
    0
 49
-6.35
 74
    0
 49
0
 74
    0
 49
-6.35
 74
    0
 49
0
 74
    0
 49
-6.35
 74
    0
  0
LTYPE
  5
3F
330
5
100
AcDbSymbolTableRecord
100
AcDbLinetypeTableRecord
  2
DIVIDETINY
 70
    0
  3
Divide (.15x) __..__..__..__..__..__..__..__.._
 72
   65
 73
    6
 40
4.7625
 49
1.905
 74
    0
 49
-0.9525
 74
    0
 49
0
 74
    0
 49
-0.9525
 74
    0
 49
0
 74
    0
 49
-0.9525
 74
    0
  0
LTYPE
  5
40
330
5
100
AcDbSymbolTableRecord
100
AcDbLinetypeTableRecord
  2
DIVIDE2
 70
    0
  3
Divide (.5x) __..__..__..__..__..__..__..__.._
 72
   65
 73
    6
 40
15.875
 49
6.35
 74
    0
 49
-3.175
 74
    0
 49
0
 74
    0
 49
-3.175
 74
    0
 49
0
 74
    0
 49
-3.175
 74
    0
  0
LTYPE
  5
41
330
5
100
AcDbSymbolTableRecord
100
AcDbLinetypeTableRecord
  2
DIVIDEX2
 70
    0
  3
Divide (2x) ________  .  .  ________  .  .  _
 72
   65
 73
    6
 40
63.5
 49
25.4
 74
    0
 49
-12.7
 74
    0
 49
0
 74
    0
 49
-12.7
 74
    0
 49
0
 74
    0
 49
-12.7
 74
    0
  0
LTYPE
  5
42
330
5
100
AcDbSymbolTableRecord
100
AcDbLinetypeTableRecord
  2
BORDER
 70
    0
  3
Border __ __ . __ __ . __ __ . __ __ . __ __ .
 72
   65
 73
    6
 40
44.45
 49
12.7
 74
    0
 49
-6.35
 74
    0
 49
12.7
 74
    0
 49
-6.35
 74
    0
 49
0
 74
    0
 49
-6.35
 74
    0
  0
LTYPE
  5
43
330
5
100
AcDbSymbolTableRecord
100
AcDbLinetypeTableRecord
  2
BORDERTINY
 70
    0
  3
Border (.15x) __.__.__.__.__.__.__.__.__.__.__.
 72
   65
 73
    6
 40
6.6675
 49
1.905
 74
    0
 49
-0.9525
 74
    0
 49
1.905
 74
    0
 49
-0.9525
 74
    0
 49
0
 74
    0
 49
-0.9525
 74
    0
  0
LTYPE
  5
44
330
5
100
AcDbSymbolTableRecord
100
AcDbLinetypeTableRecord
  2
BORDER2
 70
    0
  3
Border (.5x) __.__.__.__.__.__.__.__.__.__.__.
 72
   65
 73
    6
 40
22.225
 49
6.35
 74
    0
 49
-3.175
 74
    0
 49
6.35
 74
    0
 49
-3.175
 74
    0
 49
0
 74
    0
 49
-3.175
 74
    0
  0
LTYPE
  5
45
330
5
100
AcDbSymbolTableRecord
100
AcDbLinetypeTableRecord
  2
BORDERX2
 70
    0
  3
Border (2x) ____  ____  .  ____  ____  .  ___
 72
   65
 73
    6
 40
88.89999999999999
 49
25.4
 74
    0
 49
-12.7
 74
    0
 49
25.4
 74
    0
 49
-12.7
 74
    0
 49
0
 74
    0
 49
-12.7
 74
    0
  0
LTYPE
  5
46
330
5
100
AcDbSymbolTableRecord
100
AcDbLinetypeTableRecord
  2
CENTER
 70
    0
  3
Center ____ _ ____ _ ____ _ ____ _ ____ _ ____
 72
   65
 73
    4
 40
50.8
 49
31.75
 74
    0
 49
-6.35
 74
    0
 49
6.35
 74
    0
 49
-6.35
 74
    0
  0
LTYPE
  5
47
330
5
100
AcDbSymbolTableRecord
100
AcDbLinetypeTableRecord
  2
CENTERTINY
 70
    0
  3
Center (.15x) ___ _ ___ _ ___ _ ___ _ ___ _ ___
 72
   65
 73
    4
 40
7.619999999999999
 49
4.7625
 74
    0
 49
-0.9525
 74
    0
 49
0.9525
 74
    0
 49
-0.9525
 74
    0
  0
LTYPE
  5
48
330
5
100
AcDbSymbolTableRecord
100
AcDbLinetypeTableRecord
  2
CENTER2
 70
    0
  3
Center (.5x) ___ _ ___ _ ___ _ ___ _ ___ _ ___
 72
   65
 73
    4
 40
28.575
 49
19.05
 74
    0
 49
-3.175
 74
    0
 49
3.175
 74
    0
 49
-3.175
 74
    0
  0
LTYPE
  5
49
330
5
100
AcDbSymbolTableRecord
100
AcDbLinetypeTableRecord
  2
CENTERX2
 70
    0
  3
Center (2x) ________  __  ________  __  _____
 72
   65
 73
    4
 40
101.6
 49
63.5
 74
    0
 49
-12.7
 74
    0
 49
12.7
 74
    0
 49
-12.7
 74
    0
  0
ENDTAB
  0
TABLE
  2
LAYER
  5
2
330
0
100
AcDbSymbolTable
 70
    1
  0
LAYER
  5
10
330
2
100
AcDbSymbolTableRecord
100
AcDbLayerTableRecord
  2
0
 70
    0
 62
    7
  6
CONTINUOUS
370
   -3
390
F
  0
LAYER
  5
4A
330
2
100
AcDbSymbolTableRecord
100
AcDbLayerTableRecord
  2
attache
 70
    1
 62
    7
  6
CONTINUOUS
370
    0
390
F
  0
LAYER
  5
4B
330
2
100
AcDbSymbolTableRecord
100
AcDbLayerTableRecord
  2
larger
 70
    1
 62
    7
  6
CONTINUOUS
370
    0
390
F
  0
LAYER
  5
4C
330
2
100
AcDbSymbolTableRecord
100
AcDbLayerTableRecord
  2
nez
 70
    1
 62
    7
  6
CONTINUOUS
370
    0
390
F
  0
ENDTAB
  0
TABLE
  2
STYLE
  5
3
330
0
100
AcDbSymbolTable
 70
    3
  0
STYLE
  5
4D
330
2
100
AcDbSymbolTableRecord
100
AcDbTextStyleTableRecord
  2
Standard
 70
    0
 40
0
 41
1
 50
0
 71
    0
 42
1
  3
txt
  4

  0
ENDTAB
  0
TABLE
  2
VIEW
  5
6
330
0
100
AcDbSymbolTable
 70
    0
  0
ENDTAB
  0
TABLE
  2
UCS
  5
7
330
0
100
AcDbSymbolTable
 70
    0
  0
ENDTAB
  0
TABLE
  2
APPID
  5
9
330
0
100
AcDbSymbolTable
 70
    1
  0
APPID
  5
12
330
9
100
AcDbSymbolTableRecord
100
AcDbRegAppTableRecord
  2
ACAD
 70
    0
  0
APPID
  5
4E
330
9
100
AcDbSymbolTableRecord
100
AcDbRegAppTableRecord
  2
LibreCad
 70
    0
  0
ENDTAB
  0
TABLE
  2
DIMSTYLE
  5
A
330
0
100
AcDbSymbolTable
 70
    1
100
AcDbDimStyleTable
 71
    1
  0
DIMSTYLE
105
4F
330
A
100
AcDbSymbolTableRecord
100
AcDbDimStyleTableRecord
  2
Standard
 70
    0
 40
1
 41
2.5
 42
0.625
 43
0.38
 44
1.25
 45
0
 46
0
 47
0
 48
0
 49
1
140
2.5
141
0.09
142
0
143
25.4
144
1
145
0
146
1
147
0.625
148
0
 71
    0
 72
    0
 73
    0
 74
    1
 75
    0
 76
    0
 77
    0
 78
    8
 79
    0
170
    0
171
    2
172
    0
173
    0
174
    0
175
    0
176
    0
177
    0
178
    0
179
    0
271
    4
272
    4
273
    2
274
    2
275
    0
276
    0
277
    2
278
   44
279
    0
280
    0
281
    0
282
    0
283
    1
284
    0
285
    0
286
    0
288
    0
289
    3
340
STANDARD
341

371
   -2
372
   -2
  0
ENDTAB
  0
TABLE
  2
BLOCK_RECORD
  5
1
330
0
100
AcDbSymbolTable
 70
    2
  0
BLOCK_RECORD
  5
1F
330
1
100
AcDbSymbolTableRecord
100
AcDbBlockTableRecord
  2
*Model_Space
 70
    0
280
    1
281
    0
  0
BLOCK_RECORD
  5
1E
330
1
100
AcDbSymbolTableRecord
100
AcDbBlockTableRecord
  2
*Paper_Space
 70
    0
280
    1
281
    0
  0
ENDTAB
  0
ENDSEC
  0
SECTION
  2
BLOCKS
  0
BLOCK
  5
20
330
1F
100
AcDbEntity
  8
0
100
AcDbBlockBegin
  2
*Model_Space
 70
    0
 10
0
 20
0
 30
0
  3
*Model_Space
  1

  0
ENDBLK
  5
21
330
1F
100
AcDbEntity
  8
0
100
AcDbBlockEnd
  0
BLOCK
  5
1C
330
1B
100
AcDbEntity
  8
0
100
AcDbBlockBegin
  2
*Paper_Space
 70
    0
 10
0
 20
0
 30
0
  3
*Paper_Space
  1

  0
ENDBLK
  5
1D
330
1F
100
AcDbEntity
  8
0
100
AcDbBlockEnd
  0
ENDSEC
  0
SECTION
  2
ENTITIES
  0
LWPOLYLINE
  5
50
100
AcDbEntity
  8
0
  6
ByLayer
 62
    7
370
   -1
100
AcDbPolyline
 90
   32
 70
    0
 43
0
 10
-3.019859249974488
 20
22.41468475002551
 10
-3.010192099157138
 20
22.80552872807258
 10
-2.986288828034979
 20
23.19599062226881
 10
-2.948306386022288
 20
23.58554924366453
 10
-2.896401722533319
 20
23.97368340331006
 10
-2.830731786982305
 20
24.35987191225571
 10
-2.751453528783529
 20
24.74359358155181
 10
-2.658723897351216
 20
25.12432722224867
 10
-2.552699842099635
 20
25.5015516453966
 10
-2.433538312443005
 20
25.87474566204592
 10
-2.301396257795638
 20
26.24338808324695
 10
-2.156430627571751
 20
26.60695772005002
 10
-1.998798371185593
 20
26.96493338350542
 10
-1.828656438051425
 20
27.31679388466348
 10
-1.646161777583501
 20
27.66201803457454
 10
-1.451471339196068
 20
28.00008464428888
 10
-1.244742072303374
 20
28.33047252485684
 10
-1.026130926319702
 20
28.65266048732872
 10
-0.79579485065927
 20
28.96612734275486
 10
-0.5538907947363398
 20
29.27035190218556
 10
-0.3005757079651588
 20
29.56481297667114
 10
-0.03600653976000245
 20
29.84898937726192
 10
0.239659760464896
 20
30.12235991500823
 10
0.5262662432952894
 20
30.38440340096035
 10
0.8236559593169019
 20
30.63459864616864
 10
1.131671959115501
 20
30.87242446168339
 10
1.450157293276824
 20
31.09735965855493
 10
1.778955012386618
 20
31.30888304783358
 10
2.117908167030635
 20
31.50647344056964
 10
2.466859807794627
 20
31.68960964781343
 10
2.825652985264334
 20
31.85777048061528
 10
3.194130750025508
 20
32.01043475002551
  0
LWPOLYLINE
  5
51
100
AcDbEntity
  8
0
  6
ByLayer
 62
    7
370
   -1
100
AcDbPolyline
 90
   32
 70
    0
 43
0
 10
3.194130750025508
 20
32.01043475002551
 10
3.599385042261418
 20
32.17645145070693
 10
4.006871040045985
 20
32.33613037420731
 10
4.416499554026717
 20
32.48963378496895
 10
4.828181394851126
 20
32.63712394743413
 10
5.241827373166725
 20
32.77876312604511
 10
5.657348299621025
 20
32.91471358524421
 10
6.074654984861533
 20
33.04513758947367
 10
6.493658239535763
 20
33.17019740317579
 10
6.914268874291225
 20
33.29005529079286
 10
7.33639769977543
 20
33.40487351676714
 10
7.759955526635893
 20
33.51481434554093
 10
8.184853165520121
 20
33.62004004155651
 10
8.611001427075623
 20
33.72071286925615
 10
9.038311121949913
 20
33.81699509308214
 10
9.466693060790503
 20
33.90904897747676
 10
9.8960580542449
 20
33.99703678688228
 10
10.32631691296062
 20
34.081120785741
 10
10.75738044758517
 20
34.16146323849519
 10
11.18915946876606
 20
34.23822640958713
 10
11.62156478715081
 20
34.3115725634591
 10
12.05450721338692
 20
34.38166396455339
 10
12.48789755812191
 20
34.44866287731227
 10
12.92164663200328
 20
34.51273156617805
 10
13.35566524567855
 20
34.57403229559297
 10
13.78986420979523
 20
34.63272732999933
 10
14.22415433500083
 20
34.68897893383942
 10
14.65844643194286
 20
34.74294937155551
 10
15.09265131126883
 20
34.79480090758988
 10
15.52667978362625
 20
34.84469580638481
 10
15.96044265966264
 20
34.8927963323826
 10
16.39385075002551
 20
34.93926475002552
  0
LWPOLYLINE
  5
52
100
AcDbEntity
  8
0
  6
ByLayer
 62
    7
370
   -1
100
AcDbPolyline
 90
   32
 70
    0
 43
0
 10
16.39385075002551
 20
34.93926475002552
 10
17.22658552965694
 20
35.01450418978921
 10
18.06084761350777
 20
35.0796194981038
 10
18.89642361901278
 20
35.13445615850458
 10
19.73310016360679
 20
35.17885965452688
 10
20.57066386472458
 20
35.21267546970595
 10
21.40890133980095
 20
35.23574908757713
 10
22.24759920627069
 20
35.24792599167568
 10
23.08654408156859
 20
35.24905166553691
 10
23.92552258312946
 20
35.23897159269611
 10
24.7643213283881
 20
35.21753125668859
 10
25.60272693477929
 20
35.18457614104965
 10
26.44052601973783
 20
35.13995172931456
 10
27.27750520069853
 20
35.08350350501863
 10
28.11345109509616
 20
35.01507695169716
 10
28.94815032036554
 20
34.93451755288544
 10
29.78138949394145
 20
34.84167079211876
 10
30.6129552332587
 20
34.73638215293243
 10
31.44263415575206
 20
34.61849711886174
 10
32.27021287885636
 20
34.48786117344198
 10
33.09547802000637
 20
34.34431980020845
 10
33.9182161966369
 20
34.18771848269645
 10
34.73821402618273
 20
34.01790270444128
 10
35.55525812607867
 20
33.83471794897822
 10
36.36913511375951
 20
33.63800969984257
 10
37.17963160666005
 20
33.42762344056964
 10
37.98653422221508
 20
33.20340465469471
 10
38.78962957785941
 20
32.96519882575308
 10
39.58870429102781
 20
32.71285143728005
 10
40.38354497915509
 20
32.44620797281092
 10
41.17393825967606
 20
32.16511391588098
 10
41.95967075002551
 20
31.86941475002551
  0
LWPOLYLINE
  5
53
100
AcDbEntity
  8
0
  6
ByLayer
 62
    7
370
   -1
100
AcDbPolyline
 90
   32
 70
    0
 43
0
 10
41.95967075002551
 20
31.86941475002551
 10
42.2502662526941
 20
31.73997156147864
 10
42.54469774744084
 20
31.60931411157767
 10
42.84223335953845
 20
31.47704928360949
 10
43.14214121425967
 20
31.342783960861
 10
43.44368943687724
 20
31.20612502661912
 10
43.74614615266389
 20
31.06667936417073
 10
44.04877948689234
 20
30.92405385680273
 10
44.35085756483535
 20
30.77785538780203
 10
44.65164851176563
 20
30.6276908404555
 10
44.95042045295592
 20
30.47316709805008
 10
45.24644151367896
 20
30.31389104387265
 10
45.53897981920748
 20
30.1494695612101
 10
45.8273034948142
 20
29.97950953334934
 10
46.11068066577187
 20
29.80361784357726
 10
46.38837945735322
 20
29.62140137518076
 10
46.65966799483098
 20
29.43246701144675
 10
46.92381440347789
 20
29.23642163566212
 10
47.18008680856668
 20
29.03287213111376
 10
47.42775333537007
 20
28.82142538108859
 10
47.66608210916081
 20
28.60168826887349
 10
47.89434125521164
 20
28.37326767775536
 10
48.11179889879527
 20
28.13577049102112
 10
48.31772316518445
 20
27.88880359195764
 10
48.5113821796519
 20
27.63197386385184
 10
48.69204406747038
 20
27.36488818999061
 10
48.85897695391259
 20
27.08715345366084
 10
49.01144896425128
 20
26.79837653814945
 10
49.14872822375919
 20
26.49816432674332
 10
49.27008285770903
 20
26.18612370272935
 10
49.37478099137357
 20
25.86186154939446
 10
49.46209075002551
 20
25.52498475002551
  0
LWPOLYLINE
  5
54
100
AcDbEntity
  8
0
  6
ByLayer
 62
    7
370
   -1
100
AcDbPolyline
 90
   32
 70
    0
 43
0
 10
49.46209075002551
 20
25.52498475002551
 10
49.51853972824041
 20
24.93377777442886
 10
49.55664711268537
 20
24.34374018354571
 10
49.57705422322211
 20
23.75490698123629
 10
49.58040237971233
 20
23.16731317136082
 10
49.56733290201772
 20
22.58099375777953
 10
49.53848711
 20
21.99598374435266
 10
49.49450632352086
 20
21.41231813494042
 10
49.43603186244201
 20
20.83003193340305
 10
49.36370504662516
 20
20.24916014360075
 10
49.27816719593199
 20
19.66973776939378
 10
49.18005963022423
 20
19.09179981464235
 10
49.07002366936356
 20
18.51538128320668
 10
48.94870063321171
 20
17.940517178947
 10
48.81673184163036
 20
17.36724250572355
 10
48.67475861448122
 20
16.79559226739654
 10
48.52342227162599
 20
16.22560146782619
 10
48.36336413292639
 20
15.65730511087276
 10
48.1952255182441
 20
15.09073820039644
 10
48.01964774744084
 20
14.52593574025747
 10
47.8372721403783
 20
13.96293273431607
 10
47.6487400169182
 20
13.40176418643249
 10
47.45469269692222
 20
12.84246510046693
 10
47.2557715002521
 20
12.28507048027962
 10
47.0526177467695
 20
11.7296153297308
 10
46.84587275633614
 20
11.17613465268069
 10
46.63617784881374
 20
10.6246634529895
 10
46.42417434406399
 20
10.07523673451748
 10
46.21050356194858
 20
9.527889501124847
 10
45.99580682232923
 20
8.982656756671824
 10
45.78072544506765
 20
8.439573505018641
 10
45.56590075002551
 20
7.898674750025512
  0
LWPOLYLINE
  5
55
100
AcDbEntity
  8
0
  6
ByLayer
 62
    7
370
   -1
100
AcDbPolyline
 90
   32
 70
    0
 43
0
 10
45.56590075002551
 20
7.898674750025512
 10
45.35859589386089
 20
7.440963122352725
 10
45.14118090174918
 20
6.985642352992853
 10
44.91367739632808
 20
6.533295870498137
 10
44.67610700023531
 20
6.084507103420833
 10
44.42849133610855
 20
5.639859480313184
 10
44.17085202658554
 20
5.19993642972744
 10
43.90321069430398
 20
4.765321380215841
 10
43.62558896190158
 20
4.33659776033064
 10
43.33800845201604
 20
3.914348998624082
 10
43.04049078728508
 20
3.499158523648422
 10
42.73305759034641
 20
3.091609763955898
 10
42.41573048383773
 20
2.692286148098759
 10
42.08853109039676
 20
2.301771104629253
 10
41.7514810326612
 20
1.920648062099634
 10
41.40460193326877
 20
1.549500449062137
 10
41.04791541485717
 20
1.188911694069017
 10
40.68144310006412
 20
0.839465225672523
 10
40.30520661152731
 20
0.5017444724248996
 10
39.91922757188446
 20
0.1763328628783931
 10
39.52352760377329
 20
-0.1361861744147497
 10
39.11812832983149
 20
-0.4352292109022819
 10
38.70305137269679
 20
-0.7202128180319498
 10
38.27831835500688
 20
-0.9905535672515136
 10
37.84395089939949
 20
-1.245668030008723
 10
37.39997062851231
 20
-1.484972777751327
 10
36.94639916498306
 20
-1.707884381927087
 10
36.48325813144943
 20
-1.913819413983749
 10
36.01056915054917
 20
-2.102194445369065
 10
35.52835384491995
 20
-2.272426047530793
 10
35.0366338371995
 20
-2.423930791916682
 10
34.53543075002551
 20
-2.556125249974489
  0
LWPOLYLINE
  5
56
100
AcDbEntity
  8
0
  6
ByLayer
 62
    7
370
   -1
100
AcDbPolyline
 90
   32
 70
    0
 43
0
 10
34.53543075002551
 20
-2.556125249974489
 10
33.73983014749454
 20
-2.799236594340236
 10
32.93951989439797
 20
-3.028705661508173
 10
32.13480280635124
 20
-3.244411776777884
 10
31.32598169896982
 20
-3.446234265448961
 10
30.51335938786915
 20
-3.634052452820985
 10
29.69723868866469
 20
-3.807745664193547
 10
28.8779224169719
 20
-3.967193224866232
 10
28.05571338840623
 20
-4.112274460138632
 10
27.23091441858313
 20
-4.242868695310328
 10
26.40382832311806
 20
-4.358855255680908
 10
25.57475791762646
 20
-4.460113466549963
 10
24.74400601772381
 20
-4.546522653217078
 10
23.91187543902554
 20
-4.617962140981838
 10
23.07866899714713
 20
-4.674311255143834
 10
22.24468950770401
 20
-4.715449321002648
 10
21.41023978631164
 20
-4.741255663857874
 10
20.57562264858548
 20
-4.751609609009094
 10
19.74114091014098
 20
-4.746390481755899
 10
18.90709738659361
 20
-4.72547760739787
 10
18.0737948935588
 20
-4.6887503112346
 10
17.24153624665201
 20
-4.636087918565671
 10
16.41062426148871
 20
-4.567369754690677
 10
15.58136175368434
 20
-4.482475144909198
 10
14.75405153885436
 20
-4.381283414520826
 10
13.92899643261422
 20
-4.263673888825149
 10
13.10649925057938
 20
-4.129525893121748
 10
12.28686280836529
 20
-3.978718752710215
 10
11.4703899215874
 20
-3.811131792890137
 10
10.65738340586118
 20
-3.626644338961096
 10
9.848146076802067
 20
-3.425135716222687
 10
9.042980750025507
 20
-3.206485249974488
  0
LWPOLYLINE
  5
57
100
AcDbEntity
  8
0
  6
ByLayer
 62
    7
370
   -1
100
AcDbPolyline
 90
   32
 70
    0
 43
0
 10
9.042980750025507
 20
-3.206485249974488
 10
8.675121699305492
 20
-3.094039692927058
 10
8.310168198583796
 20
-2.972112760296397
 10
7.948411208888928
 20
-2.840794543720921
 10
7.590141691249364
 20
-2.700175134839043
 10
7.235650606693632
 20
-2.550344625289181
 10
6.885228916250199
 20
-2.391393106709742
 10
6.539167580947606
 20
-2.223410670739149
 10
6.197757561814299
 20
-2.046487409015807
 10
5.86128981987882
 20
-1.860713413178139
 10
5.530055316169651
 20
-1.666178774864555
 10
5.204345011715283
 20
-1.46297358571347
 10
4.884449867544227
 20
-1.251187937363294
 10
4.570660844684973
 20
-1.03091192145245
 10
4.263268904166019
 20
-0.8022356296193465
 10
3.962565007015883
 20
-0.5652491535023998
 10
3.668840114263034
 20
-0.3200425847400226
 10
3.382385186935984
 20
-0.06670601497063089
 10
3.103491186063238
 20
0.1946704641673662
 10
2.832449072673292
 20
0.4639967610355491
 10
2.569549807794637
 20
0.7411827839955016
 10
2.315084352455777
 20
1.026138441408815
 10
2.06934366768521
 20
1.318773641637069
 10
1.832618714511426
 20
1.618998293041859
 10
1.605200453962944
 20
1.926722303984757
 10
1.387379847068239
 20
2.241855582827359
 10
1.179447854855837
 20
2.564308037931252
 10
0.9816954383542011
 20
2.893989577658015
 10
0.7944135585918559
 20
3.230810110369234
 10
0.6178931765973061
 20
3.574679544426498
 10
0.4524252533990136
 20
3.925507788191393
 10
0.2983007500255113
 20
4.283204750025515
  0
LWPOLYLINE
  5
58
100
AcDbEntity
  8
0
  6
ByLayer
 62
    7
370
   -1
100
AcDbPolyline
 90
   32
 70
    0
 43
0
 10
0.2983007500255113
 20
4.283204750025515
 10
0.03760539706655663
 20
4.82767801644826
 10
-0.2110370372256796
 20
5.376620558826833
 10
-0.4478136966194555
 20
5.929848749891246
 10
-0.6729117248830292
 20
6.487178962371527
 10
-0.8865182657846233
 20
7.048427568997687
 10
-1.088820463092553
 20
7.613410942499753
 10
-1.280005460575012
 20
8.181945455607737
 10
-1.460260402000266
 20
8.753847481051663
 10
-1.629772431136587
 20
9.328933391561547
 10
-1.788728691752198
 20
9.907019559867409
 10
-1.937316327615385
 20
10.48792235869927
 10
-2.075722482494378
 20
11.07145816078715
 10
-2.204134300157435
 20
11.65744333886107
 10
-2.322738924372807
 20
12.24569426565104
 10
-2.431723498908738
 20
12.83602731388708
 10
-2.531275167533487
 20
13.42825885629921
 10
-2.62158107401531
 20
14.02220526561747
 10
-2.702828362122453
 20
14.61768291457185
 10
-2.775204175623173
 20
15.21450817589238
 10
-2.838895658285729
 20
15.81249742230908
 10
-2.894089953878357
 20
16.41146702655197
 10
-2.940974206169322
 20
17.01123336135107
 10
-2.979735558926862
 20
17.6116127994364
 10
-3.010561155919241
 20
18.21242171353798
 10
-3.033638140914711
 20
18.81347647638582
 10
-3.049153657681508
 20
19.41459346070994
 10
-3.057294849987919
 20
20.01558903924037
 10
-3.058248861602159
 20
20.61627958470712
 10
-3.052202836292501
 20
21.21648146984021
 10
-3.039343917827196
 20
21.81601106736967
 10
-3.019859249974488
 20
22.41468475002551
  0
LWPOLYLINE
  5
59
100
AcDbEntity
  8
0
  6
ByLayer
 62
    7
370
   -1
100
AcDbPolyline
 90
    1
 70
    1
 43
0
 10
-3.019859249974488
 20
22.41468475002551
  0
LWPOLYLINE
  5
5A
100
AcDbEntity
  8
0
  6
ByLayer
 62
    7
370
   -1
100
AcDbPolyline
 90
   32
 70
    0
 43
0
 10
0.1718350702354172
 20
34.53608002253829
 10
0.637877506306714
 20
34.72699922832192
 10
1.106486403758965
 20
34.91062999034736
 10
1.577559194836807
 20
35.08715891272324
 10
2.050993311784879
 20
35.2567725995582
 10
2.526686186847817
 20
35.41965765496083
 10
3.004535252270261
 20
35.57600068303979
 10
3.484437940296846
 20
35.72598828790367
 10
3.966291683172211
 20
35.86980707366111
 10
4.449993913140992
 20
36.00764364442073
 10
4.93544206244783
 20
36.13968460429116
 10
5.42253356333736
 20
36.26611655738103
 10
5.911165848054221
 20
36.38712610779893
 10
6.401236348843049
 20
36.50289985965352
 10
6.892642497948485
 20
36.61362441705342
 10
7.385281727615163
 20
36.71948638410722
 10
7.879051470087719
 20
36.82067236492357
 10
8.373849157610797
 20
36.9173689636111
 10
8.869572222429031
 20
37.00976278427841
 10
9.366118096787059
 20
37.09804043103414
 10
9.863384212929516
 20
37.18238850798691
 10
10.36126800310105
 20
37.26299361924535
 10
10.85966689954628
 20
37.34004236891807
 10
11.35847833450986
 20
37.4137213611137
 10
11.85759974023642
 20
37.48421719994086
 10
12.3569285489706
 20
37.55171648950818
 10
12.85636219295704
 20
37.61640583392428
 10
13.35579810444037
 20
37.67847183729778
 10
13.85513371566524
 20
37.73810110373731
 10
14.35426645887627
 20
37.79548023735148
 10
14.85309376631812
 20
37.85079584224894
 10
15.35151307023542
 20
37.90423452253829
  0
LWPOLYLINE
  5
5B
100
AcDbEntity
  8
0
  6
ByLayer
 62
    7
370
   -1
100
AcDbPolyline
 90
   32
 70
    0
 43
0
 10
15.35151307023542
 20
37.90423452253829
 10
16.30915806681156
 20
37.99075987826653
 10
17.26855946324002
 20
38.06564248282831
 10
18.22947186957079
 20
38.12870464228923
 10
19.1916498958539
 20
38.17976866271485
 10
20.15484815213935
 20
38.2186568501708
 10
21.11882124847717
 20
38.24519151072264
 10
22.08332379491737
 20
38.25919495043597
 10
23.04811040150997
 20
38.2604894753764
 10
24.01293567830496
 20
38.24889739160947
 10
24.9775542353524
 20
38.22424100520083
 10
25.94172068270227
 20
38.18634262221604
 10
26.90518963040459
 20
38.13502454872069
 10
27.86771568850939
 20
38.07010909078037
 10
28.82905346706667
 20
37.99141855446069
 10
29.78895757612645
 20
37.8987752458272
 10
30.74718262573875
 20
37.79200147094552
 10
31.70348322595358
 20
37.67091953588125
 10
32.65761398682096
 20
37.53535174669994
 10
33.60932951839089
 20
37.38512040946723
 10
34.5583844307134
 20
37.22004783024867
 10
35.50453333383851
 20
37.03995631510988
 10
36.44753083781622
 20
36.84466817011642
 10
37.38713155269655
 20
36.6340057013339
 10
38.32309008852952
 20
36.40779121482791
 10
39.25516105536514
 20
36.16584701666403
 10
40.18309906325342
 20
35.90799541290787
 10
41.1066587222444
 20
35.63405870962499
 10
42.02559464238807
 20
35.34385921288101
 10
42.93966143373444
 20
35.03721922874151
 10
43.84861370633354
 20
34.71396106327207
 10
44.75220607023542
 20
34.37390702253829
  0
LWPOLYLINE
  5
5C
100
AcDbEntity
  8
0
  6
ByLayer
 62
    7
370
   -1
100
AcDbPolyline
 90
   32
 70
    0
 43
0
 10
48.89937057023541
 20
6.807556022538293
 10
48.6609699856461
 20
6.281187650714588
 10
48.41094274471764
 20
5.757568765950734
 10
48.14931371348338
 20
5.237370311081814
 10
47.87610775797667
 20
4.721263228942912
 10
47.59134974423091
 20
4.209918462369115
 10
47.29506453827945
 20
3.704006954195505
 10
46.98727700615565
 20
3.204199647257169
 10
46.6680120138929
 20
2.711167484389189
 10
46.33729442752452
 20
2.225581408426649
 10
45.99514911308392
 20
1.748112362204637
 10
45.64160093660445
 20
1.279431288558234
 10
45.27667476411948
 20
0.820209130322526
 10
44.90039546166236
 20
0.3711168303325965
 10
44.51278789526646
 20
-0.0671746685764697
 10
44.11387693096517
 20
-0.4939944235695882
 10
43.70368743479182
 20
-0.9086714918116742
 10
43.28224427277981
 20
-1.310534930467644
 10
42.84957231096249
 20
-1.698913796702413
 10
42.40569641537321
 20
-2.073137147680896
 10
41.95064145204536
 20
-2.432534040568009
 10
41.4844322870123
 20
-2.776433532528668
 10
41.00709378630739
 20
-3.104164680727789
 10
40.51865081596399
 20
-3.415056542330286
 10
40.01912824201549
 20
-3.708438174501075
 10
39.50855093049523
 20
-3.983638634405073
 10
38.9869437474366
 20
-4.239986979207194
 10
38.45433155887294
 20
-4.476812266072356
 10
37.91073923083762
 20
-4.693443552165471
 10
37.35619162936403
 20
-4.889209894651456
 10
36.7907136204855
 20
-5.063440350695228
 10
36.21433007023542
 20
-5.215463977461704
  0
LWPOLYLINE
  5
5D
100
AcDbEntity
  8
0
  6
ByLayer
 62
    7
370
   -1
100
AcDbPolyline
 90
   32
 70
    0
 43
0
 10
36.21433007023542
 20
-5.215463977461704
 10
35.29938937732481
 20
-5.495042023482315
 10
34.37903258626376
 20
-5.758931450725442
 10
33.45360793501002
 20
-6.006993483285611
 10
32.52346366152138
 20
-6.239089345257348
 10
31.58894800375561
 20
-6.455080260735176
 10
30.65040919967048
 20
-6.654827453813624
 10
29.70819548722377
 20
-6.838192148587212
 10
28.76265510437325
 20
-7.005035569150471
 10
27.81413628907668
 20
-7.15521893959792
 10
26.86298727929184
 20
-7.288603484024088
 10
25.90955631297652
 20
-7.405050426523502
 10
24.95419162808847
 20
-7.504420991190684
 10
23.99724146258546
 20
-7.586576402120159
 10
23.03905405442528
 20
-7.651377883406453
 10
22.07997764156569
 20
-7.698686659144093
 10
21.12036046196447
 20
-7.728363953427602
 10
20.16055075357939
 20
-7.740270990351505
 10
19.20089675436822
 20
-7.734268994010328
 10
18.24174670228873
 20
-7.710219188498597
 10
17.2834488352987
 20
-7.667982797910835
 10
16.3263513913559
 20
-7.60742104634157
 10
15.3708026084181
 20
-7.528395157885326
 10
14.41715072444308
 20
-7.430766356636626
 10
13.4657439773886
 20
-7.314395866689998
 10
12.51693060521244
 20
-7.179144912139966
 10
11.57105884587237
 20
-7.024874717081056
 10
10.62847693732617
 20
-6.851446505607793
 10
9.689533117531596
 20
-6.658721501814702
 10
8.754575624446437
 20
-6.446560929796307
 10
7.823952696028459
 20
-6.214826013647135
 10
6.898012570235416
 20
-5.963377977461706
  0
LWPOLYLINE
  5
5E
100
AcDbEntity
  8
0
  6
ByLayer
 62
    7
370
   -1
100
AcDbPolyline
 90
   32
 70
    0
 43
0
 10
6.898012570235416
 20
-5.963377977461706
 10
6.474974661907399
 20
-5.834065586857162
 10
6.055278136077451
 20
-5.693849614331901
 10
5.639257597928345
 20
-5.542833665270105
 10
5.227247652642856
 20
-5.381121345055946
 10
4.819582905403757
 20
-5.208816259073601
 10
4.416597961393823
 20
-5.026022012707251
 10
4.018627425795823
 20
-4.832842211341065
 10
3.626005903792533
 20
-4.629380460359225
 10
3.239068000566727
 20
-4.415740365145905
 10
2.858148321301178
 20
-4.192025531085283
 10
2.483581471178658
 20
-3.958339563561535
 10
2.115702055381941
 20
-3.714786067958836
 10
1.754844679093801
 20
-3.461468649661363
 10
1.401343947497011
 20
-3.198490914053294
 10
1.055534465774343
 20
-2.925956466518804
 10
0.7177508391085722
 20
-2.64396891244207
 10
0.3883276726824706
 20
-2.352631857207268
 10
0.06759957167881214
 20
-2.052048906198574
 10
-0.24409885871963
 20
-1.742323664800165
 10
-0.5464330133300824
 20
-1.423559738396218
 10
-0.8390682869697719
 20
-1.095860732370908
 10
-1.121670074455925
 20
-0.7593302521084134
 10
-1.393903770605769
 20
-0.414071902992909
 10
-1.65543477023653
 20
-0.06018929040857146
 10
-1.905928468165434
 20
0.3022139802604222
 10
-2.145050259209708
 20
0.6730343036298956
 10
-2.372465538186581
 20
1.052168074315673
 10
-2.587839699913276
 20
1.439511686933577
 10
-2.790838139207022
 20
1.834961536099432
 10
-2.981126250885046
 20
2.238414016429062
 10
-3.158369429764576
 20
2.649765522538297
  0
LWPOLYLINE
  5
5F
100
AcDbEntity
  8
0
  6
ByLayer
 62
    7
370
   -1
100
AcDbPolyline
 90
   32
 70
    0
 43
0
 10
120.9440407500255
 20
22.41468475002551
 10
120.9343735992082
 20
22.80552872807258
 10
120.910470328086
 20
23.19599062226881
 10
120.8724878860733
 20
23.58554924366453
 10
120.8205832225843
 20
23.97368340331006
 10
120.7549132870333
 20
24.35987191225572
 10
120.6756350288346
 20
24.74359358155181
 10
120.5829053974022
 20
25.12432722224867
 10
120.4768813421507
 20
25.5015516453966
 10
120.357719812494
 20
25.87474566204592
 10
120.2255777578467
 20
26.24338808324695
 10
120.0806121276228
 20
26.60695772005002
 10
119.9229798712366
 20
26.96493338350542
 10
119.7528379381025
 20
27.31679388466349
 10
119.5703432776345
 20
27.66201803457454
 10
119.3756528392471
 20
28.00008464428888
 10
119.1689235723544
 20
28.33047252485683
 10
118.9503124263707
 20
28.65266048732872
 10
118.7199763507103
 20
28.96612734275486
 10
118.4780722947874
 20
29.27035190218556
 10
118.2247572080162
 20
29.56481297667114
 10
117.960188039811
 20
29.84898937726192
 10
117.6845217395861
 20
30.12235991500822
 10
117.3979152567557
 20
30.38440340096035
 10
117.1005255407341
 20
30.63459864616864
 10
116.7925095409355
 20
30.87242446168339
 10
116.4740242067742
 20
31.09735965855493
 10
116.1452264876644
 20
31.30888304783357
 10
115.8062733330204
 20
31.50647344056963
 10
115.4573216922564
 20
31.68960964781343
 10
115.0985285147867
 20
31.85777048061528
 10
114.7300507500255
 20
32.01043475002551
  0
LWPOLYLINE
  5
60
100
AcDbEntity
  8
0
  6
ByLayer
 62
    7
370
   -1
100
AcDbPolyline
 90
   32
 70
    0
 43
0
 10
114.7300507500255
 20
32.01043475002551
 10
114.3247964577896
 20
32.17645145070693
 10
113.917310460005
 20
32.33613037420731
 10
113.5076819460243
 20
32.48963378496895
 10
113.0960001051999
 20
32.63712394743413
 10
112.6823541268843
 20
32.77876312604511
 10
112.26683320043
 20
32.91471358524421
 10
111.8495265151895
 20
33.04513758947367
 10
111.4305232605153
 20
33.17019740317579
 10
111.0099126257598
 20
33.29005529079286
 10
110.5877838002756
 20
33.40487351676714
 10
110.1642259734151
 20
33.51481434554093
 10
109.7393283345309
 20
33.62004004155651
 10
109.3131800729754
 20
33.72071286925615
 10
108.8858703781011
 20
33.81699509308214
 10
108.4574884392605
 20
33.90904897747676
 10
108.0281234458061
 20
33.99703678688228
 10
107.5978645870904
 20
34.081120785741
 10
107.1668010524658
 20
34.16146323849519
 10
106.735022031285
 20
34.23822640958713
 10
106.3026167129002
 20
34.3115725634591
 10
105.8696742866641
 20
34.38166396455339
 10
105.4362839419291
 20
34.44866287731227
 10
105.0025348680477
 20
34.51273156617805
 10
104.5685162543725
 20
34.57403229559297
 10
104.1343172902558
 20
34.63272732999933
 10
103.7000271650502
 20
34.68897893383942
 10
103.2657350681082
 20
34.74294937155551
 10
102.8315301887822
 20
34.79480090758988
 10
102.3975017164248
 20
34.84469580638481
 10
101.9637388403884
 20
34.8927963323826
 10
101.5303307500255
 20
34.93926475002552
  0
LWPOLYLINE
  5
61
100
AcDbEntity
  8
0
  6
ByLayer
 62
    7
370
   -1
100
AcDbPolyline
 90
   32
 70
    0
 43
0
 10
101.5303307500255
 20
34.93926475002552
 10
100.6975959703941
 20
35.01450418978921
 10
99.86333388654327
 20
35.0796194981038
 10
99.02775788103823
 20
35.13445615850458
 10
98.19108133644424
 20
35.17885965452687
 10
97.35351763532643
 20
35.21267546970595
 10
96.51528016025007
 20
35.23574908757712
 10
95.67658229378033
 20
35.24792599167567
 10
94.83763741848243
 20
35.2490516655369
 10
93.99865891692156
 20
35.2389715926961
 10
93.15986017166291
 20
35.21753125668858
 10
92.32145456527175
 20
35.18457614104965
 10
91.48365548031317
 20
35.13995172931455
 10
90.64667629935249
 20
35.08350350501862
 10
89.81073040495485
 20
35.01507695169715
 10
88.97603117968548
 20
34.93451755288543
 10
88.14279200610957
 20
34.84167079211876
 10
87.31122626679233
 20
34.73638215293243
 10
86.48154734429897
 20
34.61849711886173
 10
85.65396862119468
 20
34.48786117344198
 10
84.82870348004465
 20
34.34431980020845
 10
84.00596530341413
 20
34.18771848269645
 10
83.18596747386829
 20
34.01790270444128
 10
82.36892337397235
 20
33.83471794897822
 10
81.55504638629151
 20
33.63800969984257
 10
80.74454989339097
 20
33.42762344056963
 10
79.93764727783594
 20
33.20340465469471
 10
79.13455192219162
 20
32.96519882575308
 10
78.33547720902321
 20
32.71285143728005
 10
77.54063652089592
 20
32.44620797281092
 10
76.75024324037496
 20
32.16511391588098
 10
75.96451075002551
 20
31.86941475002551
  0
LWPOLYLINE
  5
62
100
AcDbEntity
  8
0
  6
ByLayer
 62
    7
370
   -1
100
AcDbPolyline
 90
   32
 70
    0
 43
0
 10
75.96451075002551
 20
31.86941475002551
 10
75.67391524735694
 20
31.73997156147864
 10
75.37948375261018
 20
31.60931411157767
 10
75.08194814051258
 20
31.47704928360949
 10
74.78204028579135
 20
31.34278396086101
 10
74.48049206317378
 20
31.20612502661912
 10
74.17803534738714
 20
31.06667936417073
 10
73.87540201315868
 20
30.92405385680273
 10
73.57332393521568
 20
30.77785538780202
 10
73.27253298828539
 20
30.62769084045551
 10
72.97376104709508
 20
30.47316709805008
 10
72.67773998637205
 20
30.31389104387265
 10
72.38520168084355
 20
30.1494695612101
 10
72.09687800523682
 20
29.97950953334934
 10
71.81350083427915
 20
29.80361784357726
 10
71.5358020426978
 20
29.62140137518076
 10
71.26451350522004
 20
29.43246701144675
 10
71.00036709657313
 20
29.23642163566212
 10
70.74409469148435
 20
29.03287213111376
 10
70.49642816468095
 20
28.82142538108859
 10
70.25809939089021
 20
28.60168826887349
 10
70.02984024483939
 20
28.37326767775537
 10
69.81238260125576
 20
28.13577049102112
 10
69.60645833486657
 20
27.88880359195765
 10
69.41279932039912
 20
27.63197386385184
 10
69.23213743258066
 20
27.36488818999061
 10
69.06520454613843
 20
27.08715345366084
 10
68.91273253579975
 20
26.79837653814945
 10
68.77545327629184
 20
26.49816432674332
 10
68.65409864234198
 20
26.18612370272935
 10
68.54940050867745
 20
25.86186154939445
 10
68.46209075002551
 20
25.52498475002551
  0
LWPOLYLINE
  5
63
100
AcDbEntity
  8
0
  6
ByLayer
 62
    7
370
   -1
100
AcDbPolyline
 90
   32
 70
    0
 43
0
 10
68.46209075002551
 20
25.52498475002551
 10
68.40564177181062
 20
24.93377777442886
 10
68.36753438736565
 20
24.34374018354571
 10
68.34712727682891
 20
23.75490698123628
 10
68.3437791203387
 20
23.16731317136082
 10
68.3568485980333
 20
22.58099375777953
 10
68.38569439005101
 20
21.99598374435266
 10
68.42967517653015
 20
21.41231813494042
 10
68.488149637609
 20
20.83003193340305
 10
68.56047645342585
 20
20.24916014360075
 10
68.64601430411902
 20
19.66973776939378
 10
68.74412186982678
 20
19.09179981464234
 10
68.85415783068746
 20
18.51538128320668
 10
68.97548086683931
 20
17.940517178947
 10
69.10744965842066
 20
17.36724250572354
 10
69.2494228855698
 20
16.79559226739653
 10
69.40075922842502
 20
16.22560146782619
 10
69.56081736712463
 20
15.65730511087275
 10
69.72895598180692
 20
15.09073820039644
 10
69.90453375261018
 20
14.52593574025747
 10
70.08690935967272
 20
13.96293273431607
 10
70.27544148313282
 20
13.40176418643249
 10
70.4694888031288
 20
12.84246510046693
 10
70.66840999979894
 20
12.28507048027962
 10
70.87156375328152
 20
11.7296153297308
 10
71.07830874371487
 20
11.17613465268068
 10
71.28800365123728
 20
10.6246634529895
 10
71.50000715598705
 20
10.07523673451748
 10
71.71367793810245
 20
9.527889501124848
 10
71.92837467772179
 20
8.982656756671826
 10
72.14345605498339
 20
8.439573505018643
 10
72.35828075002551
 20
7.898674750025515
  0
LWPOLYLINE
  5
64
100
AcDbEntity
  8
0
  6
ByLayer
 62
    7
370
   -1
100
AcDbPolyline
 90
   32
 70
    0
 43
0
 10
72.35828075002551
 20
7.898674750025515
 10
72.56558560619014
 20
7.440963122352728
 10
72.78300059830184
 20
6.985642352992856
 10
73.01050410372294
 20
6.533295870498142
 10
73.24807449981573
 20
6.084507103420836
 10
73.49569016394246
 20
5.639859480313185
 10
73.75332947346548
 20
5.19993642972744
 10
74.02097080574703
 20
4.765321380215842
 10
74.29859253814945
 20
4.336597760330642
 10
74.58617304803498
 20
3.914348998624086
 10
74.88369071276593
 20
3.499158523648423
 10
75.19112390970461
 20
3.091609763955899
 10
75.50845101621329
 20
2.692286148098762
 10
75.83565040965426
 20
2.301771104629258
 10
76.17270046738982
 20
1.920648062099636
 10
76.51957956678224
 20
1.549500449062141
 10
76.87626608519386
 20
1.188911694069022
 10
77.24273839998691
 20
0.839465225672527
 10
77.61897488852372
 20
0.5017444724249017
 10
78.00495392816656
 20
0.1763328628783946
 10
78.40065389627773
 20
-0.1361861744147477
 10
78.80605317021953
 20
-0.4352292109022775
 10
79.22113012735424
 20
-0.7202128180319476
 10
79.64586314504413
 20
-0.9905535672515111
 10
80.08023060065153
 20
-1.24566803000872
 10
80.52421087153871
 20
-1.484972777751327
 10
80.97778233506796
 20
-1.707884381927085
 10
81.44092336860159
 20
-1.913819413983748
 10
81.91361234950186
 20
-2.102194445369066
 10
82.39582765513106
 20
-2.272426047530793
 10
82.88754766285152
 20
-2.423930791916683
 10
83.38875075002551
 20
-2.556125249974489
  0
LWPOLYLINE
  5
65
100
AcDbEntity
  8
0
  6
ByLayer
 62
    7
370
   -1
100
AcDbPolyline
 90
   32
 70
    0
 43
0
 10
83.38875075002551
 20
-2.556125249974489
 10
84.18435135255648
 20
-2.799236594340238
 10
84.98466160565306
 20
-3.028705661508174
 10
85.78937869369977
 20
-3.244411776777886
 10
86.59819980108121
 20
-3.446234265448961
 10
87.41082211218186
 20
-3.634052452820986
 10
88.22694281138634
 20
-3.807745664193548
 10
89.04625908307912
 20
-3.967193224866234
 10
89.8684681116448
 20
-4.112274460138631
 10
90.69326708146788
 20
-4.242868695310328
 10
91.52035317693294
 20
-4.358855255680909
 10
92.34942358242456
 20
-4.460113466549963
 10
93.1801754823272
 20
-4.546522653217077
 10
94.01230606102548
 20
-4.617962140981838
 10
94.84551250290389
 20
-4.674311255143833
 10
95.67949199234701
 20
-4.71544932100265
 10
96.51394171373938
 20
-4.741255663857874
 10
97.34855885146553
 20
-4.751609609009094
 10
98.18304058991004
 20
-4.746390481755897
 10
99.01708411345741
 20
-4.725477607397869
 10
99.85038660649221
 20
-4.688750311234599
 10
100.682645253399
 20
-4.636087918565671
 10
101.5135572385623
 20
-4.567369754690676
 10
102.3428197463667
 20
-4.482475144909198
 10
103.1701299611967
 20
-4.381283414520825
 10
103.9951850674368
 20
-4.263673888825146
 10
104.8176822494716
 20
-4.129525893121745
 10
105.6373186916857
 20
-3.978718752710211
 10
106.4537915784636
 20
-3.811131792890132
 10
107.2667980941898
 20
-3.626644338961092
 10
108.076035423249
 20
-3.425135716222681
 10
108.8812007500255
 20
-3.206485249974481
  0
LWPOLYLINE
  5
66
100
AcDbEntity
  8
0
  6
ByLayer
 62
    7
370
   -1
100
AcDbPolyline
 90
   32
 70
    0
 43
0
 10
108.8812007500255
 20
-3.206485249974481
 10
109.2490598007455
 20
-3.094039692927051
 10
109.6140133014672
 20
-2.972112760296391
 10
109.9757702911621
 20
-2.840794543720916
 10
110.3340398088017
 20
-2.70017513483904
 10
110.6885308933574
 20
-2.550344625289175
 10
111.0389525838008
 20
-2.391393106709739
 10
111.3850139191034
 20
-2.223410670739144
 10
111.7264239382367
 20
-2.046487409015805
 10
112.0628916801722
 20
-1.860713413178136
 10
112.3941261838814
 20
-1.666178774864552
 10
112.7198364883357
 20
-1.462973585713467
 10
113.0397316325068
 20
-1.251187937363294
 10
113.3535206553661
 20
-1.030911921452449
 10
113.660912595885
 20
-0.8022356296193452
 10
113.9616164930351
 20
-0.5652491535023978
 10
114.255341385788
 20
-0.3200425847400205
 10
114.541796313115
 20
-0.06670601497062734
 10
114.8206903139878
 20
0.1946704641673672
 10
115.0917324273777
 20
0.4639967610355483
 10
115.3546316922564
 20
0.7411827839955024
 10
115.6090971475953
 20
1.026138441408815
 10
115.8548378323658
 20
1.318773641637071
 10
116.0915627855396
 20
1.618998293041858
 10
116.3189810460881
 20
1.926722303984759
 10
116.5368016529828
 20
2.241855582827363
 10
116.7447336451952
 20
2.564308037931252
 10
116.9424860616968
 20
2.893989577658016
 10
117.1297679414592
 20
3.230810110369236
 10
117.3062883234537
 20
3.574679544426502
 10
117.471756246652
 20
3.925507788191397
 10
117.6258807500255
 20
4.283204750025515
  0
LWPOLYLINE
  5
67
100
AcDbEntity
  8
0
  6
ByLayer
 62
    7
370
   -1
100
AcDbPolyline
 90
   32
 70
    0
 43
0
 10
117.6258807500255
 20
4.283204750025515
 10
117.8865761029845
 20
4.82767801644826
 10
118.1352185372767
 20
5.376620558826832
 10
118.3719951966705
 20
5.929848749891247
 10
118.597093224934
 20
6.487178962371525
 10
118.8106997658357
 20
7.048427568997687
 10
119.0130019631436
 20
7.613410942499752
 10
119.204186960626
 20
8.181945455607737
 10
119.3844419020513
 20
8.753847481051663
 10
119.5539539311876
 20
9.328933391561547
 10
119.7129101918032
 20
9.907019559867409
 10
119.8614978276664
 20
10.48792235869927
 10
119.9999039825454
 20
11.07145816078715
 10
120.1283158002085
 20
11.65744333886107
 10
120.2469204244238
 20
12.24569426565104
 10
120.3559049989597
 20
12.83602731388708
 10
120.4554566675845
 20
13.42825885629922
 10
120.5457625740663
 20
14.02220526561747
 10
120.6270098621735
 20
14.61768291457185
 10
120.6993856756742
 20
15.21450817589238
 10
120.7630771583367
 20
15.81249742230908
 10
120.8182714539294
 20
16.41146702655197
 10
120.8651557062203
 20
17.01123336135107
 10
120.9039170589779
 20
17.6116127994364
 10
120.9347426559703
 20
18.21242171353797
 10
120.9578196409657
 20
18.81347647638582
 10
120.9733351577325
 20
19.41459346070994
 10
120.9814763500389
 20
20.01558903924037
 10
120.9824303616532
 20
20.61627958470712
 10
120.9763843363435
 20
21.21648146984021
 10
120.9635254178782
 20
21.81601106736966
 10
120.9440407500255
 20
22.41468475002551
  0
LWPOLYLINE
  5
68
100
AcDbEntity
  8
0
  6
ByLayer
 62
    7
370
   -1
100
AcDbPolyline
 90
    1
 70
    1
 43
0
 10
120.9440407500255
 20
22.41468475002551
  0
LWPOLYLINE
  5
69
100
AcDbEntity
  8
0
  6
ByLayer
 62
    7
370
   -1
100
AcDbPolyline
 90
   32
 70
    0
 43
0
 10
117.7523464298156
 20
34.53608002253829
 10
117.2863039937443
 20
34.72699922832192
 10
116.8176950962921
 20
34.91062999034736
 10
116.3466223052142
 20
35.08715891272324
 10
115.8731881882661
 20
35.2567725995582
 10
115.3974953132032
 20
35.41965765496083
 10
114.9196462477808
 20
35.57600068303979
 10
114.4397435597542
 20
35.72598828790367
 10
113.9578898168788
 20
35.86980707366111
 10
113.47418758691
 20
36.00764364442073
 10
112.9887394376032
 20
36.13968460429115
 10
112.5016479367137
 20
36.26611655738103
 10
112.0130156519968
 20
36.38712610779893
 10
111.522945151208
 20
36.50289985965352
 10
111.0315390021025
 20
36.61362441705341
 10
110.5388997724359
 20
36.71948638410721
 10
110.0451300299633
 20
36.82067236492357
 10
109.5503323424402
 20
36.91736896361109
 10
109.054609277622
 20
37.00976278427841
 10
108.558063403264
 20
37.09804043103414
 10
108.0607972871215
 20
37.18238850798691
 10
107.56291349695
 20
37.26299361924534
 10
107.0645146005047
 20
37.34004236891806
 10
106.5657031655412
 20
37.41372136111369
 10
106.0665817598146
 20
37.48421719994086
 10
105.5672529510804
 20
37.55171648950817
 10
105.067819307094
 20
37.61640583392427
 10
104.5683833956107
 20
37.67847183729778
 10
104.0690477843858
 20
37.73810110373731
 10
103.5699150411747
 20
37.79548023735148
 10
103.0710877337329
 20
37.85079584224894
 10
102.5726684298156
 20
37.90423452253829
  0
LWPOLYLINE
  5
6A
100
AcDbEntity
  8
0
  6
ByLayer
 62
    7
370
   -1
100
AcDbPolyline
 90
   32
 70
    0
 43
0
 10
102.5726684298156
 20
37.90423452253829
 10
101.6150234332395
 20
37.99075987826653
 10
100.655622036811
 20
38.06564248282831
 10
99.69470963048023
 20
38.12870464228923
 10
98.73253160419713
 20
38.17976866271485
 10
97.76933334791167
 20
38.2186568501708
 10
96.80536025157387
 20
38.24519151072264
 10
95.84085770513364
 20
38.25919495043597
 10
94.87607109854106
 20
38.2604894753764
 10
93.91124582174605
 20
38.24889739160947
 10
92.94662726469861
 20
38.22424100520083
 10
91.98246081734877
 20
38.18634262221604
 10
91.01899186964643
 20
38.13502454872069
 10
90.05646581154163
 20
38.07010909078037
 10
89.09512803298436
 20
37.99141855446069
 10
88.13522392392457
 20
37.8987752458272
 10
87.17699887431228
 20
37.79200147094552
 10
86.22069827409744
 20
37.67091953588125
 10
85.26656751323007
 20
37.53535174669994
 10
84.31485198166013
 20
37.38512040946723
 10
83.36579706933762
 20
37.22004783024867
 10
82.41964816621251
 20
37.03995631510988
 10
81.4766506622348
 20
36.84466817011642
 10
80.53704994735446
 20
36.6340057013339
 10
79.60109141152151
 20
36.40779121482791
 10
78.66902044468588
 20
36.16584701666403
 10
77.7410824367976
 20
35.90799541290787
 10
76.81752277780663
 20
35.63405870962499
 10
75.89858685766296
 20
35.34385921288101
 10
74.98452006631658
 20
35.03721922874151
 10
74.07556779371747
 20
34.71396106327207
 10
73.1719754298156
 20
34.37390702253829
  0
LWPOLYLINE
  5
6B
100
AcDbEntity
  8
0
  6
ByLayer
 62
    7
370
   -1
100
AcDbPolyline
 90
   32
 70
    0
 43
0
 10
69.0248109298156
 20
6.807556022538293
 10
69.2632115144049
 20
6.281187650714588
 10
69.51323875533339
 20
5.757568765950734
 10
69.77486778656764
 20
5.237370311081814
 10
70.04807374207434
 20
4.721263228942912
 10
70.33283175582011
 20
4.209918462369114
 10
70.62911696177156
 20
3.704006954195505
 10
70.93690449389537
 20
3.204199647257168
 10
71.25616948615813
 20
2.711167484389188
 10
71.58688707252648
 20
2.225581408426649
 10
71.92903238696707
 20
1.748112362204636
 10
72.28258056344657
 20
1.279431288558234
 10
72.64750673593154
 20
0.8202091303225253
 10
73.02378603838866
 20
0.3711168303325956
 10
73.41139360478455
 20
-0.06717466857647048
 10
73.81030456908584
 20
-0.4939944235695891
 10
74.22049406525919
 20
-0.9086714918116753
 10
74.6419372272712
 20
-1.310534930467645
 10
75.07460918908853
 20
-1.698913796702413
 10
75.51848508467781
 20
-2.073137147680897
 10
75.97354004800565
 20
-2.43253404056801
 10
76.43974921303872
 20
-2.776433532528669
 10
76.91708771374364
 20
-3.104164680727789
 10
77.40553068408703
 20
-3.415056542330286
 10
77.90505325803554
 20
-3.708438174501075
 10
78.41563056955579
 20
-3.983638634405073
 10
78.93723775261442
 20
-4.239986979207194
 10
79.46984994117808
 20
-4.476812266072354
 10
80.0134422692134
 20
-4.693443552165469
 10
80.56798987068699
 20
-4.889209894651454
 10
81.13346787956552
 20
-5.063440350695225
 10
81.7098514298156
 20
-5.215463977461701
  0
LWPOLYLINE
  5
6C
100
AcDbEntity
  8
0
  6
ByLayer
 62
    7
370
   -1
100
AcDbPolyline
 90
   32
 70
    0
 43
0
 10
81.7098514298156
 20
-5.215463977461701
 10
82.62479212272622
 20
-5.495042023482311
 10
83.54514891378729
 20
-5.758931450725439
 10
84.47057356504099
 20
-6.006993483285608
 10
85.40071783852966
 20
-6.239089345257344
 10
86.3352334962954
 20
-6.455080260735173
 10
87.27377230038054
 20
-6.654827453813621
 10
88.21598601282724
 20
-6.838192148587209
 10
89.16152639567777
 20
-7.005035569150467
 10
90.11004521097433
 20
-7.155218939597916
 10
91.06119422075915
 20
-7.288603484024085
 10
92.0146251870745
 20
-7.405050426523498
 10
92.96998987196255
 20
-7.50442099119068
 10
93.92694003746556
 20
-7.586576402120156
 10
94.88512744562573
 20
-7.651377883406451
 10
95.84420385848534
 20
-7.69868665914409
 10
96.80382103808654
 20
-7.728363953427598
 10
97.76363074647162
 20
-7.740270990351501
 10
98.7232847456828
 20
-7.734268994010325
 10
99.6824347977623
 20
-7.710219188498594
 10
100.6407326647523
 20
-7.667982797910833
 10
101.5978301086951
 20
-7.607421046341567
 10
102.5533788916329
 20
-7.528395157885322
 10
103.5070307756079
 20
-7.430766356636623
 10
104.4584375226624
 20
-7.314395866689995
 10
105.4072508948386
 20
-7.179144912139963
 10
106.3531226541787
 20
-7.024874717081053
 10
107.2957045627249
 20
-6.85144650560779
 10
108.2346483825194
 20
-6.658721501814698
 10
109.1696058756046
 20
-6.446560929796304
 10
110.1002288040226
 20
-6.214826013647133
 10
111.0261689298156
 20
-5.963377977461702
  0
LWPOLYLINE
  5
6D
100
AcDbEntity
  8
0
  6
ByLayer
 62
    7
370
   -1
100
AcDbPolyline
 90
   32
 70
    0
 43
0
 10
111.0261689298156
 20
-5.963377977461702
 10
111.4492068381436
 20
-5.834065586857158
 10
111.8689033639736
 20
-5.693849614331898
 10
112.2849239021227
 20
-5.542833665270101
 10
112.6969338474082
 20
-5.381121345055942
 10
113.1045985946472
 20
-5.208816259073597
 10
113.5075835386572
 20
-5.026022012707245
 10
113.9055540742552
 20
-4.832842211341061
 10
114.2981755962585
 20
-4.62938046035922
 10
114.6851134994843
 20
-4.4157403651459
 10
115.0660331787498
 20
-4.192025531085277
 10
115.4406000288724
 20
-3.958339563561529
 10
115.8084794446691
 20
-3.714786067958831
 10
116.1693368209572
 20
-3.461468649661358
 10
116.522837552554
 20
-3.198490914053288
 10
116.8686470342767
 20
-2.925956466518798
 10
117.2064306609424
 20
-2.643968912442064
 10
117.5358538273686
 20
-2.352631857207262
 10
117.8565819283722
 20
-2.052048906198568
 10
118.1682803587707
 20
-1.742323664800159
 10
118.4706145133811
 20
-1.423559738396212
 10
118.7632497870208
 20
-1.095860732370903
 10
119.0458515745069
 20
-0.7593302521084081
 10
119.3180852706568
 20
-0.4140719029929036
 10
119.5796162702875
 20
-0.06018929040856658
 10
119.8301099682164
 20
0.3022139802604265
 10
120.0692317592607
 20
0.6730343036298995
 10
120.2966470382376
 20
1.052168074315676
 10
120.5120211999643
 20
1.43951168693358
 10
120.715019639258
 20
1.834961536099434
 10
120.9053077509361
 20
2.238414016429063
 10
121.0825509298156
 20
2.649765522538297
  0
LINE
  5
6E
100
AcDbEntity
  8
0
  6
ByLayer
 62
  256
370
   -1
100
AcDbLine
 10
53.37998907023542
 20
29.0778125225383
 11
64.54419242981561
 21
29.0778125225383
  0
LINE
  5
6F
100
AcDbEntity
  8
0
  6
ByLayer
 62
  256
370
   -1
100
AcDbLine
 10
53.37998907023542
 20
29.0778125225383
 11
64.54419242981561
 21
29.0778125225383
  0
LINE
  5
70
100
AcDbEntity
  8
0
  6
ByLayer
 62
  256
370
   -1
100
AcDbLine
 10
44.75220607023542
 20
34.37390702253829
 11
53.37998907023542
 21
29.0778125225383
  0
LINE
  5
71
100
AcDbEntity
  8
0
  6
ByLayer
 62
  256
370
   -1
100
AcDbLine
 10
52.88950679375506
 20
23.07781252253829
 11
48.89937057023541
 21
6.807556022538293
  0
ARC
  5
72
100
AcDbEntity
  8
0
  6
ByLayer
 62
  256
370
   -1
100
AcDbCircle
 10
54.94877192081892
 20
23.07781252253829
 40
2.05926512706386
100
AcDbArc
 50
76.22066619435157
 51
180
  0
LWPOLYLINE
  5
73
100
AcDbEntity
  8
0
  6
ByLayer
 62
    7
370
   -1
100
AcDbPolyline
 90
   32
 70
    0
 43
0
 10
75.96451075002551
 20
31.86941475002551
 10
75.67391524735694
 20
31.73997156147864
 10
75.37948375261018
 20
31.60931411157767
 10
75.08194814051258
 20
31.47704928360949
 10
74.78204028579135
 20
31.34278396086101
 10
74.48049206317378
 20
31.20612502661912
 10
74.17803534738714
 20
31.06667936417073
 10
73.87540201315868
 20
30.92405385680273
 10
73.57332393521568
 20
30.77785538780202
 10
73.27253298828539
 20
30.62769084045551
 10
72.97376104709508
 20
30.47316709805008
 10
72.67773998637205
 20
30.31389104387265
 10
72.38520168084355
 20
30.1494695612101
 10
72.09687800523682
 20
29.97950953334934
 10
71.81350083427915
 20
29.80361784357726
 10
71.5358020426978
 20
29.62140137518076
 10
71.26451350522004
 20
29.43246701144675
 10
71.00036709657313
 20
29.23642163566212
 10
70.74409469148435
 20
29.03287213111376
 10
70.49642816468095
 20
28.82142538108859
 10
70.25809939089021
 20
28.60168826887349
 10
70.02984024483939
 20
28.37326767775537
 10
69.81238260125576
 20
28.13577049102112
 10
69.60645833486657
 20
27.88880359195765
 10
69.41279932039912
 20
27.63197386385184
 10
69.23213743258066
 20
27.36488818999061
 10
69.06520454613843
 20
27.08715345366084
 10
68.91273253579975
 20
26.79837653814945
 10
68.77545327629184
 20
26.49816432674332
 10
68.65409864234198
 20
26.18612370272935
 10
68.54940050867745
 20
25.86186154939445
 10
68.46209075002551
 20
25.52498475002551
  0
LWPOLYLINE
  5
74
100
AcDbEntity
  8
0
  6
ByLayer
 62
    7
370
   -1
100
AcDbPolyline
 90
   32
 70
    0
 43
0
 10
68.46209075002551
 20
25.52498475002551
 10
68.40564177181062
 20
24.93377777442886
 10
68.36753438736565
 20
24.34374018354571
 10
68.34712727682891
 20
23.75490698123628
 10
68.3437791203387
 20
23.16731317136081
 10
68.3568485980333
 20
22.58099375777953
 10
68.38569439005101
 20
21.99598374435266
 10
68.42967517653015
 20
21.41231813494042
 10
68.488149637609
 20
20.83003193340304
 10
68.56047645342585
 20
20.24916014360075
 10
68.64601430411902
 20
19.66973776939377
 10
68.74412186982678
 20
19.09179981464234
 10
68.85415783068746
 20
18.51538128320668
 10
68.97548086683931
 20
17.940517178947
 10
69.10744965842066
 20
17.36724250572354
 10
69.2494228855698
 20
16.79559226739653
 10
69.40075922842502
 20
16.22560146782619
 10
69.56081736712463
 20
15.65730511087275
 10
69.72895598180692
 20
15.09073820039643
 10
69.90453375261018
 20
14.52593574025747
 10
70.08690935967272
 20
13.96293273431607
 10
70.27544148313282
 20
13.40176418643249
 10
70.4694888031288
 20
12.84246510046693
 10
70.66840999979894
 20
12.28507048027963
 10
70.87156375328152
 20
11.7296153297308
 10
71.07830874371487
 20
11.17613465268069
 10
71.28800365123728
 20
10.62466345298951
 10
71.50000715598705
 20
10.07523673451748
 10
71.71367793810245
 20
9.52788950112485
 10
71.92837467772179
 20
8.982656756671826
 10
72.14345605498339
 20
8.439573505018643
 10
72.35828075002551
 20
7.898674750025515
  0
LINE
  5
75
100
AcDbEntity
  8
0
  6
ByLayer
 62
  256
370
   -1
100
AcDbLine
 10
73.1719754298156
 20
34.37390702253829
 11
64.54419242981561
 21
29.0778125225383
  0
LINE
  5
76
100
AcDbEntity
  8
0
  6
ByLayer
 62
  256
370
   -1
100
AcDbLine
 10
65.03467470629596
 20
23.07781252253829
 11
69.0248109298156
 21
6.807556022538293
  0
ARC
  5
77
100
AcDbEntity
  8
0
  6
ByLayer
 62
  256
370
   -1
100
AcDbCircle
 10
62.9754095792321
 20
23.07781252253829
 40
2.05926512706386
100
AcDbArc
 50
360
 51
103.7793338056485
  0
LINE
  5
78
100
AcDbEntity
  8
0
  6
ByLayer
 62
  256
370
   -1
100
AcDbLine
 10
55.43925419729928
 20
25.07781252253829
 11
62.48492730275174
 21
25.07781252253829
  0
LWPOLYLINE
  5
79
100
AcDbEntity
  8
larger
  6
ByLayer
 62
    7
370
   -1
100
AcDbPolyline
 90
   32
 70
    0
 43
0
 10
0.1718350702354172
 20
34.53608002253829
 10
0.637877506306714
 20
34.72699922832192
 10
1.106486403758965
 20
34.91062999034736
 10
1.577559194836807
 20
35.08715891272324
 10
2.050993311784879
 20
35.2567725995582
 10
2.526686186847817
 20
35.41965765496083
 10
3.004535252270261
 20
35.57600068303979
 10
3.484437940296846
 20
35.72598828790367
 10
3.966291683172211
 20
35.86980707366111
 10
4.449993913140992
 20
36.00764364442073
 10
4.93544206244783
 20
36.13968460429116
 10
5.42253356333736
 20
36.26611655738103
 10
5.911165848054221
 20
36.38712610779893
 10
6.401236348843049
 20
36.50289985965352
 10
6.892642497948485
 20
36.61362441705342
 10
7.385281727615163
 20
36.71948638410722
 10
7.879051470087719
 20
36.82067236492357
 10
8.373849157610797
 20
36.9173689636111
 10
8.869572222429031
 20
37.00976278427841
 10
9.366118096787059
 20
37.09804043103414
 10
9.863384212929516
 20
37.18238850798691
 10
10.36126800310105
 20
37.26299361924535
 10
10.85966689954628
 20
37.34004236891807
 10
11.35847833450986
 20
37.4137213611137
 10
11.85759974023642
 20
37.48421719994086
 10
12.3569285489706
 20
37.55171648950818
 10
12.85636219295704
 20
37.61640583392428
 10
13.35579810444037
 20
37.67847183729778
 10
13.85513371566524
 20
37.73810110373731
 10
14.35426645887627
 20
37.79548023735148
 10
14.85309376631812
 20
37.85079584224894
 10
15.35151307023542
 20
37.90423452253829
  0
LWPOLYLINE
  5
7A
100
AcDbEntity
  8
larger
  6
ByLayer
 62
    7
370
   -1
100
AcDbPolyline
 90
   32
 70
    0
 43
0
 10
15.35151307023542
 20
37.90423452253829
 10
16.30915806681156
 20
37.99075987826653
 10
17.26855946324002
 20
38.06564248282831
 10
18.22947186957079
 20
38.12870464228923
 10
19.1916498958539
 20
38.17976866271485
 10
20.15484815213935
 20
38.2186568501708
 10
21.11882124847717
 20
38.24519151072264
 10
22.08332379491737
 20
38.25919495043597
 10
23.04811040150997
 20
38.2604894753764
 10
24.01293567830496
 20
38.24889739160947
 10
24.9775542353524
 20
38.22424100520083
 10
25.94172068270227
 20
38.18634262221604
 10
26.90518963040459
 20
38.13502454872069
 10
27.86771568850939
 20
38.07010909078037
 10
28.82905346706667
 20
37.99141855446069
 10
29.78895757612645
 20
37.8987752458272
 10
30.74718262573875
 20
37.79200147094552
 10
31.70348322595358
 20
37.67091953588125
 10
32.65761398682096
 20
37.53535174669994
 10
33.60932951839089
 20
37.38512040946723
 10
34.5583844307134
 20
37.22004783024867
 10
35.50453333383851
 20
37.03995631510988
 10
36.44753083781622
 20
36.84466817011642
 10
37.38713155269655
 20
36.6340057013339
 10
38.32309008852952
 20
36.40779121482791
 10
39.25516105536514
 20
36.16584701666403
 10
40.18309906325342
 20
35.90799541290787
 10
41.1066587222444
 20
35.63405870962499
 10
42.02559464238807
 20
35.34385921288101
 10
42.93966143373444
 20
35.03721922874151
 10
43.84861370633354
 20
34.71396106327207
 10
44.75220607023542
 20
34.37390702253829
  0
LWPOLYLINE
  5
7B
100
AcDbEntity
  8
larger
  6
ByLayer
 62
    7
370
   -1
100
AcDbPolyline
 90
   32
 70
    0
 43
0
 10
48.89937057023541
 20
6.807556022538293
 10
48.6609699856461
 20
6.281187650714588
 10
48.41094274471764
 20
5.757568765950734
 10
48.14931371348338
 20
5.237370311081814
 10
47.87610775797667
 20
4.721263228942912
 10
47.59134974423091
 20
4.209918462369115
 10
47.29506453827945
 20
3.704006954195505
 10
46.98727700615565
 20
3.204199647257169
 10
46.6680120138929
 20
2.711167484389189
 10
46.33729442752452
 20
2.225581408426649
 10
45.99514911308392
 20
1.748112362204637
 10
45.64160093660445
 20
1.279431288558234
 10
45.27667476411948
 20
0.820209130322526
 10
44.90039546166236
 20
0.3711168303325965
 10
44.51278789526646
 20
-0.0671746685764697
 10
44.11387693096517
 20
-0.4939944235695882
 10
43.70368743479182
 20
-0.9086714918116742
 10
43.28224427277981
 20
-1.310534930467644
 10
42.84957231096249
 20
-1.698913796702413
 10
42.40569641537321
 20
-2.073137147680896
 10
41.95064145204536
 20
-2.432534040568009
 10
41.4844322870123
 20
-2.776433532528668
 10
41.00709378630739
 20
-3.104164680727789
 10
40.51865081596399
 20
-3.415056542330286
 10
40.01912824201549
 20
-3.708438174501075
 10
39.50855093049523
 20
-3.983638634405073
 10
38.9869437474366
 20
-4.239986979207194
 10
38.45433155887294
 20
-4.476812266072356
 10
37.91073923083762
 20
-4.693443552165471
 10
37.35619162936403
 20
-4.889209894651456
 10
36.7907136204855
 20
-5.063440350695228
 10
36.21433007023542
 20
-5.215463977461704
  0
LWPOLYLINE
  5
7C
100
AcDbEntity
  8
larger
  6
ByLayer
 62
    7
370
   -1
100
AcDbPolyline
 90
   32
 70
    0
 43
0
 10
36.21433007023542
 20
-5.215463977461704
 10
35.29938937732481
 20
-5.495042023482315
 10
34.37903258626376
 20
-5.758931450725442
 10
33.45360793501002
 20
-6.006993483285611
 10
32.52346366152138
 20
-6.239089345257348
 10
31.58894800375561
 20
-6.455080260735176
 10
30.65040919967048
 20
-6.654827453813624
 10
29.70819548722377
 20
-6.838192148587212
 10
28.76265510437325
 20
-7.005035569150471
 10
27.81413628907668
 20
-7.15521893959792
 10
26.86298727929184
 20
-7.288603484024088
 10
25.90955631297652
 20
-7.405050426523502
 10
24.95419162808847
 20
-7.504420991190684
 10
23.99724146258546
 20
-7.586576402120159
 10
23.03905405442528
 20
-7.651377883406453
 10
22.07997764156569
 20
-7.698686659144093
 10
21.12036046196447
 20
-7.728363953427602
 10
20.16055075357939
 20
-7.740270990351505
 10
19.20089675436822
 20
-7.734268994010328
 10
18.24174670228873
 20
-7.710219188498597
 10
17.2834488352987
 20
-7.667982797910835
 10
16.3263513913559
 20
-7.60742104634157
 10
15.3708026084181
 20
-7.528395157885326
 10
14.41715072444308
 20
-7.430766356636626
 10
13.4657439773886
 20
-7.314395866689998
 10
12.51693060521244
 20
-7.179144912139966
 10
11.57105884587237
 20
-7.024874717081056
 10
10.62847693732617
 20
-6.851446505607793
 10
9.689533117531596
 20
-6.658721501814702
 10
8.754575624446437
 20
-6.446560929796307
 10
7.823952696028459
 20
-6.214826013647135
 10
6.898012570235416
 20
-5.963377977461706
  0
LWPOLYLINE
  5
7D
100
AcDbEntity
  8
larger
  6
ByLayer
 62
    7
370
   -1
100
AcDbPolyline
 90
   32
 70
    0
 43
0
 10
6.898012570235416
 20
-5.963377977461706
 10
6.474974661907399
 20
-5.834065586857162
 10
6.055278136077451
 20
-5.693849614331901
 10
5.639257597928345
 20
-5.542833665270105
 10
5.227247652642856
 20
-5.381121345055946
 10
4.819582905403757
 20
-5.208816259073601
 10
4.416597961393823
 20
-5.026022012707251
 10
4.018627425795823
 20
-4.832842211341065
 10
3.626005903792533
 20
-4.629380460359225
 10
3.239068000566727
 20
-4.415740365145905
 10
2.858148321301178
 20
-4.192025531085283
 10
2.483581471178658
 20
-3.958339563561535
 10
2.115702055381941
 20
-3.714786067958836
 10
1.754844679093801
 20
-3.461468649661363
 10
1.401343947497011
 20
-3.198490914053294
 10
1.055534465774343
 20
-2.925956466518804
 10
0.7177508391085722
 20
-2.64396891244207
 10
0.3883276726824706
 20
-2.352631857207268
 10
0.06759957167881214
 20
-2.052048906198574
 10
-0.24409885871963
 20
-1.742323664800165
 10
-0.5464330133300824
 20
-1.423559738396218
 10
-0.8390682869697719
 20
-1.095860732370908
 10
-1.121670074455925
 20
-0.7593302521084134
 10
-1.393903770605769
 20
-0.414071902992909
 10
-1.65543477023653
 20
-0.06018929040857146
 10
-1.905928468165434
 20
0.3022139802604222
 10
-2.145050259209708
 20
0.6730343036298956
 10
-2.372465538186581
 20
1.052168074315673
 10
-2.587839699913276
 20
1.439511686933577
 10
-2.790838139207022
 20
1.834961536099432
 10
-2.981126250885046
 20
2.238414016429062
 10
-3.158369429764576
 20
2.649765522538297
  0
LWPOLYLINE
  5
7E
100
AcDbEntity
  8
larger
  6
ByLayer
 62
    7
370
   -1
100
AcDbPolyline
 90
   32
 70
    0
 43
0
 10
117.7523464298156
 20
34.53608002253829
 10
117.2863039937443
 20
34.72699922832192
 10
116.8176950962921
 20
34.91062999034736
 10
116.3466223052142
 20
35.08715891272324
 10
115.8731881882661
 20
35.2567725995582
 10
115.3974953132032
 20
35.41965765496083
 10
114.9196462477808
 20
35.57600068303979
 10
114.4397435597542
 20
35.72598828790367
 10
113.9578898168788
 20
35.86980707366111
 10
113.47418758691
 20
36.00764364442073
 10
112.9887394376032
 20
36.13968460429115
 10
112.5016479367137
 20
36.26611655738103
 10
112.0130156519968
 20
36.38712610779893
 10
111.522945151208
 20
36.50289985965352
 10
111.0315390021025
 20
36.61362441705341
 10
110.5388997724359
 20
36.71948638410721
 10
110.0451300299633
 20
36.82067236492357
 10
109.5503323424402
 20
36.91736896361109
 10
109.054609277622
 20
37.00976278427841
 10
108.558063403264
 20
37.09804043103414
 10
108.0607972871215
 20
37.18238850798691
 10
107.56291349695
 20
37.26299361924534
 10
107.0645146005047
 20
37.34004236891806
 10
106.5657031655412
 20
37.41372136111369
 10
106.0665817598146
 20
37.48421719994086
 10
105.5672529510804
 20
37.55171648950817
 10
105.067819307094
 20
37.61640583392427
 10
104.5683833956107
 20
37.67847183729778
 10
104.0690477843858
 20
37.73810110373731
 10
103.5699150411747
 20
37.79548023735148
 10
103.0710877337329
 20
37.85079584224894
 10
102.5726684298156
 20
37.90423452253829
  0
LWPOLYLINE
  5
7F
100
AcDbEntity
  8
larger
  6
ByLayer
 62
    7
370
   -1
100
AcDbPolyline
 90
   32
 70
    0
 43
0
 10
102.5726684298156
 20
37.90423452253829
 10
101.6150234332395
 20
37.99075987826653
 10
100.655622036811
 20
38.06564248282831
 10
99.69470963048023
 20
38.12870464228923
 10
98.73253160419713
 20
38.17976866271485
 10
97.76933334791167
 20
38.2186568501708
 10
96.80536025157387
 20
38.24519151072264
 10
95.84085770513364
 20
38.25919495043597
 10
94.87607109854106
 20
38.2604894753764
 10
93.91124582174605
 20
38.24889739160947
 10
92.94662726469861
 20
38.22424100520083
 10
91.98246081734877
 20
38.18634262221604
 10
91.01899186964643
 20
38.13502454872069
 10
90.05646581154163
 20
38.07010909078037
 10
89.09512803298436
 20
37.99141855446069
 10
88.13522392392457
 20
37.8987752458272
 10
87.17699887431228
 20
37.79200147094552
 10
86.22069827409744
 20
37.67091953588125
 10
85.26656751323007
 20
37.53535174669994
 10
84.31485198166013
 20
37.38512040946723
 10
83.36579706933762
 20
37.22004783024867
 10
82.41964816621251
 20
37.03995631510988
 10
81.4766506622348
 20
36.84466817011642
 10
80.53704994735446
 20
36.6340057013339
 10
79.60109141152151
 20
36.40779121482791
 10
78.66902044468588
 20
36.16584701666403
 10
77.7410824367976
 20
35.90799541290787
 10
76.81752277780663
 20
35.63405870962499
 10
75.89858685766296
 20
35.34385921288101
 10
74.98452006631658
 20
35.03721922874151
 10
74.07556779371747
 20
34.71396106327207
 10
73.1719754298156
 20
34.37390702253829
  0
LWPOLYLINE
  5
80
100
AcDbEntity
  8
larger
  6
ByLayer
 62
    7
370
   -1
100
AcDbPolyline
 90
   32
 70
    0
 43
0
 10
69.0248109298156
 20
6.807556022538293
 10
69.2632115144049
 20
6.281187650714588
 10
69.51323875533339
 20
5.757568765950734
 10
69.77486778656764
 20
5.237370311081814
 10
70.04807374207434
 20
4.721263228942912
 10
70.33283175582011
 20
4.209918462369114
 10
70.62911696177156
 20
3.704006954195505
 10
70.93690449389537
 20
3.204199647257168
 10
71.25616948615813
 20
2.711167484389188
 10
71.58688707252648
 20
2.225581408426649
 10
71.92903238696707
 20
1.748112362204636
 10
72.28258056344657
 20
1.279431288558234
 10
72.64750673593154
 20
0.8202091303225253
 10
73.02378603838866
 20
0.3711168303325956
 10
73.41139360478455
 20
-0.06717466857647048
 10
73.81030456908584
 20
-0.4939944235695891
 10
74.22049406525919
 20
-0.9086714918116753
 10
74.6419372272712
 20
-1.310534930467645
 10
75.07460918908853
 20
-1.698913796702413
 10
75.51848508467781
 20
-2.073137147680897
 10
75.97354004800565
 20
-2.43253404056801
 10
76.43974921303872
 20
-2.776433532528669
 10
76.91708771374364
 20
-3.104164680727789
 10
77.40553068408703
 20
-3.415056542330286
 10
77.90505325803554
 20
-3.708438174501075
 10
78.41563056955579
 20
-3.983638634405073
 10
78.93723775261442
 20
-4.239986979207194
 10
79.46984994117808
 20
-4.476812266072354
 10
80.0134422692134
 20
-4.693443552165469
 10
80.56798987068699
 20
-4.889209894651454
 10
81.13346787956552
 20
-5.063440350695225
 10
81.7098514298156
 20
-5.215463977461701
  0
LWPOLYLINE
  5
81
100
AcDbEntity
  8
larger
  6
ByLayer
 62
    7
370
   -1
100
AcDbPolyline
 90
   32
 70
    0
 43
0
 10
81.7098514298156
 20
-5.215463977461701
 10
82.62479212272622
 20
-5.495042023482311
 10
83.54514891378729
 20
-5.758931450725439
 10
84.47057356504099
 20
-6.006993483285608
 10
85.40071783852966
 20
-6.239089345257344
 10
86.3352334962954
 20
-6.455080260735173
 10
87.27377230038054
 20
-6.654827453813621
 10
88.21598601282724
 20
-6.838192148587209
 10
89.16152639567777
 20
-7.005035569150467
 10
90.11004521097433
 20
-7.155218939597916
 10
91.06119422075915
 20
-7.288603484024085
 10
92.0146251870745
 20
-7.405050426523498
 10
92.96998987196255
 20
-7.50442099119068
 10
93.92694003746556
 20
-7.586576402120156
 10
94.88512744562573
 20
-7.651377883406451
 10
95.84420385848534
 20
-7.69868665914409
 10
96.80382103808654
 20
-7.728363953427598
 10
97.76363074647162
 20
-7.740270990351501
 10
98.7232847456828
 20
-7.734268994010325
 10
99.6824347977623
 20
-7.710219188498594
 10
100.6407326647523
 20
-7.667982797910833
 10
101.5978301086951
 20
-7.607421046341567
 10
102.5533788916329
 20
-7.528395157885322
 10
103.5070307756079
 20
-7.430766356636623
 10
104.4584375226624
 20
-7.314395866689995
 10
105.4072508948386
 20
-7.179144912139963
 10
106.3531226541787
 20
-7.024874717081053
 10
107.2957045627249
 20
-6.85144650560779
 10
108.2346483825194
 20
-6.658721501814698
 10
109.1696058756046
 20
-6.446560929796304
 10
110.1002288040226
 20
-6.214826013647133
 10
111.0261689298156
 20
-5.963377977461702
  0
LWPOLYLINE
  5
82
100
AcDbEntity
  8
larger
  6
ByLayer
 62
    7
370
   -1
100
AcDbPolyline
 90
   32
 70
    0
 43
0
 10
111.0261689298156
 20
-5.963377977461702
 10
111.4492068381436
 20
-5.834065586857158
 10
111.8689033639736
 20
-5.693849614331898
 10
112.2849239021227
 20
-5.542833665270101
 10
112.6969338474082
 20
-5.381121345055942
 10
113.1045985946472
 20
-5.208816259073597
 10
113.5075835386572
 20
-5.026022012707245
 10
113.9055540742552
 20
-4.832842211341061
 10
114.2981755962585
 20
-4.62938046035922
 10
114.6851134994843
 20
-4.4157403651459
 10
115.0660331787498
 20
-4.192025531085277
 10
115.4406000288724
 20
-3.958339563561529
 10
115.8084794446691
 20
-3.714786067958831
 10
116.1693368209572
 20
-3.461468649661358
 10
116.522837552554
 20
-3.198490914053288
 10
116.8686470342767
 20
-2.925956466518798
 10
117.2064306609424
 20
-2.643968912442064
 10
117.5358538273686
 20
-2.352631857207262
 10
117.8565819283722
 20
-2.052048906198568
 10
118.1682803587707
 20
-1.742323664800159
 10
118.4706145133811
 20
-1.423559738396212
 10
118.7632497870208
 20
-1.095860732370903
 10
119.0458515745069
 20
-0.7593302521084081
 10
119.3180852706568
 20
-0.4140719029929036
 10
119.5796162702875
 20
-0.06018929040856658
 10
119.8301099682164
 20
0.3022139802604265
 10
120.0692317592607
 20
0.6730343036298995
 10
120.2966470382376
 20
1.052168074315676
 10
120.5120211999643
 20
1.43951168693358
 10
120.715019639258
 20
1.834961536099434
 10
120.9053077509361
 20
2.238414016429063
 10
121.0825509298156
 20
2.649765522538297
  0
LINE
  5
83
100
AcDbEntity
  8
larger
  6
ByLayer
 62
  256
370
   -1
100
AcDbLine
 10
53.37998907023542
 20
29.0778125225383
 11
64.54419242981561
 21
29.0778125225383
  0
LINE
  5
84
100
AcDbEntity
  8
larger
  6
ByLayer
 62
  256
370
   -1
100
AcDbLine
 10
53.37998907023542
 20
29.0778125225383
 11
64.54419242981561
 21
29.0778125225383
  0
LINE
  5
85
100
AcDbEntity
  8
larger
  6
ByLayer
 62
  256
370
   -1
100
AcDbLine
 10
44.75220607023542
 20
34.37390702253829
 11
53.37998907023542
 21
29.0778125225383
  0
LINE
  5
86
100
AcDbEntity
  8
larger
  6
ByLayer
 62
  256
370
   -1
100
AcDbLine
 10
52.88950679375506
 20
23.07781252253829
 11
48.89937057023541
 21
6.807556022538293
  0
ARC
  5
87
100
AcDbEntity
  8
larger
  6
ByLayer
 62
  256
370
   -1
100
AcDbCircle
 10
54.94877192081892
 20
23.07781252253829
 40
2.05926512706386
100
AcDbArc
 50
76.22066619435157
 51
180
  0
LINE
  5
88
100
AcDbEntity
  8
larger
  6
ByLayer
 62
  256
370
   -1
100
AcDbLine
 10
73.1719754298156
 20
34.37390702253829
 11
64.54419242981561
 21
29.0778125225383
  0
LINE
  5
89
100
AcDbEntity
  8
larger
  6
ByLayer
 62
  256
370
   -1
100
AcDbLine
 10
65.03467470629596
 20
23.07781252253829
 11
69.0248109298156
 21
6.807556022538293
  0
ARC
  5
8A
100
AcDbEntity
  8
larger
  6
ByLayer
 62
  256
370
   -1
100
AcDbCircle
 10
62.9754095792321
 20
23.07781252253829
 40
2.05926512706386
100
AcDbArc
 50
360
 51
103.7793338056485
  0
LINE
  5
8B
100
AcDbEntity
  8
larger
  6
ByLayer
 62
  256
370
   -1
100
AcDbLine
 10
55.43925419729928
 20
25.07781252253829
 11
62.48492730275174
 21
25.07781252253829
  0
LWPOLYLINE
  5
8C
100
AcDbEntity
  8
larger
  6
ByLayer
 62
    7
370
   -1
100
AcDbPolyline
 90
   32
 70
    0
 43
0
 10
119.7490502218036
 20
22.14771093566748
 10
119.7398606282365
 20
22.51924722119902
 10
119.7171381787078
 20
22.89042029782196
 10
119.6810320693306
 20
23.26073472332073
 10
119.631691496218
 20
23.62969505547978
 10
119.5692656554832
 20
23.99680585208351
 10
119.4939037432394
 20
24.36157167091639
 10
119.4057549555998
 20
24.72349706976282
 10
119.3049684886777
 20
25.08208660640724
 10
119.1916935385861
 20
25.43684483863409
 10
119.0660793014384
 20
25.78727632422778
 10
118.9282749733476
 20
26.13288562097278
 10
118.7784297504268
 20
26.47317728665349
 10
118.6166928287895
 20
26.80765587905433
 10
118.4432134045487
 20
27.13582595595979
 10
118.2581406738176
 20
27.45719207515425
 10
118.0616238327094
 20
27.77125879442215
 10
117.8538120773374
 20
28.07753067154792
 10
117.6348546038145
 20
28.375512264316
 10
117.4049006082542
 20
28.66470813051082
 10
117.1640992867695
 20
28.94462282791682
 10
116.9125998354736
 20
29.21476091431841
 10
116.6505514504799
 20
29.47462694750006
 10
116.3781033279013
 20
29.72372548524614
 10
116.0954046638512
 20
29.96156108534114
 10
115.8026046544427
 20
30.18763830556946
 10
115.4998524957889
 20
30.40146170371555
 10
115.1872973840031
 20
30.60253583756383
 10
114.8650885151985
 20
30.79036526489873
 10
114.5333750854882
 20
30.96445454350468
 10
114.1923062909855
 20
31.12430823116612
 10
113.8420313278036
 20
31.26943088566748
  0
LWPOLYLINE
  5
8D
100
AcDbEntity
  8
larger
  6
ByLayer
 62
    7
370
   -1
100
AcDbPolyline
 90
   32
 70
    0
 43
0
 10
113.8420313278036
 20
31.26943088566748
 10
113.4567965976041
 20
31.42724636133524
 10
113.0694404081101
 20
31.57903714601471
 10
112.68004754272
 20
31.72495748828472
 10
112.2887027848324
 20
31.86516163672412
 10
111.8954909178456
 20
31.99980383991172
 10
111.500496725158
 20
32.12903834642638
 10
111.1038049901684
 20
32.2530194048469
 10
110.7055004962751
 20
32.37190126375214
 10
110.3056680268765
 20
32.48583817172091
 10
109.9043923653713
 20
32.59498437733208
 10
109.5017582951578
 20
32.69949412916444
 10
109.0978505996344
 20
32.79952167579685
 10
108.6927540621997
 20
32.89522126580813
 10
108.2865534662522
 20
32.98674714777711
 10
107.8793335951904
 20
33.07425357028264
 10
107.4711792324126
 20
33.15789478190353
 10
107.0621751613174
 20
33.23782503121863
 10
106.6524061653034
 20
33.31419856680676
 10
106.2419570277688
 20
33.38716963724676
 10
105.8309125321123
 20
33.45689249111746
 10
105.4193574617322
 20
33.52352137699769
 10
105.0073766000272
 20
33.58721054346628
 10
104.5950547303955
 20
33.64811423910209
 10
104.1824766362358
 20
33.7063867124839
 10
103.7697271009465
 20
33.76218221219059
 10
103.356890907926
 20
33.81565498680098
 10
102.944052840573
 20
33.86695928489389
 10
102.5312976822857
 20
33.91624935504817
 10
102.1187102164627
 20
33.96367944584264
 10
101.7063752265025
 20
34.00940380585612
 10
101.2943774958036
 20
34.0535766836675
  0
LWPOLYLINE
  5
8E
100
AcDbEntity
  8
larger
  6
ByLayer
 62
    7
370
   -1
100
AcDbPolyline
 90
   32
 70
    0
 43
0
 10
101.2943774958036
 20
34.0535766836675
 10
100.5027798142859
 20
34.12509929510685
 10
99.70973027737733
 20
34.18699790719071
 10
98.91543172654427
 20
34.23912563656769
 10
98.1200870032532
 20
34.28133559988648
 10
97.32389894897062
 20
34.3134809137957
 10
96.52707040516304
 20
34.33541469494405
 10
95.7298042132969
 20
34.34699005998013
 10
94.93230321483871
 20
34.34806012555261
 10
94.13477025125495
 20
34.33847800831015
 10
93.33740816401209
 20
34.3180968249014
 10
92.54041979457661
 20
34.28676969197502
 10
91.74400798441502
 20
34.24434972617966
 10
90.9483755749938
 20
34.19069004416394
 10
90.1537254077794
 20
34.12564376257655
 10
89.36026032423833
 20
34.04906399806613
 10
88.56818316583707
 20
33.96080386728133
 10
87.7776967740421
 20
33.8607164868708
 10
86.98900399031992
 20
33.7486549734832
 10
86.20230765613695
 20
33.62447244376717
 10
85.41781061295976
 20
33.4880220143714
 10
84.63571570225479
 20
33.33915680194448
 10
83.8562257654885
 20
33.17772992313512
 10
83.07954364412743
 20
33.00359449459193
 10
82.30587217963803
 20
32.81660363296358
 10
81.53541421348677
 20
32.61661045489873
 10
80.76837258714016
 20
32.40346807704601
 10
80.00495014206467
 20
32.17702961605411
 10
79.24534971972678
 20
31.93714818857164
 10
78.48977416159299
 20
31.68367691124729
 10
77.73842630912975
 20
31.41646890072969
 10
76.99150900380357
 20
31.13537727366748
  0
LWPOLYLINE
  5
8F
100
AcDbEntity
  8
larger
  6
ByLayer
 62
    7
370
   -1
100
AcDbPolyline
 90
   32
 70
    0
 43
0
 10
76.99150900380357
 20
31.13537727366748
 10
76.71526891896681
 20
31.01232857863483
 10
76.43538234006054
 20
30.88812560675897
 10
76.15254498720057
 20
30.76239466129241
 10
75.86745258050259
 20
30.6347620454877
 10
75.5808008400823
 20
30.50485406259737
 10
75.29328548605551
 20
30.37229701587393
 10
75.00560223853796
 20
30.23671720856991
 10
74.71844681764533
 20
30.09774094393784
 10
74.43251494349342
 20
29.95499452523023
 10
74.14850233619792
 20
29.80810425569964
 10
73.8671047158746
 20
29.65669643859857
 10
73.58901780263918
 20
29.50039737717955
 10
73.31493731660744
 20
29.33883337469512
 10
73.04555897789507
 20
29.17163073439778
 10
72.78157850661785
 20
28.99841575954007
 10
72.52369162289148
 20
28.81881475337452
 10
72.27259404683173
 20
28.63245401915364
 10
72.02898149855433
 20
28.43895986012997
 10
71.79354969817503
 20
28.23795857955604
 10
71.56699436580955
 20
28.02907648068438
 10
71.35001122157362
 20
27.81193986676748
 10
71.14329598558302
 20
27.58617504105791
 10
70.94754437795348
 20
27.35140830680817
 10
70.76345211880071
 20
27.10726596727079
 10
70.59171492824048
 20
26.8533743256983
 10
70.43302852638851
 20
26.58935968534323
 10
70.28808863336056
 20
26.31484834945811
 10
70.15759096927232
 20
26.02946662129543
 10
70.04223125423961
 20
25.73284080410776
 10
69.9427052083781
 20
25.42459720114761
 10
69.85970855180358
 20
25.10436211566748
  0
LWPOLYLINE
  5
90
100
AcDbEntity
  8
larger
  6
ByLayer
 62
    7
370
   -1
100
AcDbPolyline
 90
   32
 70
    0
 43
0
 10
69.85970855180358
 20
25.10436211566748
 10
69.80604815311247
 20
24.54236076466531
 10
69.7698232734591
 20
23.98147103077179
 10
69.75042427418288
 20
23.42172618865645
 10
69.74724151662326
 20
22.86315951298883
 10
69.75966536211978
 20
22.30580427843845
 10
69.78708617201181
 20
21.74969375967487
 10
69.82889430763888
 20
21.19486123136759
 10
69.88448013034044
 20
20.64133996818617
 10
69.95323400145594
 20
20.08916324480011
 10
70.03454628232487
 20
19.53836433587896
 10
70.12780733428666
 20
18.98897651609225
 10
70.23240751868082
 20
18.4410330601095
 10
70.34773719684677
 20
17.89456724260025
 10
70.473186730124
 20
17.34961233823404
 10
70.60814647985197
 20
16.80620162168039
 10
70.75200680737015
 20
16.26436836760881
 10
70.90415807401799
 20
15.72414585068888
 10
71.06399064113496
 20
15.18556734559008
 10
71.23089487006055
 20
14.64866612698198
 10
71.4042611221342
 20
14.11347546953409
 10
71.58347975869539
 20
13.58002864791595
 10
71.76794114108355
 20
13.04835893679709
 10
71.95703563063817
 20
12.51849961084705
 10
72.15015358869873
 20
11.99048394473532
 10
72.34668537660468
 20
11.4643452131315
 10
72.54602135569547
 20
10.94011669070506
 10
72.74755188731058
 20
10.41783165212556
 10
72.95066733278949
 20
9.897523372062505
 10
73.15475805347165
 20
9.379225125185471
 10
73.35921441069651
 20
8.862970186163958
 10
73.56342676580356
 20
8.348791829667494
  0
LWPOLYLINE
  5
91
100
AcDbEntity
  8
larger
  6
ByLayer
 62
    7
370
   -1
100
AcDbPolyline
 90
   32
 70
    0
 43
0
 10
73.56342676580356
 20
8.348791829667494
 10
73.76049076207366
 20
7.913691156401731
 10
73.96716545357505
 20
7.480863233048236
 10
74.18343028582834
 20
7.050862666788763
 10
74.40926470435413
 20
6.624244064805087
 10
74.64464815467302
 20
6.20156203427894
 10
74.88956008230559
 20
5.783371182392138
 10
75.14397993277245
 20
5.370226116326414
 10
75.40788715159418
 20
4.962681443263536
 10
75.68126118429137
 20
4.561291770385294
 10
75.96408147638462
 20
4.166611704873416
 10
76.25632747339451
 20
3.779195853909709
 10
76.55797862084168
 20
3.399598824675918
 10
76.86901436424665
 20
3.028375224353802
 10
77.18941414913009
 20
2.666079660125156
 10
77.51915742101252
 20
2.313266739171699
 10
77.85822362541458
 20
1.970491068675237
 10
78.20659220785686
 20
1.638307255817534
 10
78.56424261385996
 20
1.317269907780345
 10
78.93115428894446
 20
1.007933631745441
 10
79.30730667863092
 20
0.7108530348945798
 10
79.69267922844
 20
0.4265827244095171
 10
80.08725138389224
 20
0.1556773074720574
 10
80.49100259050827
 20
-0.1013086087360549
 10
80.90391229380866
 20
-0.3438204170330579
 10
81.32595993931402
 20
-0.5713035102371791
 10
81.75712497254491
 20
-0.7832032811666565
 10
82.19738683902197
 20
-0.9789651226397105
 10
82.64672498426577
 20
-1.158034427474593
 10
83.10511885379692
 20
-1.319856588489532
 10
83.57254789313596
 20
-1.463876998502773
 10
84.04899154780357
 20
-1.589541050332524
  0
LWPOLYLINE
  5
92
100
AcDbEntity
  8
larger
  6
ByLayer
 62
    7
370
   -1
100
AcDbPolyline
 90
   32
 70
    0
 43
0
 10
84.04899154780357
 20
-1.589541050332524
 10
84.80528948056951
 20
-1.820642694286601
 10
85.56606440716311
 20
-2.038775989536433
 10
86.33102847106032
 20
-2.243826222711824
 10
87.0998938157371
 20
-2.435678680442553
 10
87.87237258466941
 20
-2.614218649358396
 10
88.64817692133315
 20
-2.77933141608916
 10
89.42701896920433
 20
-2.93090226726461
 10
90.20861087175885
 20
-3.06881648951455
 10
90.99266477247269
 20
-3.19295936946877
 10
91.77889281482179
 20
-3.303216193757024
 10
92.56700714228209
 20
-3.399472249009147
 10
93.35671989832956
 20
-3.481612821854906
 10
94.14774322644013
 20
-3.549523198924081
 10
94.93978927008976
 20
-3.603088666846489
 10
95.73257017275438
 20
-3.642194512251876
 10
96.52579807790998
 20
-3.666726021770046
 10
97.31918512903246
 20
-3.676568482030802
 10
98.11244346959781
 20
-3.671607179663905
 10
98.90528524308193
 20
-3.651727401299173
 10
99.69742259296082
 20
-3.616814433566354
 10
100.4885676627104
 20
-3.566753563095279
 10
101.2784325958066
 20
-3.501430076515703
 10
102.0667295357255
 20
-3.420729260457428
 10
102.8531706259429
 20
-3.324536401550258
 10
103.6374680099347
 20
-3.212736786423957
 10
104.419333831177
 20
-3.085215701708304
 10
105.1984802331458
 20
-2.94185843403309
 10
105.9746193593168
 20
-2.782550270028128
 10
106.7474633531662
 20
-2.607176496323191
 10
107.5167243581697
 20
-2.415622399548059
 10
108.2821145178035
 20
-2.207773266332516
  0
LWPOLYLINE
  5
93
100
AcDbEntity
  8
larger
  6
ByLayer
 62
    7
370
   -1
100
AcDbPolyline
 90
   32
 70
    0
 43
0
 10
108.2821145178035
 20
-2.207773266332516
 10
108.631801331418
 20
-2.100882519803228
 10
108.978726129204
 20
-1.984978777644521
 10
109.322612323608
 20
-1.860147680967874
 10
109.6631833270762
 20
-1.726474870884768
 10
110.0001625520548
 20
-1.58404598850667
 10
110.3332734109904
 20
-1.432946674945054
 10
110.662239316329
 20
-1.273262571311395
 10
110.9867836805171
 20
-1.105079318717184
 10
111.306629916001
 20
-0.9284825582738989
 10
111.621501435227
 20
-0.7435579310930152
 10
111.9311216506413
 20
-0.5503910782859904
 10
112.2352139746903
 20
-0.3490676409643143
 10
112.5335018198203
 20
-0.1396732602394657
 10
112.8257085984776
 20
0.07770642277708362
 10
113.1115577231085
 20
0.3029857669738476
 10
113.3907726061594
 20
0.5360791312393616
 10
113.6630766600765
 20
0.7769008744621573
 10
113.9281932973061
 20
1.025365355530738
 10
114.1858459302946
 20
1.281386933333629
 10
114.4357579714882
 20
1.544879966759357
 10
114.6776528333334
 20
1.815758814696457
 10
114.9112539282762
 20
2.093937836033422
 10
115.1362846687633
 20
2.379331389658821
 10
115.3524684672407
 20
2.671853834461148
 10
115.5595287361548
 20
2.971419529328928
 10
115.7571888879518
 20
3.277942833150684
 10
115.9451723350783
 20
3.591338104814943
 10
116.1232024899804
 20
3.911519703210228
 10
116.2910027651044
 20
4.238401987225053
 10
116.4482965728967
 20
4.571899315747977
 10
116.5948073258035
 20
4.911926047667489
  0
LWPOLYLINE
  5
94
100
AcDbEntity
  8
larger
  6
ByLayer
 62
    7
370
   -1
100
AcDbPolyline
 90
   32
 70
    0
 43
0
 10
116.5948073258035
 20
4.911926047667489
 10
116.8426243283263
 20
5.429502334728953
 10
117.0789838263645
 20
5.951327115514012
 10
117.3040637187842
 20
6.477225833939862
 10
117.5180419044516
 20
7.007023933923607
 10
117.7210962822327
 20
7.540546859382435
 10
117.9134047509936
 20
8.077620054233494
 10
118.0951452096005
 20
8.618068962393954
 10
118.2664955569193
 20
9.161719027780943
 10
118.4276336918163
 20
9.708395694311641
 10
118.5787375131574
 20
10.25792440590319
 10
118.719984919809
 20
10.81013060647276
 10
118.8515538106369
 20
11.3648397399375
 10
118.9736220845074
 20
11.92187725021455
 10
119.0863676402866
 20
12.48106858122112
 10
119.1899683768404
 20
13.0422391768743
 10
119.2846021930352
 20
13.60521448109126
 10
119.3704469877368
 20
14.16981993778921
 10
119.4476806598115
 20
14.73588099088524
 10
119.5164811081252
 20
15.30322308429653
 10
119.5770262315443
 20
15.87167166194024
 10
119.6294939289345
 20
16.44105216773353
 10
119.6740620991624
 20
17.01119004559356
 10
119.7109086410937
 20
17.58191073943748
 10
119.7402114535946
 20
18.15303969318244
 10
119.7621484355314
 20
18.7244023507456
 10
119.7768974857698
 20
19.29582415604411
 10
119.7846365031763
 20
19.86713055299513
 10
119.7855433866169
 20
20.43814698551581
 10
119.7797960349575
 20
21.00869889752334
 10
119.7675723470643
 20
21.57861173293484
 10
119.7490502218036
 20
22.14771093566748
  0
LWPOLYLINE
  5
95
100
AcDbEntity
  8
larger
  6
ByLayer
 62
    7
370
   -1
100
AcDbPolyline
 90
   32
 70
    0
 43
0
 10
-1.824868721752594
 20
22.14771093566748
 10
-1.815679128185522
 20
22.51924722119902
 10
-1.792956678656822
 20
22.89042029782196
 10
-1.756850569279578
 20
23.26073472332073
 10
-1.707509996166962
 20
23.62969505547978
 10
-1.645084155432173
 20
23.99680585208351
 10
-1.569722243188409
 20
24.36157167091639
 10
-1.481573455548812
 20
24.72349706976282
 10
-1.38078698862671
 20
25.08208660640724
 10
-1.267512038535116
 20
25.43684483863409
 10
-1.141897801387358
 20
25.78727632422778
 10
-1.004093473296535
 20
26.13288562097278
 10
-0.8542482503757896
 20
26.47317728665349
 10
-0.6925113287384335
 20
26.80765587905433
 10
-0.5190319044976945
 20
27.13582595595979
 10
-0.3339591737665728
 20
27.45719207515425
 10
-0.1374423326584235
 20
27.77125879442215
 10
0.07036942271366797
 20
28.07753067154792
 10
0.2893268962365312
 20
28.375512264316
 10
0.5192808917968108
 20
28.66470813051082
 10
0.7600822132815352
 20
28.94462282791682
 10
1.011581664577392
 20
29.21476091431841
 10
1.273630049571096
 20
29.47462694750006
 10
1.546078172149677
 20
29.72372548524614
 10
1.828776836199836
 20
29.96156108534114
 10
2.121576845608359
 20
30.18763830556946
 10
2.42432900426212
 20
30.40146170371555
 10
2.736884116047889
 20
30.60253583756383
 10
3.059092984852555
 20
30.79036526489873
 10
3.390806414562803
 20
30.96445454350468
 10
3.731875209065493
 20
31.12430823116612
 10
4.08215017224741
 20
31.26943088566748
  0
LWPOLYLINE
  5
96
100
AcDbEntity
  8
larger
  6
ByLayer
 62
    7
370
   -1
100
AcDbPolyline
 90
   32
 70
    0
 43
0
 10
4.08215017224741
 20
31.26943088566748
 10
4.467384902446881
 20
31.42724636133524
 10
4.854741091940909
 20
31.57903714601471
 10
5.244133957330973
 20
31.72495748828472
 10
5.635478715218639
 20
31.86516163672412
 10
6.028690582205456
 20
31.99980383991172
 10
6.42368477489299
 20
32.12903834642638
 10
6.820376509882621
 20
32.2530194048469
 10
7.218681003775899
 20
32.37190126375214
 10
7.618513473174488
 20
32.48583817172091
 10
8.019789134679755
 20
32.59498437733208
 10
8.422423204893263
 20
32.69949412916444
 10
8.826330900416664
 20
32.79952167579685
 10
9.231427437851337
 20
32.89522126580813
 10
9.637628033798833
 20
32.98674714777711
 10
10.04484790486062
 20
33.07425357028264
 10
10.45300226763845
 20
33.15789478190353
 10
10.86200633873361
 20
33.23782503121863
 10
11.27177533474764
 20
33.31419856680676
 10
11.68222447228223
 20
33.38716963724676
 10
12.09326896793873
 20
33.45689249111746
 10
12.50482403831879
 20
33.52352137699769
 10
12.91680490002386
 20
33.58721054346628
 10
13.32912676965556
 20
33.64811423910209
 10
13.74170486381522
 20
33.7063867124839
 10
14.15445439910457
 20
33.76218221219059
 10
14.56729059212503
 20
33.81565498680098
 10
14.98012865947804
 20
33.86695928489389
 10
15.39288381776535
 20
33.91624935504817
 10
15.80547128358835
 20
33.96367944584264
 10
16.21780627354848
 20
34.00940380585612
 10
16.6298040042474
 20
34.0535766836675
  0
LWPOLYLINE
  5
97
100
AcDbEntity
  8
larger
  6
ByLayer
 62
    7
370
   -1
100
AcDbPolyline
 90
   32
 70
    0
 43
0
 10
16.6298040042474
 20
34.0535766836675
 10
17.42140168576515
 20
34.12509929510685
 10
18.21445122267369
 20
34.18699790719071
 10
19.00874977350675
 20
34.23912563656769
 10
19.80409449679782
 20
34.28133559988648
 10
20.6002825510804
 20
34.3134809137957
 10
21.39711109488798
 20
34.33541469494405
 10
22.19437728675412
 20
34.34699005998013
 10
22.99187828521231
 20
34.34806012555261
 10
23.78941124879607
 20
34.33847800831015
 10
24.58677333603893
 20
34.3180968249014
 10
25.38376170547441
 20
34.28676969197502
 10
26.180173515636
 20
34.24434972617966
 10
26.97580592505722
 20
34.19069004416394
 10
27.77045609227162
 20
34.12564376257655
 10
28.56392117581269
 20
34.04906399806613
 10
29.35599833421395
 20
33.96080386728133
 10
30.14648472600892
 20
33.8607164868708
 10
30.9351775097311
 20
33.7486549734832
 10
31.72187384391407
 20
33.62447244376717
 10
32.50637088709126
 20
33.4880220143714
 10
33.28846579779623
 20
33.33915680194448
 10
34.06795573456252
 20
33.17772992313512
 10
34.84463785592359
 20
33.00359449459193
 10
35.61830932041299
 20
32.81660363296358
 10
36.38876728656425
 20
32.61661045489873
 10
37.15580891291086
 20
32.40346807704601
 10
37.91923135798635
 20
32.17702961605411
 10
38.67883178032424
 20
31.93714818857164
 10
39.43440733845803
 20
31.68367691124729
 10
40.18575519092127
 20
31.41646890072969
 10
40.93267249624745
 20
31.13537727366748
  0
LWPOLYLINE
  5
98
100
AcDbEntity
  8
larger
  6
ByLayer
 62
    7
370
   -1
100
AcDbPolyline
 90
   32
 70
    0
 43
0
 10
40.93267249624745
 20
31.13537727366748
 10
41.20891258108421
 20
31.01232857863483
 10
41.48879915999048
 20
30.88812560675897
 10
41.77163651285045
 20
30.76239466129241
 10
42.05672891954843
 20
30.6347620454877
 10
42.34338065996872
 20
30.50485406259737
 10
42.63089601399551
 20
30.37229701587393
 10
42.91857926151306
 20
30.23671720856991
 10
43.20573468240569
 20
30.09774094393784
 10
43.4916665565576
 20
29.95499452523023
 10
43.7756791638531
 20
29.80810425569964
 10
44.05707678417642
 20
29.65669643859857
 10
44.33516369741184
 20
29.50039737717955
 10
44.60924418344358
 20
29.33883337469512
 10
44.87862252215595
 20
29.17163073439778
 10
45.14260299343317
 20
28.99841575954007
 10
45.40048987715954
 20
28.81881475337452
 10
45.65158745321929
 20
28.63245401915364
 10
45.89520000149669
 20
28.43895986012997
 10
46.13063180187599
 20
28.23795857955604
 10
46.35718713424147
 20
28.02907648068438
 10
46.5741702784774
 20
27.81193986676748
 10
46.780885514468
 20
27.58617504105791
 10
46.97663712209754
 20
27.35140830680817
 10
47.16072938125031
 20
27.10726596727079
 10
47.33246657181054
 20
26.8533743256983
 10
47.49115297366251
 20
26.58935968534323
 10
47.63609286669046
 20
26.31484834945811
 10
47.7665905307787
 20
26.02946662129543
 10
47.88195024581141
 20
25.73284080410776
 10
47.98147629167292
 20
25.42459720114761
 10
48.06447294824744
 20
25.10436211566748
  0
LWPOLYLINE
  5
99
100
AcDbEntity
  8
larger
  6
ByLayer
 62
    7
370
   -1
100
AcDbPolyline
 90
   32
 70
    0
 43
0
 10
48.06447294824744
 20
25.10436211566748
 10
48.11813334693855
 20
24.54236076466531
 10
48.15435822659192
 20
23.98147103077179
 10
48.17375722586814
 20
23.42172618865645
 10
48.17693998342776
 20
22.86315951298883
 10
48.16451613793124
 20
22.30580427843845
 10
48.13709532803921
 20
21.74969375967487
 10
48.09528719241214
 20
21.19486123136759
 10
48.03970136971058
 20
20.64133996818618
 10
47.97094749859508
 20
20.08916324480011
 10
47.88963521772615
 20
19.53836433587896
 10
47.79637416576436
 20
18.98897651609225
 10
47.6917739813702
 20
18.4410330601095
 10
47.57644430320425
 20
17.89456724260025
 10
47.45099476992702
 20
17.34961233823404
 10
47.31603502019905
 20
16.8062016216804
 10
47.17217469268087
 20
16.26436836760881
 10
47.02002342603303
 20
15.72414585068888
 10
46.86019085891606
 20
15.18556734559008
 10
46.69328662999047
 20
14.64866612698198
 10
46.51992037791682
 20
14.11347546953409
 10
46.34070174135563
 20
13.58002864791596
 10
46.15624035896747
 20
13.04835893679709
 10
45.96714586941285
 20
12.51849961084705
 10
45.77402791135229
 20
11.99048394473532
 10
45.57749612344634
 20
11.4643452131315
 10
45.37816014435555
 20
10.94011669070506
 10
45.17662961274044
 20
10.41783165212556
 10
44.97351416726153
 20
9.897523372062498
 10
44.76942344657937
 20
9.379225125185471
 10
44.56496708935451
 20
8.862970186163961
 10
44.36075473424746
 20
8.348791829667501
  0
LWPOLYLINE
  5
9A
100
AcDbEntity
  8
larger
  6
ByLayer
 62
    7
370
   -1
100
AcDbPolyline
 90
   32
 70
    0
 43
0
 10
44.36075473424746
 20
8.348791829667501
 10
44.16369073797736
 20
7.91369115640172
 10
43.95701604647597
 20
7.480863233048236
 10
43.74075121422268
 20
7.050862666788763
 10
43.51491679569689
 20
6.624244064805087
 10
43.279533345378
 20
6.201562034278947
 10
43.03462141774543
 20
5.783371182392131
 10
42.78020156727857
 20
5.370226116326414
 10
42.51629434845684
 20
4.96268144326354
 10
42.24292031575965
 20
4.561291770385298
 10
41.9601000236664
 20
4.16661170487342
 10
41.66785402665651
 20
3.779195853909702
 10
41.36620287920934
 20
3.399598824675914
 10
41.05516713580437
 20
3.028375224353802
 10
40.73476735092093
 20
2.666079660125156
 10
40.4050240790385
 20
2.313266739171706
 10
40.06595787463644
 20
1.97049106867523
 10
39.71758929219416
 20
1.638307255817526
 10
39.35993888619106
 20
1.317269907780348
 10
38.99302721110656
 20
1.007933631745441
 10
38.6168748214201
 20
0.7108530348945798
 10
38.23150227161102
 20
0.4265827244095242
 10
37.83693011615878
 20
0.1556773074720645
 10
37.43317890954275
 20
-0.101308608736062
 10
37.02026920624236
 20
-0.343820417033065
 10
36.598221560737
 20
-0.5713035102371791
 10
36.16705652750611
 20
-0.7832032811666565
 10
35.72679466102905
 20
-0.9789651226397105
 10
35.27745651578525
 20
-1.158034427474593
 10
34.8190626462541
 20
-1.319856588489532
 10
34.35163360691506
 20
-1.463876998502766
 10
33.87518995224745
 20
-1.589541050332517
  0
LWPOLYLINE
  5
9B
100
AcDbEntity
  8
larger
  6
ByLayer
 62
    7
370
   -1
100
AcDbPolyline
 90
   32
 70
    0
 43
0
 10
33.87518995224745
 20
-1.589541050332517
 10
33.11889201948151
 20
-1.820642694286594
 10
32.35811709288791
 20
-2.03877598953644
 10
31.5931530289907
 20
-2.243826222711832
 10
30.82428768431392
 20
-2.435678680442553
 10
30.05180891538161
 20
-2.614218649358396
 10
29.27600457871787
 20
-2.77933141608916
 10
28.49716253084669
 20
-2.93090226726461
 10
27.71557062829217
 20
-3.06881648951455
 10
26.93151672757833
 20
-3.19295936946877
 10
26.14528868522923
 20
-3.303216193757017
 10
25.35717435776893
 20
-3.399472249009147
 10
24.56746160172146
 20
-3.481612821854906
 10
23.77643827361089
 20
-3.549523198924081
 10
22.98439222996126
 20
-3.603088666846482
 10
22.19161132729664
 20
-3.642194512251869
 10
21.39838342214104
 20
-3.666726021770039
 10
20.60499637101856
 20
-3.676568482030795
 10
19.81173803045321
 20
-3.671607179663905
 10
19.01889625696909
 20
-3.651727401299173
 10
18.2267589070902
 20
-3.616814433566361
 10
17.43561383734058
 20
-3.566753563095279
 10
16.64574890424439
 20
-3.501430076515696
 10
15.85745196432555
 20
-3.420729260457435
 10
15.07101087410814
 20
-3.324536401550258
 10
14.28671349011628
 20
-3.212736786423957
 10
13.50484766887402
 20
-3.085215701708304
 10
12.72570126690522
 20
-2.94185843403309
 10
11.94956214073419
 20
-2.782550270028128
 10
11.17671814688484
 20
-2.607176496323191
 10
10.40745714188128
 20
-2.415622399548067
 10
9.642066982247499
 20
-2.207773266332524
  0
LWPOLYLINE
  5
9C
100
AcDbEntity
  8
larger
  6
ByLayer
 62
    7
370
   -1
100
AcDbPolyline
 90
   32
 70
    0
 43
0
 10
9.642066982247499
 20
-2.207773266332524
 10
9.292380168632988
 20
-2.100882519803235
 10
8.945455370846986
 20
-1.984978777644528
 10
8.601569176443022
 20
-1.860147680967867
 10
8.260998172974823
 20
-1.726474870884761
 10
7.924018947996174
 20
-1.584045988506663
 10
7.590908089060605
 20
-1.432946674945047
 10
7.261942183721999
 20
-1.273262571311395
 10
6.937397819533913
 20
-1.105079318717184
 10
6.61755158405002
 20
-0.9284825582738989
 10
6.30268006482406
 20
-0.7435579310930152
 10
5.993059849409732
 20
-0.5503910782859904
 10
5.688967525360766
 20
-0.3490676409643214
 10
5.390679680230718
 20
-0.1396732602394728
 10
5.098472901573388
 20
0.07770642277707651
 10
4.812623776942488
 20
0.3029857669738547
 10
4.533408893891618
 20
0.5360791312393687
 10
4.26110483997455
 20
0.7769008744621573
 10
3.995988202744897
 20
1.025365355530738
 10
3.738335569756458
 20
1.281386933333629
 10
3.488423528562791
 20
1.544879966759357
 10
3.246528666717666
 20
1.815758814696446
 10
3.01292757177481
 20
2.09393783603343
 10
2.787896831287725
 20
2.379331389658825
 10
2.571713032810351
 20
2.671853834461151
 10
2.364652763896245
 20
2.971419529328932
 10
2.166992612099193
 20
3.277942833150687
 10
1.979009164972751
 20
3.591338104814932
 10
1.800979010070648
 20
3.911519703210221
 10
1.633178734946597
 20
4.23840198722506
 10
1.47588492715434
 20
4.571899315747984
 10
1.329374174247505
 20
4.911926047667489
  0
LWPOLYLINE
  5
9D
100
AcDbEntity
  8
larger
  6
ByLayer
 62
    7
370
   -1
100
AcDbPolyline
 90
   32
 70
    0
 43
0
 10
1.329374174247505
 20
4.911926047667489
 10
1.081557171724711
 20
5.429502334728957
 10
0.845197673686485
 20
5.951327115514005
 10
0.6201177812667709
 20
6.477225833939869
 10
0.4061395955994129
 20
7.007023933923611
 10
0.2030852178183267
 20
7.540546859382435
 10
0.0107767490573849
 20
8.07762005423349
 10
-0.1709637095494401
 20
8.61806896239395
 10
-0.342314056868247
 20
9.161719027780943
 10
-0.5034521917652341
 20
9.708395694311633
 10
-0.6545560131064292
 20
10.2579244059032
 10
-0.7958034197579593
 20
10.81013060647276
 10
-0.9273723105859091
 20
11.3648397399375
 10
-1.04944058445642
 20
11.92187725021455
 10
-1.162186140235576
 20
12.48106858122113
 10
-1.26578687678942
 20
13.0422391768743
 10
-1.360420692984164
 20
13.60521448109127
 10
-1.446265487685793
 20
14.16981993778921
 10
-1.523499159760448
 20
14.73588099088524
 10
-1.592299608074214
 20
15.30322308429653
 10
-1.652844731493246
 20
15.87167166194024
 10
-1.705312428883516
 20
16.44105216773353
 10
-1.749880599111364
 20
17.01119004559356
 10
-1.786727141042689
 20
17.58191073943749
 10
-1.81602995354362
 20
18.15303969318244
 10
-1.837966935480353
 20
18.7244023507456
 10
-1.852715985718817
 20
19.29582415604411
 10
-1.86045500312531
 20
19.86713055299513
 10
-1.861361886565831
 20
20.4381469855158
 10
-1.855614534906451
 20
21.00869889752334
 10
-1.843390847013325
 20
21.57861173293484
 10
-1.824868721752594
 20
22.14771093566748
  0
LINE
  5
9E
100
AcDbEntity
  8
0
  6
ByLayer
 62
  256
370
   -1
100
AcDbLine
 10
119.18490046418
 20
33.84291004084079
 11
131.1443824291924
 21
31.83301143266734
  0
LINE
  5
9F
100
AcDbEntity
  8
0
  6
ByLayer
 62
  256
370
   -1
100
AcDbLine
 10
130.8735733254804
 20
24.17495368645525
 11
124.9368046842549
 21
20.39643499748038
  0
LINE
  5
A0
100
AcDbEntity
  8
0
  6
ByLayer
 62
  256
370
   -1
100
AcDbLine
 10
131.1443824291924
 20
31.83301143266734
 11
130.8735733254804
 21
24.17495368645525
  0
LINE
  5
A1
100
AcDbEntity
  8
0
  6
ByLayer
 62
  256
370
   -1
100
AcDbLine
 10
117.7523464298156
 20
34.53608002253829
 11
119.18490046418
 21
33.84291004084079
  0
LINE
  5
A2
100
AcDbEntity
  8
0
  6
ByLayer
 62
  256
370
   -1
100
AcDbLine
 10
124.9368046842549
 20
20.39643499748038
 11
121.0825509298156
 21
2.649765522538297
  0
LINE
  5
A3
100
AcDbEntity
  8
0
  6
ByLayer
 62
  256
370
   -1
100
AcDbLine
 10
-1.260718964128984
 20
33.84291004084079
 11
-13.22020092914138
 21
31.83301143266734
  0
LINE
  5
A4
100
AcDbEntity
  8
0
  6
ByLayer
 62
  256
370
   -1
100
AcDbLine
 10
-12.94939182542939
 20
24.17495368645525
 11
-7.012623184203832
 21
20.39643499748037
  0
LINE
  5
A5
100
AcDbEntity
  8
0
  6
ByLayer
 62
  256
370
   -1
100
AcDbLine
 10
-13.22020092914138
 20
31.83301143266734
 11
-12.94939182542939
 21
24.17495368645525
  0
LINE
  5
A6
100
AcDbEntity
  8
0
  6
ByLayer
 62
  256
370
   -1
100
AcDbLine
 10
-7.012623184203832
 20
20.39643499748037
 11
-3.158369429764576
 21
2.649765522538294
  0
LINE
  5
A7
100
AcDbEntity
  8
0
  6
ByLayer
 62
  256
370
   -1
100
AcDbLine
 10
-1.260718964128984
 20
33.84291004084079
 11
0.1718350702354172
 21
34.53608002253829
  0
LINE
  5
A8
100
AcDbEntity
  8
larger
  6
ByLayer
 62
  256
370
   -1
100
AcDbLine
 10
119.18490046418
 20
33.84291004084079
 11
131.1443824291924
 21
31.83301143266734
  0
LINE
  5
A9
100
AcDbEntity
  8
larger
  6
ByLayer
 62
  256
370
   -1
100
AcDbLine
 10
130.8735733254804
 20
24.17495368645525
 11
124.9368046842549
 21
20.39643499748038
  0
LINE
  5
AA
100
AcDbEntity
  8
larger
  6
ByLayer
 62
  256
370
   -1
100
AcDbLine
 10
131.1443824291924
 20
31.83301143266734
 11
130.8735733254804
 21
24.17495368645525
  0
LINE
  5
AB
100
AcDbEntity
  8
larger
  6
ByLayer
 62
  256
370
   -1
100
AcDbLine
 10
117.7523464298156
 20
34.53608002253829
 11
119.18490046418
 21
33.84291004084079
  0
LINE
  5
AC
100
AcDbEntity
  8
larger
  6
ByLayer
 62
  256
370
   -1
100
AcDbLine
 10
124.9368046842549
 20
20.39643499748038
 11
121.0825509298156
 21
2.649765522538297
  0
LINE
  5
AD
100
AcDbEntity
  8
larger
  6
ByLayer
 62
  256
370
   -1
100
AcDbLine
 10
-1.260718964128984
 20
33.84291004084079
 11
-13.22020092914138
 21
31.83301143266734
  0
LINE
  5
AE
100
AcDbEntity
  8
larger
  6
ByLayer
 62
  256
370
   -1
100
AcDbLine
 10
-12.94939182542939
 20
24.17495368645525
 11
-7.012623184203832
 21
20.39643499748037
  0
LINE
  5
AF
100
AcDbEntity
  8
larger
  6
ByLayer
 62
  256
370
   -1
100
AcDbLine
 10
-13.22020092914138
 20
31.83301143266734
 11
-12.94939182542939
 21
24.17495368645525
  0
LINE
  5
B0
100
AcDbEntity
  8
larger
  6
ByLayer
 62
  256
370
   -1
100
AcDbLine
 10
-7.012623184203832
 20
20.39643499748037
 11
-3.158369429764576
 21
2.649765522538294
  0
LINE
  5
B1
100
AcDbEntity
  8
larger
  6
ByLayer
 62
  256
370
   -1
100
AcDbLine
 10
-1.260718964128984
 20
33.84291004084079
 11
0.1718350702354172
 21
34.53608002253829
  0
LINE
  5
B2
100
AcDbEntity
  8
attache
  6
ByLayer
 62
  256
370
   -1
100
AcDbLine
 10
130.8735733254804
 20
24.17495368645525
 11
124.9368046842549
 21
20.39643499748038
  0
LINE
  5
B3
100
AcDbEntity
  8
attache
  6
ByLayer
 62
  256
370
   -1
100
AcDbLine
 10
124.9368046842549
 20
32.9599013703037
 11
131.1443824291924
 21
31.83301143266734
  0
LINE
  5
B4
100
AcDbEntity
  8
attache
  6
ByLayer
 62
  256
370
   -1
100
AcDbLine
 10
124.9368046842549
 20
29.40879372728656
 11
124.9368046842549
 21
32.9599013703037
  0
LINE
  5
B5
100
AcDbEntity
  8
attache
  6
ByLayer
 62
  256
370
   -1
100
AcDbLine
 10
131.1443824291924
 20
31.83301143266734
 11
131.0586557024226
 21
29.40879372728656
  0
LINE
  5
B6
100
AcDbEntity
  8
attache
  6
ByLayer
 62
  256
370
   -1
100
AcDbLine
 10
124.9368046842549
 20
20.39643499748038
 11
124.9368046842549
 21
26.40879372728656
  0
LINE
  5
B7
100
AcDbEntity
  8
attache
  6
ByLayer
 62
  256
370
   -1
100
AcDbLine
 10
130.9525677963164
 20
26.40879372728656
 11
130.8735733254804
 21
24.17495368645525
  0
LINE
  5
B8
100
AcDbEntity
  8
attache
  6
ByLayer
 62
  256
370
   -1
100
AcDbLine
 10
124.9368046842549
 20
26.40879372728656
 11
130.9525677963164
 21
26.40879372728656
  0
LINE
  5
B9
100
AcDbEntity
  8
attache
  6
ByLayer
 62
  256
370
   -1
100
AcDbLine
 10
124.9368046842549
 20
29.40879372728656
 11
131.0586557024226
 21
29.40879372728656
  0
LINE
  5
BA
100
AcDbEntity
  8
attache
  6
ByLayer
 62
  256
370
   -1
100
AcDbLine
 10
-12.94939182542939
 20
24.17495368645525
 11
-7.012623184203875
 21
20.39643499748039
  0
LINE
  5
BB
100
AcDbEntity
  8
attache
  6
ByLayer
 62
  256
370
   -1
100
AcDbLine
 10
-7.012623184203875
 20
32.9599013703037
 11
-13.22020092914138
 21
31.83301143266734
  0
LINE
  5
BC
100
AcDbEntity
  8
attache
  6
ByLayer
 62
  256
370
   -1
100
AcDbLine
 10
-7.012623184203875
 20
29.40879372728656
 11
-7.012623184203875
 21
32.9599013703037
  0
LINE
  5
BD
100
AcDbEntity
  8
attache
  6
ByLayer
 62
  256
370
   -1
100
AcDbLine
 10
-13.22020092914138
 20
31.83301143266734
 11
-13.13447420237159
 21
29.40879372728656
  0
LINE
  5
BE
100
AcDbEntity
  8
attache
  6
ByLayer
 62
  256
370
   -1
100
AcDbLine
 10
-7.012623184203875
 20
20.39643499748039
 11
-7.012623184203889
 21
26.40879372728656
  0
LINE
  5
BF
100
AcDbEntity
  8
attache
  6
ByLayer
 62
  256
370
   -1
100
AcDbLine
 10
-13.02838629626538
 20
26.40879372728656
 11
-12.94939182542939
 21
24.17495368645525
  0
LINE
  5
C0
100
AcDbEntity
  8
attache
  6
ByLayer
 62
  256
370
   -1
100
AcDbLine
 10
-7.012623184203889
 20
26.40879372728656
 11
-13.02838629626538
 21
26.40879372728656
  0
LINE
  5
C1
100
AcDbEntity
  8
attache
  6
ByLayer
 62
  256
370
   -1
100
AcDbLine
 10
-7.012623184203875
 20
29.40879372728656
 11
-13.13447420237159
 21
29.40879372728656
  0
ARC
  5
C2
100
AcDbEntity
  8
nez
  6
ByLayer
 62
  256
370
   -1
100
AcDbCircle
 10
50.89443868199524
 20
14.94268427253829
 40
16.13530413606054
100
AcDbArc
 50
0
 51
29.91258045701156
  0
LINE
  5
C3
100
AcDbEntity
  8
nez
  6
ByLayer
 62
  256
370
   -1
100
AcDbLine
 10
64.88031498359454
 20
22.98900663990187
 11
67.02974281805578
 21
14.94268427253829
  0
ARC
  5
C4
100
AcDbEntity
  8
nez
  6
ByLayer
 62
  256
370
   -1
100
AcDbCircle
 10
67.02974281805578
 20
14.94268427253829
 40
16.13530413606054
100
AcDbArc
 50
150.0874195429884
 51
180
  0
LINE
  5
C5
100
AcDbEntity
  8
nez
  6
ByLayer
 62
  256
370
   -1
100
AcDbLine
 10
53.04386651645648
 20
22.98900663990187
 11
50.89443868199524
 21
14.94268427253829
  0
ENDSEC
  0
SECTION
  2
OBJECTS
  0
DICTIONARY
  5
C
330
0
100
AcDbDictionary
281
    1
  3
ACAD_GROUP
350
D
  0
DICTIONARY
  5
D
330
C
100
AcDbDictionary
281
    1
  0
ENDSEC
  0
EOF
