<?xml version="1.0" encoding="UTF-8" standalone="no"?>
<svg
   xmlns:dc="http://purl.org/dc/elements/1.1/"
   xmlns:cc="http://creativecommons.org/ns#"
   xmlns:rdf="http://www.w3.org/1999/02/22-rdf-syntax-ns#"
   xmlns:svg="http://www.w3.org/2000/svg"
   xmlns="http://www.w3.org/2000/svg"
   id="svg8"
   version="1.1"
   viewBox="0 0 40.327126 52.965244"
   height="52.965244mm"
   width="40.327126mm">
  <defs
     id="defs2" />
  <metadata
     id="metadata5">
    <rdf:RDF>
      <cc:Work
         rdf:about="">
        <dc:format>image/svg+xml</dc:format>
        <dc:type
           rdf:resource="http://purl.org/dc/dcmitype/StillImage" />
        <dc:title></dc:title>
      </cc:Work>
    </rdf:RDF>
  </metadata>
  <g
     transform="translate(338.90745,448.93941)"
     id="layer1">
    <path
       id="path826"
       d="m -311.5782,-448.73796 c 4.0389,0.0258 8.10008,2.35689 9.59575,6.21399 1.74881,4.17579 2.45653,8.72331 2.92883,13.19972 0.82925,8.5963 0.0617,17.4714 -3.06985,25.56582 -1.33266,2.98048 -2.79684,6.69258 -6.34443,7.50242 -6.11506,0.68028 -12.04843,-1.67987 -17.62631,-3.89619 -4.74003,-2.08984 -9.19057,-5.80245 -10.4548,-11.03047 -2.58222,-8.19583 -2.99873,-17.19449 -0.65036,-25.49245 1.11264,-3.81522 3.75831,-7.21167 7.48969,-8.74468 5.6025,-2.75677 11.95024,-3.55309 18.13148,-3.31816 z"
       style="fill:none;stroke:#000000;stroke-width:0.32513613;stroke-linecap:butt;stroke-linejoin:miter;stroke-miterlimit:4;stroke-dasharray:none;stroke-opacity:1" />
  </g>
</svg>
